<?xml version="1.0" standalone="no"?>
<!DOCTYPE svg PUBLIC "-//W3C//DTD SVG 1.1//EN" "http://www.w3.org/Graphics/SVG/1.1/DTD/svg11.dtd" >
<svg xmlns="http://www.w3.org/2000/svg" xmlns:xlink="http://www.w3.org/1999/xlink" version="1.1">
<metadata>
Created by FontForge 20170731 at Tue May  9 17:12:14 2017
 By ,,,
Copyright (c) 2017 Dubai Executive Council. All rights reserved.
</metadata>
<defs>
<font id="DubaiW23-Bold" horiz-adv-x="0" >
  <font-face 
    font-family="Dubai W23 Bold"
    font-weight="700"
    font-stretch="normal"
    units-per-em="1000"
    panose-1="2 11 8 3 3 4 3 3 2 4"
    ascent="800"
    descent="-200"
    x-height="450"
    cap-height="648"
    bbox="-665 -559 1330 1129"
    underline-thickness="50"
    underline-position="-150"
    unicode-range="U+000D-FEFF"
  />
<missing-glyph horiz-adv-x="540" 
d="M80 0v688h380v-688h-380zM156 72h227v544h-227v-544z" />
    <glyph glyph-name="uniFB01" unicode="fi" horiz-adv-x="596" 
d="M232.5 563q-16.5 -18 -16.5 -52v-61h115l-15 -107h-100v-343h-136v343h-66v107h66v58q0 54 21 96.5t61.5 66.5t98.5 24q27 0 49.5 -4t46.5 -12l-36 -107q-19 9 -44 9q-28 0 -44.5 -18zM423 528.5q-20 11.5 -32 30.5t-12 42t12 42.5t32 31t43 11.5q24 0 44.5 -11.5
t32.5 -31t12 -42.5t-12 -42t-32.5 -30.5t-44.5 -11.5q-23 0 -43 11.5zM400 0v447l136 13v-460h-136z" />
    <glyph glyph-name="uniFB02" unicode="fl" horiz-adv-x="596" 
d="M400 688l136 13v-701h-136v688zM101 604.5q21 42.5 61.5 66.5t98.5 24q27 0 49.5 -4t46.5 -12l-36 -107q-19 9 -44 9q-28 0 -44.5 -18t-16.5 -52v-61h103l-15 -107h-88v-343h-136v343h-66v107h66v58q0 54 21 96.5z" />
    <glyph glyph-name="uniFDF2" unicode="&#x627;&#xfedf;&#xfee0;&#xfeea;" horiz-adv-x="1289" arabic-form="isolated" 
d="M667 975v-128h-88v128h88zM491.5 667q-21.5 25 -21.5 64q0 11 2.5 29t6.5 30l68 2q-4 -21 -4 -43q0 -18 6 -26.5t18 -8.5q10 0 15.5 6t8.5 21.5t3 44.5l64 5q-1 -20 -1 -41q0 -33 27 -33q13 0 18.5 9t5.5 27q0 13 -3 28t-7 29l69 16q7 -22 11 -40.5t4 -38.5
q0 -46 -24.5 -74.5t-71.5 -28.5q-19 0 -34 6.5t-24 17.5q-11 -13 -28.5 -19.5t-37.5 -6.5q-49 0 -70.5 25zM983 687v-469q0 -81 -25.5 -128.5t-73.5 -67.5t-121 -22h-7h-4h-8v0q-32 2 -62.5 15t-51.5 42q-25 -30 -64 -43t-106 -14h-5h-4h-6v0q-53 2 -90.5 17.5t-60.5 48.5
q-47 -16 -93 -16q-54 0 -94.5 16t-62 45.5t-21.5 67.5q0 42 27.5 84.5t82 80t130.5 62.5v46l116 45l9 -3v-300q0 -26 7.5 -40.5t26.5 -21t55 -7.5q21 0 41 3.5t34 9.5q7 28 7 74v342l116 30l9 -6v-365q0 -38 8.5 -56t27.5 -24.5t56 -7.5q21 0 41 3.5t34 9.5q7 28 7 74v450
l116 31zM263 175v19v95q-53 -13 -91 -33.5t-47 -43.5q7 -19 33.5 -30t55.5 -11t49 4zM1110 -7l-8 6v663l116 31l10 -6l-3 -670z" />
    <glyph glyph-name="uniFEF5" unicode="&#xfedf;&#xfe82;" horiz-adv-x="510" arabic-form="isolated" 
d="M385 281q54 -74 54 -136q0 -71 -48 -108t-158 -37h-140l7 123q56 30 99 63.5t72 76.5q-46 42 -104.5 85t-107.5 74l37 123l7 3q134 -104 213 -185q11 46 11 95q0 41 -7.5 94.5t-16.5 85.5l112 55l8 -2q8 -41 14.5 -98.5t6.5 -97.5q0 -115 -59 -214zM327 205
q-42 -45 -95 -80h22q44 0 68 4.5t36 15.5q0 24 -31 60zM159.5 593.5q-14.5 3.5 -23 6t-11.5 3.5q-17 6 -31 9.5t-28 3.5q-36 0 -76 -25l-36 56q26 25 50.5 36t49.5 11q15 0 32.5 -3.5t33.5 -8.5q21 -6 37.5 -9.5t32.5 -3.5q25 0 46 8l23 -67q-37 -20 -71 -20
q-14 0 -28.5 3.5z" />
    <glyph glyph-name="uniFEF6" unicode="&#xfee0;&#xfe82;" horiz-adv-x="598" arabic-form="final" 
d="M656.5 115q9.5 -10 9.5 -30q0 -40 -16 -62.5t-51 -22.5q-75 0 -121 27t-65 85q-105 -115 -291 -115l-58 120l4 6q68 3 124 11.5t102 28.5q-37 60 -86.5 116.5t-132.5 132.5l38 132l7 3q86 -82 155 -172.5t103 -155.5q16 20 23 30v413l115 31l10 -6v-474q0 -34 10 -53
t31 -27t59 -8q21 0 30.5 -10zM201.5 595.5q-14.5 3.5 -23 6t-11.5 3.5q-17 6 -31 9.5t-28 3.5q-36 0 -76 -25l-36 56q26 25 50.5 36t49.5 11q15 0 32.5 -3.5t33.5 -8.5q21 -6 37.5 -9.5t32.5 -3.5q25 0 46 8l23 -67q-37 -20 -71 -20q-14 0 -28.5 3.5z" />
    <glyph glyph-name="uniFEF7" unicode="&#xfedf;&#xfe84;" horiz-adv-x="509" arabic-form="isolated" 
d="M384 281q54 -74 54 -136q0 -71 -48 -108t-158 -37h-140l7 123q56 30 99 63.5t72 76.5q-46 42 -104.5 85t-107.5 74l37 123l7 3q134 -104 213 -185q11 46 11 95q0 41 -7.5 94.5t-16.5 85.5l112 55l8 -2q8 -41 14.5 -98.5t6.5 -97.5q0 -115 -59 -214zM326 205
q-42 -45 -95 -80h22q44 0 68 4.5t36 15.5q0 24 -31 60zM200 610q-78 -10 -195 -14l-7 72q30 0 46 1q-10 14 -16 30.5t-6 32.5q0 39 23.5 62.5t65.5 23.5q32 0 74 -16l-17 -65q-24 8 -43 8q-16 0 -25 -8.5t-9 -23.5q0 -23 20 -41q58 4 84 7z" />
    <glyph glyph-name="uniFEF8" unicode="&#xfee0;&#xfe84;" horiz-adv-x="597" arabic-form="final" 
d="M655.5 115q9.5 -10 9.5 -30q0 -40 -16 -62.5t-51 -22.5q-75 0 -121 27t-65 85q-105 -115 -291 -115l-58 120l4 6q68 3 124 11.5t102 28.5q-37 60 -86.5 116.5t-132.5 132.5l38 132l7 3q86 -82 155 -172.5t103 -155.5q16 20 23 30v413l115 31l10 -6v-474q0 -34 10 -53
t31 -27t59 -8q21 0 30.5 -10zM242 612q-78 -10 -195 -14l-7 72q30 0 46 1q-10 14 -16 30.5t-6 32.5q0 39 23.5 62.5t65.5 23.5q32 0 74 -16l-17 -65q-24 8 -43 8q-16 0 -25 -8.5t-9 -23.5q0 -23 20 -41q58 4 84 7z" />
    <glyph glyph-name="uniFEF9" unicode="&#xfedf;&#xfe88;" horiz-adv-x="480" arabic-form="isolated" 
d="M355 281q54 -74 54 -136q0 -71 -48 -108t-158 -37h-140l7 123q56 30 99 63.5t72 76.5q-46 42 -104.5 85t-107.5 74l37 123l7 3q134 -104 213 -185q11 46 11 95q0 41 -7.5 94.5t-16.5 85.5l112 55l8 -2q8 -41 14.5 -98.5t6.5 -97.5q0 -115 -59 -214zM297 205
q-42 -45 -95 -80h22q44 0 68 4.5t36 15.5q0 24 -31 60zM246 -265q-78 -10 -195 -14l-7 72q30 0 45 1q-9 14 -15 30.5t-6 31.5q0 39 23.5 62.5t65.5 23.5q35 0 74 -15l-17 -65q-29 8 -43 8q-16 0 -25 -8.5t-9 -23.5q0 -23 20 -41q60 4 84 7z" />
    <glyph glyph-name="uniFEFA" unicode="&#xfee0;&#xfe88;" horiz-adv-x="550" arabic-form="final" 
d="M608.5 115q9.5 -10 9.5 -30q0 -40 -16 -62.5t-51 -22.5q-75 0 -121 27t-65 85q-105 -115 -291 -115l-58 120l4 6q68 3 124 11.5t102 28.5q-37 60 -86.5 116.5t-132.5 132.5l38 132l7 3q86 -82 155 -172.5t103 -155.5q16 20 23 30v413l115 31l10 -6v-474q0 -34 10 -53
t31 -27t59 -8q21 0 30.5 -10zM286 -265q-78 -10 -195 -14l-7 72q30 0 45 1q-9 14 -15 30.5t-6 31.5q0 39 23.5 62.5t65.5 23.5q35 0 74 -15l-17 -65q-29 8 -43 8q-16 0 -25 -8.5t-9 -23.5q0 -23 20 -41q60 4 84 7z" />
    <glyph glyph-name="uniFEFB" unicode="&#xfedf;&#xfe8e;" horiz-adv-x="480" arabic-form="isolated" 
d="M355 281q54 -74 54 -136q0 -71 -48 -108t-158 -37h-140l7 123q56 30 99 63.5t72 76.5q-46 42 -104.5 85t-107.5 74l37 123l7 3q134 -104 213 -185q11 46 11 95q0 41 -7.5 94.5t-16.5 85.5l112 55l8 -2q8 -41 14.5 -98.5t6.5 -97.5q0 -115 -59 -214zM297 205
q-42 -45 -95 -80h22q44 0 68 4.5t36 15.5q0 24 -31 60z" />
    <glyph glyph-name="uniFEFC" unicode="&#xfee0;&#xfe8e;" horiz-adv-x="550" arabic-form="final" 
d="M608.5 115q9.5 -10 9.5 -30q0 -40 -16 -62.5t-51 -22.5q-75 0 -121 27t-65 85q-105 -115 -291 -115l-58 120l4 6q68 3 124 11.5t102 28.5q-37 60 -86.5 116.5t-132.5 132.5l38 132l7 3q86 -82 155 -172.5t103 -155.5q16 20 23 30v413l115 31l10 -6v-474q0 -34 10 -53
t31 -27t59 -8q21 0 30.5 -10z" />
    <glyph glyph-name="uniFEDF_uniFB51.rlig" unicode="&#xfedf;&#xfb51;" horiz-adv-x="476" 
d="M383 281q54 -74 54 -136q0 -71 -48 -108t-158 -37h-140l7 123q56 30 99 63.5t72 76.5q-46 42 -104.5 85t-107.5 74l37 123l7 3q134 -104 213 -185q11 46 11 95q0 41 -7.5 94.5t-16.5 85.5l112 55l8 -2q8 -41 14.5 -98.5t6.5 -97.5q0 -115 -59 -214zM325 205
q-42 -45 -95 -80h22q44 0 68 4.5t36 15.5q0 24 -31 60zM201.5 726.5q13.5 -9.5 20 -24t6.5 -29.5q0 -73 -101 -73q-41 0 -67 5.5t-44 15.5q-25 -20 -63 -20l10 44q14 0 21 2.5t13 8.5q9 14 17 47l49 6l3 -2q-15 -38 -23 -53q6 -2 20 -4q35 45 59 65.5t47 20.5
q19 0 32.5 -9.5zM189 663q0 11 -6 18.5t-16 7.5q-12 0 -25.5 -10.5t-32.5 -32.5h18q21 0 38.5 2t22.5 5q1 4 1 10z" />
    <glyph glyph-name="uniFEE0_uniFB51.rlig" unicode="&#xfee0;&#xfb51;" horiz-adv-x="596" 
d="M654.5 115q9.5 -10 9.5 -30q0 -40 -16 -62.5t-51 -22.5q-75 0 -121 27t-65 85q-105 -115 -291 -115l-58 120l4 6q68 3 124 11.5t102 28.5q-37 60 -86.5 116.5t-132.5 132.5l38 132l7 3q86 -82 155 -172.5t103 -155.5q16 20 23 30v413l115 31l10 -6v-474q0 -34 10 -53
t31 -27t59 -8q21 0 30.5 -10zM243.5 728.5q13.5 -9.5 20 -24t6.5 -29.5q0 -73 -101 -73q-41 0 -67 5.5t-44 15.5q-25 -20 -63 -20l10 44q14 0 21 2.5t13 8.5q9 14 17 47l49 6l3 -2q-15 -38 -23 -53q6 -2 20 -4q35 45 59 65.5t47 20.5q19 0 32.5 -9.5zM231 665q0 11 -6 18.5
t-16 7.5q-12 0 -25.5 -10.5t-32.5 -32.5h18q21 0 38.5 2t22.5 5q1 4 1 10z" />
    <glyph glyph-name="uniFE91_uniFEF0.rlig" unicode="&#xfe91;&#xfef0;" horiz-adv-x="775" 
d="M683.5 -85.5q-53.5 -48.5 -143.5 -74.5t-200 -26q-100 0 -168 27.5t-101.5 75t-33.5 108.5q0 48 17 114l103 35l11 -6q-5 -27 -8 -48t-3 -38q0 -46 18.5 -77.5t63.5 -48.5t122 -17q92 0 168.5 15.5t99.5 42.5q0 19 -35 39t-129 40l35 107q57 18 76 32q-5 34 -18.5 67
t-37.5 80l100 81h14q27 -65 41 -110t14 -77q0 -38 -12.5 -64.5t-42.5 -48.5q58 -24 81.5 -52t23.5 -63q-2 -65 -55.5 -113.5zM742 -255l-66 -100l-107 75l67 98z" />
    <glyph glyph-name="uniFE91_uniFEF2.rlig" unicode="&#xfe91;&#xfef2;" horiz-adv-x="775" 
d="M683.5 -85.5q-53.5 -48.5 -143.5 -74.5t-200 -26q-100 0 -168 27.5t-101.5 75t-33.5 108.5q0 48 17 114l103 35l11 -6q-5 -27 -8 -48t-3 -38q0 -46 18.5 -77.5t63.5 -48.5t122 -17q92 0 168.5 15.5t99.5 42.5q0 19 -35 39t-129 40l35 107q57 18 76 32q-5 34 -18.5 67
t-37.5 80l100 81h14q27 -65 41 -110t14 -77q0 -38 -12.5 -64.5t-42.5 -48.5q58 -24 81.5 -52t23.5 -63q-2 -65 -55.5 -113.5zM742 -255l-66 -100l-107 75l67 98zM397 -259l102 -70l-64 -96l-97 69l-46 -69l-102 72l63 94l99 -68z" />
    <glyph glyph-name="uniFE91_uniFE8A.rlig" unicode="&#xfe91;&#xfe8a;" horiz-adv-x="775" 
d="M82 331q30 0 46 1q-10 14 -16 30.5t-6 32.5q0 39 23.5 62.5t65.5 23.5q32 0 74 -16l-17 -65q-24 8 -43 8q-16 0 -25 -8.5t-9 -23.5q0 -23 20 -41q58 4 84 7l5 -69q-78 -10 -195 -14zM683.5 -85.5q-53.5 -48.5 -143.5 -74.5t-200 -26q-100 0 -168 27.5t-101.5 75
t-33.5 108.5q0 48 17 114l103 35l11 -6q-5 -27 -8 -48t-3 -38q0 -46 18.5 -77.5t63.5 -48.5t122 -17q92 0 168.5 15.5t99.5 42.5q0 19 -35 39t-129 40l35 107q57 18 76 32q-5 34 -18.5 67t-37.5 80l100 81h14q27 -65 41 -110t14 -77q0 -38 -12.5 -64.5t-42.5 -48.5
q58 -24 81.5 -52t23.5 -63q-2 -65 -55.5 -113.5zM742 -255l-66 -100l-107 75l67 98z" />
    <glyph glyph-name="uniFE97_uniFEF0.rlig" unicode="&#xfe97;&#xfef0;" horiz-adv-x="775" 
d="M527 508l-103 72l64 94l97 -67l45 67l103 -70l-64 -96l-98 69zM715.5 91q23.5 -28 23.5 -63q-2 -65 -55.5 -113.5t-143.5 -74.5t-200 -26q-100 0 -168 27.5t-101.5 75t-33.5 108.5q0 48 17 114l103 35l11 -6q-5 -27 -8 -48t-3 -38q0 -46 18.5 -77.5t63.5 -48.5t122 -17
q92 0 168.5 15.5t99.5 42.5q0 19 -35 39t-129 40l35 107q57 18 76 32q-5 34 -18.5 67t-37.5 80l100 81h14q27 -65 41 -110t14 -77q0 -38 -12.5 -64.5t-42.5 -48.5q58 -24 81.5 -52z" />
    <glyph glyph-name="uniFE97_uniFEF2.rlig" unicode="&#xfe97;&#xfef2;" horiz-adv-x="775" 
d="M527 508l-103 72l64 94l97 -67l45 67l103 -70l-64 -96l-98 69zM715.5 91q23.5 -28 23.5 -63q-2 -65 -55.5 -113.5t-143.5 -74.5t-200 -26q-100 0 -168 27.5t-101.5 75t-33.5 108.5q0 48 17 114l103 35l11 -6q-5 -27 -8 -48t-3 -38q0 -46 18.5 -77.5t63.5 -48.5t122 -17
q92 0 168.5 15.5t99.5 42.5q0 19 -35 39t-129 40l35 107q57 18 76 32q-5 34 -18.5 67t-37.5 80l100 81h14q27 -65 41 -110t14 -77q0 -38 -12.5 -64.5t-42.5 -48.5q58 -24 81.5 -52zM397 -259l102 -70l-64 -96l-97 69l-46 -69l-102 72l63 94l99 -68z" />
    <glyph glyph-name="uniFE97_uniFE8A.rlig" unicode="&#xfe97;&#xfe8a;" horiz-adv-x="775" 
d="M527 508l-103 72l64 94l97 -67l45 67l103 -70l-64 -96l-98 69zM82 331q30 0 46 1q-10 14 -16 30.5t-6 32.5q0 39 23.5 62.5t65.5 23.5q32 0 74 -16l-17 -65q-24 8 -43 8q-16 0 -25 -8.5t-9 -23.5q0 -23 20 -41q58 4 84 7l5 -69q-78 -10 -195 -14zM715.5 91
q23.5 -28 23.5 -63q-2 -65 -55.5 -113.5t-143.5 -74.5t-200 -26q-100 0 -168 27.5t-101.5 75t-33.5 108.5q0 48 17 114l103 35l11 -6q-5 -27 -8 -48t-3 -38q0 -46 18.5 -77.5t63.5 -48.5t122 -17q92 0 168.5 15.5t99.5 42.5q0 19 -35 39t-129 40l35 107q57 18 76 32
q-5 34 -18.5 67t-37.5 80l100 81h14q27 -65 41 -110t14 -77q0 -38 -12.5 -64.5t-42.5 -48.5q58 -24 81.5 -52z" />
    <glyph glyph-name="uniFE9B_uniFEF0.rlig" unicode="&#xfe9b;&#xfef0;" horiz-adv-x="775" 
d="M592 651l-103 72l64 93l102 -69zM539 508l-102 72l64 94l97 -67l46 67l102 -70l-64 -96l-98 69zM715.5 91q23.5 -28 23.5 -63q-2 -65 -55.5 -113.5t-143.5 -74.5t-200 -26q-100 0 -168 27.5t-101.5 75t-33.5 108.5q0 48 17 114l103 35l11 -6q-5 -27 -8 -48t-3 -38
q0 -46 18.5 -77.5t63.5 -48.5t122 -17q92 0 168.5 15.5t99.5 42.5q0 19 -35 39t-129 40l35 107q57 18 76 32q-5 34 -18.5 67t-37.5 80l100 81h14q27 -65 41 -110t14 -77q0 -38 -12.5 -64.5t-42.5 -48.5q58 -24 81.5 -52z" />
    <glyph glyph-name="uniFE9B_uniFEF2.rlig" unicode="&#xfe9b;&#xfef2;" horiz-adv-x="775" 
d="M592 651l-103 72l64 93l102 -69zM539 508l-102 72l64 94l97 -67l46 67l102 -70l-64 -96l-98 69zM715.5 91q23.5 -28 23.5 -63q-2 -65 -55.5 -113.5t-143.5 -74.5t-200 -26q-100 0 -168 27.5t-101.5 75t-33.5 108.5q0 48 17 114l103 35l11 -6q-5 -27 -8 -48t-3 -38
q0 -46 18.5 -77.5t63.5 -48.5t122 -17q92 0 168.5 15.5t99.5 42.5q0 19 -35 39t-129 40l35 107q57 18 76 32q-5 34 -18.5 67t-37.5 80l100 81h14q27 -65 41 -110t14 -77q0 -38 -12.5 -64.5t-42.5 -48.5q58 -24 81.5 -52zM397 -259l102 -70l-64 -96l-97 69l-46 -69l-102 72
l63 94l99 -68z" />
    <glyph glyph-name="uniFE9B_uniFE8A.rlig" unicode="&#xfe9b;&#xfe8a;" horiz-adv-x="775" 
d="M592 651l-103 72l64 93l102 -69zM539 508l-102 72l64 94l97 -67l46 67l102 -70l-64 -96l-98 69zM82 331q30 0 46 1q-10 14 -16 30.5t-6 32.5q0 39 23.5 62.5t65.5 23.5q32 0 74 -16l-17 -65q-24 8 -43 8q-16 0 -25 -8.5t-9 -23.5q0 -23 20 -41q58 4 84 7l5 -69
q-78 -10 -195 -14zM715.5 91q23.5 -28 23.5 -63q-2 -65 -55.5 -113.5t-143.5 -74.5t-200 -26q-100 0 -168 27.5t-101.5 75t-33.5 108.5q0 48 17 114l103 35l11 -6q-5 -27 -8 -48t-3 -38q0 -46 18.5 -77.5t63.5 -48.5t122 -17q92 0 168.5 15.5t99.5 42.5q0 19 -35 39t-129 40
l35 107q57 18 76 32q-5 34 -18.5 67t-37.5 80l100 81h14q27 -65 41 -110t14 -77q0 -38 -12.5 -64.5t-42.5 -48.5q58 -24 81.5 -52z" />
    <glyph glyph-name="uniFED3_uniFEF0.rlig" unicode="&#xfed3;&#xfef0;" horiz-adv-x="803" 
d="M576 650l-107 76l67 98l106 -74zM722 83q17 -25 17 -55q-2 -65 -55.5 -113.5t-143.5 -74.5t-200 -26q-100 0 -168 27.5t-101.5 75t-33.5 108.5q0 48 17 114l103 35l11 -6q-5 -27 -8 -48t-3 -38q0 -46 18.5 -77.5t63.5 -48.5t122 -17q92 0 168.5 15.5t99.5 42.5
q0 19 -35 39t-129 40l35 107v1q39 8 75 21t55 25q1 3 3 12.5t3 17.5q-43 -8 -92 -8q-68 0 -102.5 32t-34.5 87q0 47 22.5 95t60.5 79.5t82 31.5q51 0 89.5 -35t59.5 -94t21 -130q0 -72 -18 -116t-60 -73q41 -21 58 -46zM518.5 366.5q15.5 -7.5 49.5 -7.5q33 0 71 5
q-7 39 -27.5 67t-47.5 28q-16 0 -30 -10.5t-22.5 -26.5t-8.5 -32t15.5 -23.5z" />
    <glyph glyph-name="uniFED3_uniFEF2.rlig" unicode="&#xfed3;&#xfef2;" horiz-adv-x="803" 
d="M576 650l-107 76l67 98l106 -74zM722 83q17 -25 17 -55q-2 -65 -55.5 -113.5t-143.5 -74.5t-200 -26q-100 0 -168 27.5t-101.5 75t-33.5 108.5q0 48 17 114l103 35l11 -6q-5 -27 -8 -48t-3 -38q0 -46 18.5 -77.5t63.5 -48.5t122 -17q92 0 168.5 15.5t99.5 42.5
q0 19 -35 39t-129 40l35 107v1q39 8 75 21t55 25q1 3 3 12.5t3 17.5q-43 -8 -92 -8q-68 0 -102.5 32t-34.5 87q0 47 22.5 95t60.5 79.5t82 31.5q51 0 89.5 -35t59.5 -94t21 -130q0 -72 -18 -116t-60 -73q41 -21 58 -46zM518.5 366.5q15.5 -7.5 49.5 -7.5q33 0 71 5
q-7 39 -27.5 67t-47.5 28q-16 0 -30 -10.5t-22.5 -26.5t-8.5 -32t15.5 -23.5zM397 -259l102 -70l-64 -96l-97 69l-46 -69l-102 72l63 94l99 -68z" />
    <glyph glyph-name="uniFED3_uniFE8A.rlig" unicode="&#xfed3;&#xfe8a;" horiz-adv-x="803" 
d="M576 650l-107 76l67 98l106 -74zM722 83q17 -25 17 -55q-2 -65 -55.5 -113.5t-143.5 -74.5t-200 -26q-100 0 -168 27.5t-101.5 75t-33.5 108.5q0 48 17 114l103 35l11 -6q-5 -27 -8 -48t-3 -38q0 -46 18.5 -77.5t63.5 -48.5t122 -17q92 0 168.5 15.5t99.5 42.5
q0 19 -35 39t-129 40l35 107v1q39 8 75 21t55 25q1 3 3 12.5t3 17.5q-43 -8 -92 -8q-68 0 -102.5 32t-34.5 87q0 47 22.5 95t60.5 79.5t82 31.5q51 0 89.5 -35t59.5 -94t21 -130q0 -72 -18 -116t-60 -73q41 -21 58 -46zM82 331q30 0 46 1q-10 14 -16 30.5t-6 32.5
q0 39 23.5 62.5t65.5 23.5q32 0 74 -16l-17 -65q-24 8 -43 8q-16 0 -25 -8.5t-9 -23.5q0 -23 20 -41q58 4 84 7l5 -69q-78 -10 -195 -14zM518.5 366.5q15.5 -7.5 49.5 -7.5q33 0 71 5q-7 39 -27.5 67t-47.5 28q-16 0 -30 -10.5t-22.5 -26.5t-8.5 -32t15.5 -23.5z" />
    <glyph glyph-name="uniFB6C_uniFEF0.rlig" unicode="&#xfb6c;&#xfef0;" horiz-adv-x="803" 
d="M568 797l-103 72l64 93l102 -69zM515 654l-102 72l64 94l97 -67l46 67l102 -70l-64 -96l-98 69zM722 83q17 -25 17 -55q-2 -65 -55.5 -113.5t-143.5 -74.5t-200 -26q-100 0 -168 27.5t-101.5 75t-33.5 108.5q0 48 17 114l103 35l11 -6q-5 -27 -8 -48t-3 -38
q0 -46 18.5 -77.5t63.5 -48.5t122 -17q92 0 168.5 15.5t99.5 42.5q0 19 -35 39t-129 40l35 107v1q39 8 75 21t55 25q1 3 3 12.5t3 17.5q-43 -8 -92 -8q-68 0 -102.5 32t-34.5 87q0 47 22.5 95t60.5 79.5t82 31.5q51 0 89.5 -35t59.5 -94t21 -130q0 -72 -18 -116t-60 -73
q41 -21 58 -46zM518.5 366.5q15.5 -7.5 49.5 -7.5q33 0 71 5q-7 39 -27.5 67t-47.5 28q-16 0 -30 -10.5t-22.5 -26.5t-8.5 -32t15.5 -23.5z" />
    <glyph glyph-name="uniFB6C_uniFEF2.rlig" unicode="&#xfb6c;&#xfef2;" horiz-adv-x="803" 
d="M568 797l-103 72l64 93l102 -69zM515 654l-102 72l64 94l97 -67l46 67l102 -70l-64 -96l-98 69zM722 83q17 -25 17 -55q-2 -65 -55.5 -113.5t-143.5 -74.5t-200 -26q-100 0 -168 27.5t-101.5 75t-33.5 108.5q0 48 17 114l103 35l11 -6q-5 -27 -8 -48t-3 -38
q0 -46 18.5 -77.5t63.5 -48.5t122 -17q92 0 168.5 15.5t99.5 42.5q0 19 -35 39t-129 40l35 107v1q39 8 75 21t55 25q1 3 3 12.5t3 17.5q-43 -8 -92 -8q-68 0 -102.5 32t-34.5 87q0 47 22.5 95t60.5 79.5t82 31.5q51 0 89.5 -35t59.5 -94t21 -130q0 -72 -18 -116t-60 -73
q41 -21 58 -46zM518.5 366.5q15.5 -7.5 49.5 -7.5q33 0 71 5q-7 39 -27.5 67t-47.5 28q-16 0 -30 -10.5t-22.5 -26.5t-8.5 -32t15.5 -23.5zM397 -259l102 -70l-64 -96l-97 69l-46 -69l-102 72l63 94l99 -68z" />
    <glyph glyph-name="uniFB6C_uniFE8A.rlig" unicode="&#xfb6c;&#xfe8a;" horiz-adv-x="803" 
d="M568 797l-103 72l64 93l102 -69zM515 654l-102 72l64 94l97 -67l46 67l102 -70l-64 -96l-98 69zM722 83q17 -25 17 -55q-2 -65 -55.5 -113.5t-143.5 -74.5t-200 -26q-100 0 -168 27.5t-101.5 75t-33.5 108.5q0 48 17 114l103 35l11 -6q-5 -27 -8 -48t-3 -38
q0 -46 18.5 -77.5t63.5 -48.5t122 -17q92 0 168.5 15.5t99.5 42.5q0 19 -35 39t-129 40l35 107v1q39 8 75 21t55 25q1 3 3 12.5t3 17.5q-43 -8 -92 -8q-68 0 -102.5 32t-34.5 87q0 47 22.5 95t60.5 79.5t82 31.5q51 0 89.5 -35t59.5 -94t21 -130q0 -72 -18 -116t-60 -73
q41 -21 58 -46zM82 331q30 0 46 1q-10 14 -16 30.5t-6 32.5q0 39 23.5 62.5t65.5 23.5q32 0 74 -16l-17 -65q-24 8 -43 8q-16 0 -25 -8.5t-9 -23.5q0 -23 20 -41q58 4 84 7l5 -69q-78 -10 -195 -14zM518.5 366.5q15.5 -7.5 49.5 -7.5q33 0 71 5q-7 39 -27.5 67t-47.5 28
q-16 0 -30 -10.5t-22.5 -26.5t-8.5 -32t15.5 -23.5z" />
    <glyph glyph-name="uniFED7_uniFEF0.rlig" unicode="&#xfed7;&#xfef0;" horiz-adv-x="803" 
d="M503 654l-103 72l64 94l97 -67l45 67l103 -70l-64 -96l-98 69zM722 83q17 -25 17 -55q-2 -65 -55.5 -113.5t-143.5 -74.5t-200 -26q-100 0 -168 27.5t-101.5 75t-33.5 108.5q0 48 17 114l103 35l11 -6q-5 -27 -8 -48t-3 -38q0 -46 18.5 -77.5t63.5 -48.5t122 -17
q92 0 168.5 15.5t99.5 42.5q0 19 -35 39t-129 40l35 107v1q39 8 75 21t55 25q1 3 3 12.5t3 17.5q-43 -8 -92 -8q-68 0 -102.5 32t-34.5 87q0 47 22.5 95t60.5 79.5t82 31.5q51 0 89.5 -35t59.5 -94t21 -130q0 -72 -18 -116t-60 -73q41 -21 58 -46zM518.5 366.5
q15.5 -7.5 49.5 -7.5q33 0 71 5q-7 39 -27.5 67t-47.5 28q-16 0 -30 -10.5t-22.5 -26.5t-8.5 -32t15.5 -23.5z" />
    <glyph glyph-name="uniFED7_uniFEF2.rlig" unicode="&#xfed7;&#xfef2;" horiz-adv-x="803" 
d="M503 654l-103 72l64 94l97 -67l45 67l103 -70l-64 -96l-98 69zM722 83q17 -25 17 -55q-2 -65 -55.5 -113.5t-143.5 -74.5t-200 -26q-100 0 -168 27.5t-101.5 75t-33.5 108.5q0 48 17 114l103 35l11 -6q-5 -27 -8 -48t-3 -38q0 -46 18.5 -77.5t63.5 -48.5t122 -17
q92 0 168.5 15.5t99.5 42.5q0 19 -35 39t-129 40l35 107v1q39 8 75 21t55 25q1 3 3 12.5t3 17.5q-43 -8 -92 -8q-68 0 -102.5 32t-34.5 87q0 47 22.5 95t60.5 79.5t82 31.5q51 0 89.5 -35t59.5 -94t21 -130q0 -72 -18 -116t-60 -73q41 -21 58 -46zM518.5 366.5
q15.5 -7.5 49.5 -7.5q33 0 71 5q-7 39 -27.5 67t-47.5 28q-16 0 -30 -10.5t-22.5 -26.5t-8.5 -32t15.5 -23.5zM397 -259l102 -70l-64 -96l-97 69l-46 -69l-102 72l63 94l99 -68z" />
    <glyph glyph-name="uniFED7_uniFE8A.rlig" unicode="&#xfed7;&#xfe8a;" horiz-adv-x="803" 
d="M503 654l-103 72l64 94l97 -67l45 67l103 -70l-64 -96l-98 69zM722 83q17 -25 17 -55q-2 -65 -55.5 -113.5t-143.5 -74.5t-200 -26q-100 0 -168 27.5t-101.5 75t-33.5 108.5q0 48 17 114l103 35l11 -6q-5 -27 -8 -48t-3 -38q0 -46 18.5 -77.5t63.5 -48.5t122 -17
q92 0 168.5 15.5t99.5 42.5q0 19 -35 39t-129 40l35 107v1q39 8 75 21t55 25q1 3 3 12.5t3 17.5q-43 -8 -92 -8q-68 0 -102.5 32t-34.5 87q0 47 22.5 95t60.5 79.5t82 31.5q51 0 89.5 -35t59.5 -94t21 -130q0 -72 -18 -116t-60 -73q41 -21 58 -46zM82 331q30 0 46 1
q-10 14 -16 30.5t-6 32.5q0 39 23.5 62.5t65.5 23.5q32 0 74 -16l-17 -65q-24 8 -43 8q-16 0 -25 -8.5t-9 -23.5q0 -23 20 -41q58 4 84 7l5 -69q-78 -10 -195 -14zM518.5 366.5q15.5 -7.5 49.5 -7.5q33 0 71 5q-7 39 -27.5 67t-47.5 28q-16 0 -30 -10.5t-22.5 -26.5
t-8.5 -32t15.5 -23.5z" />
    <glyph glyph-name="uniFEDF_uniFEF0.rlig" unicode="&#xfedf;&#xfef0;" horiz-adv-x="814" 
d="M736 191.5q-17 -40.5 -60 -69.5q34 -20 48.5 -43t14.5 -51q-2 -65 -55.5 -113.5t-143.5 -74.5t-200 -26q-100 0 -168 27.5t-101.5 75t-33.5 108.5q0 48 17 114l103 35l11 -6q-5 -27 -8 -48t-3 -38q0 -46 18.5 -77.5t63.5 -48.5t122 -17q92 0 168.5 15.5t99.5 42.5
q0 19 -35 39t-129 40l35 107q47 9 73.5 16t48.5 20q6 29 6 88v383l115 30l10 -6v-423q0 -59 -17 -99.5z" />
    <glyph glyph-name="uniFEDF_uniFEF2.rlig" unicode="&#xfedf;&#xfef2;" horiz-adv-x="814" 
d="M736 191.5q-17 -40.5 -60 -69.5q34 -20 48.5 -43t14.5 -51q-2 -65 -55.5 -113.5t-143.5 -74.5t-200 -26q-100 0 -168 27.5t-101.5 75t-33.5 108.5q0 48 17 114l103 35l11 -6q-5 -27 -8 -48t-3 -38q0 -46 18.5 -77.5t63.5 -48.5t122 -17q92 0 168.5 15.5t99.5 42.5
q0 19 -35 39t-129 40l35 107q47 9 73.5 16t48.5 20q6 29 6 88v383l115 30l10 -6v-423q0 -59 -17 -99.5zM397 -259l102 -70l-64 -96l-97 69l-46 -69l-102 72l63 94l99 -68z" />
    <glyph glyph-name="uniFEDF_uniFE8A.rlig" unicode="&#xfedf;&#xfe8a;" horiz-adv-x="814" 
d="M736 191.5q-17 -40.5 -60 -69.5q34 -20 48.5 -43t14.5 -51q-2 -65 -55.5 -113.5t-143.5 -74.5t-200 -26q-100 0 -168 27.5t-101.5 75t-33.5 108.5q0 48 17 114l103 35l11 -6q-5 -27 -8 -48t-3 -38q0 -46 18.5 -77.5t63.5 -48.5t122 -17q92 0 168.5 15.5t99.5 42.5
q0 19 -35 39t-129 40l35 107q47 9 73.5 16t48.5 20q6 29 6 88v383l115 30l10 -6v-423q0 -59 -17 -99.5zM82 331q30 0 46 1q-10 14 -16 30.5t-6 32.5q0 39 23.5 62.5t65.5 23.5q32 0 74 -16l-17 -65q-24 8 -43 8q-16 0 -25 -8.5t-9 -23.5q0 -23 20 -41q58 4 84 7l5 -69
q-78 -10 -195 -14z" />
    <glyph glyph-name="uniFEE7_uniFEF0.rlig" unicode="&#xfee7;&#xfef0;" horiz-adv-x="775" 
d="M600 504l-107 76l67 98l106 -74zM715.5 91q23.5 -28 23.5 -63q-2 -65 -55.5 -113.5t-143.5 -74.5t-200 -26q-100 0 -168 27.5t-101.5 75t-33.5 108.5q0 48 17 114l103 35l11 -6q-5 -27 -8 -48t-3 -38q0 -46 18.5 -77.5t63.5 -48.5t122 -17q92 0 168.5 15.5t99.5 42.5
q0 19 -35 39t-129 40l35 107q57 18 76 32q-5 34 -18.5 67t-37.5 80l100 81h14q27 -65 41 -110t14 -77q0 -38 -12.5 -64.5t-42.5 -48.5q58 -24 81.5 -52z" />
    <glyph glyph-name="uniFEE7_uniFEF2.rlig" unicode="&#xfee7;&#xfef2;" horiz-adv-x="775" 
d="M600 504l-107 76l67 98l106 -74zM715.5 91q23.5 -28 23.5 -63q-2 -65 -55.5 -113.5t-143.5 -74.5t-200 -26q-100 0 -168 27.5t-101.5 75t-33.5 108.5q0 48 17 114l103 35l11 -6q-5 -27 -8 -48t-3 -38q0 -46 18.5 -77.5t63.5 -48.5t122 -17q92 0 168.5 15.5t99.5 42.5
q0 19 -35 39t-129 40l35 107q57 18 76 32q-5 34 -18.5 67t-37.5 80l100 81h14q27 -65 41 -110t14 -77q0 -38 -12.5 -64.5t-42.5 -48.5q58 -24 81.5 -52zM397 -259l102 -70l-64 -96l-97 69l-46 -69l-102 72l63 94l99 -68z" />
    <glyph glyph-name="uniFEE7_uniFE8A.rlig" unicode="&#xfee7;&#xfe8a;" horiz-adv-x="775" 
d="M600 504l-107 76l67 98l106 -74zM82 331q30 0 46 1q-10 14 -16 30.5t-6 32.5q0 39 23.5 62.5t65.5 23.5q32 0 74 -16l-17 -65q-24 8 -43 8q-16 0 -25 -8.5t-9 -23.5q0 -23 20 -41q58 4 84 7l5 -69q-78 -10 -195 -14zM715.5 91q23.5 -28 23.5 -63q-2 -65 -55.5 -113.5
t-143.5 -74.5t-200 -26q-100 0 -168 27.5t-101.5 75t-33.5 108.5q0 48 17 114l103 35l11 -6q-5 -27 -8 -48t-3 -38q0 -46 18.5 -77.5t63.5 -48.5t122 -17q92 0 168.5 15.5t99.5 42.5q0 19 -35 39t-129 40l35 107q57 18 76 32q-5 34 -18.5 67t-37.5 80l100 81h14
q27 -65 41 -110t14 -77q0 -38 -12.5 -64.5t-42.5 -48.5q58 -24 81.5 -52z" />
    <glyph glyph-name="uniFEF3_uniFEF0.rlig" unicode="&#xfef3;&#xfef0;" horiz-adv-x="775" 
d="M683.5 -85.5q-53.5 -48.5 -143.5 -74.5t-200 -26q-100 0 -168 27.5t-101.5 75t-33.5 108.5q0 48 17 114l103 35l11 -6q-5 -27 -8 -48t-3 -38q0 -46 18.5 -77.5t63.5 -48.5t122 -17q92 0 168.5 15.5t99.5 42.5q0 19 -35 39t-129 40l35 107q57 18 76 32q-5 34 -18.5 67
t-37.5 80l100 81h14q27 -65 41 -110t14 -77q0 -38 -12.5 -64.5t-42.5 -48.5q58 -24 81.5 -52t23.5 -63q-2 -65 -55.5 -113.5zM747 -348l-97 69l-46 -69l-102 72l63 94l99 -68l45 68l102 -70z" />
    <glyph glyph-name="uniFEF3_uniFEF2.rlig" unicode="&#xfef3;&#xfef2;" horiz-adv-x="775" 
d="M683.5 -85.5q-53.5 -48.5 -143.5 -74.5t-200 -26q-100 0 -168 27.5t-101.5 75t-33.5 108.5q0 48 17 114l103 35l11 -6q-5 -27 -8 -48t-3 -38q0 -46 18.5 -77.5t63.5 -48.5t122 -17q92 0 168.5 15.5t99.5 42.5q0 19 -35 39t-129 40l35 107q57 18 76 32q-5 34 -18.5 67
t-37.5 80l100 81h14q27 -65 41 -110t14 -77q0 -38 -12.5 -64.5t-42.5 -48.5q58 -24 81.5 -52t23.5 -63q-2 -65 -55.5 -113.5zM747 -348l-97 69l-46 -69l-102 72l63 94l99 -68l45 68l102 -70zM397 -259l102 -70l-64 -96l-97 69l-46 -69l-102 72l63 94l99 -68z" />
    <glyph glyph-name="uniFEF3_uniFE8A.rlig" unicode="&#xfef3;&#xfe8a;" horiz-adv-x="775" 
d="M82 331q30 0 46 1q-10 14 -16 30.5t-6 32.5q0 39 23.5 62.5t65.5 23.5q32 0 74 -16l-17 -65q-24 8 -43 8q-16 0 -25 -8.5t-9 -23.5q0 -23 20 -41q58 4 84 7l5 -69q-78 -10 -195 -14zM683.5 -85.5q-53.5 -48.5 -143.5 -74.5t-200 -26q-100 0 -168 27.5t-101.5 75
t-33.5 108.5q0 48 17 114l103 35l11 -6q-5 -27 -8 -48t-3 -38q0 -46 18.5 -77.5t63.5 -48.5t122 -17q92 0 168.5 15.5t99.5 42.5q0 19 -35 39t-129 40l35 107q57 18 76 32q-5 34 -18.5 67t-37.5 80l100 81h14q27 -65 41 -110t14 -77q0 -38 -12.5 -64.5t-42.5 -48.5
q58 -24 81.5 -52t23.5 -63q-2 -65 -55.5 -113.5zM747 -348l-97 69l-46 -69l-102 72l63 94l99 -68l45 68l102 -70z" />
    <glyph glyph-name="uniFE8B_uniFEF0.rlig" unicode="&#xfe8b;&#xfef0;" horiz-adv-x="775" 
d="M480 605q30 0 46 1q-10 14 -16 30.5t-6 32.5q0 39 23.5 62.5t65.5 23.5q32 0 74 -16l-17 -65q-24 8 -43 8q-16 0 -25 -8.5t-9 -23.5q0 -23 20 -41q58 4 84 7l5 -69q-78 -10 -195 -14zM715.5 91q23.5 -28 23.5 -63q-2 -65 -55.5 -113.5t-143.5 -74.5t-200 -26
q-100 0 -168 27.5t-101.5 75t-33.5 108.5q0 48 17 114l103 35l11 -6q-5 -27 -8 -48t-3 -38q0 -46 18.5 -77.5t63.5 -48.5t122 -17q92 0 168.5 15.5t99.5 42.5q0 19 -35 39t-129 40l35 107q57 18 76 32q-5 34 -18.5 67t-37.5 80l100 81h14q27 -65 41 -110t14 -77
q0 -38 -12.5 -64.5t-42.5 -48.5q58 -24 81.5 -52z" />
    <glyph glyph-name="uniFE8B_uniFEF2.rlig" unicode="&#xfe8b;&#xfef2;" horiz-adv-x="775" 
d="M480 605q30 0 46 1q-10 14 -16 30.5t-6 32.5q0 39 23.5 62.5t65.5 23.5q32 0 74 -16l-17 -65q-24 8 -43 8q-16 0 -25 -8.5t-9 -23.5q0 -23 20 -41q58 4 84 7l5 -69q-78 -10 -195 -14zM715.5 91q23.5 -28 23.5 -63q-2 -65 -55.5 -113.5t-143.5 -74.5t-200 -26
q-100 0 -168 27.5t-101.5 75t-33.5 108.5q0 48 17 114l103 35l11 -6q-5 -27 -8 -48t-3 -38q0 -46 18.5 -77.5t63.5 -48.5t122 -17q92 0 168.5 15.5t99.5 42.5q0 19 -35 39t-129 40l35 107q57 18 76 32q-5 34 -18.5 67t-37.5 80l100 81h14q27 -65 41 -110t14 -77
q0 -38 -12.5 -64.5t-42.5 -48.5q58 -24 81.5 -52zM397 -259l102 -70l-64 -96l-97 69l-46 -69l-102 72l63 94l99 -68z" />
    <glyph glyph-name="uniFE8B_uniFE8A.rlig" unicode="&#xfe8b;&#xfe8a;" horiz-adv-x="775" 
d="M480 605q30 0 46 1q-10 14 -16 30.5t-6 32.5q0 39 23.5 62.5t65.5 23.5q32 0 74 -16l-17 -65q-24 8 -43 8q-16 0 -25 -8.5t-9 -23.5q0 -23 20 -41q58 4 84 7l5 -69q-78 -10 -195 -14zM82 331q30 0 46 1q-10 14 -16 30.5t-6 32.5q0 39 23.5 62.5t65.5 23.5q32 0 74 -16
l-17 -65q-24 8 -43 8q-16 0 -25 -8.5t-9 -23.5q0 -23 20 -41q58 4 84 7l5 -69q-78 -10 -195 -14zM715.5 91q23.5 -28 23.5 -63q-2 -65 -55.5 -113.5t-143.5 -74.5t-200 -26q-100 0 -168 27.5t-101.5 75t-33.5 108.5q0 48 17 114l103 35l11 -6q-5 -27 -8 -48t-3 -38
q0 -46 18.5 -77.5t63.5 -48.5t122 -17q92 0 168.5 15.5t99.5 42.5q0 19 -35 39t-129 40l35 107q57 18 76 32q-5 34 -18.5 67t-37.5 80l100 81h14q27 -65 41 -110t14 -77q0 -38 -12.5 -64.5t-42.5 -48.5q58 -24 81.5 -52z" />
    <glyph glyph-name="uni066E.init" unicode="&#x66e;" horiz-adv-x="296" 
d="M27 125h10q31 0 58.5 2t37.5 6q1 3 1 11q0 27 -15.5 66t-42.5 94l101 80h10q25 -52 40.5 -110.5t15.5 -94.5q0 -39 -13.5 -73t-39.5 -61q-25 -24 -64.5 -34.5t-113.5 -10.5h-12z" />
    <glyph glyph-name="uni066E.medi" unicode="&#x66e;" horiz-adv-x="335" 
d="M392.5 114q9.5 -11 9.5 -29q0 -39 -15.5 -62t-51.5 -23q-40 0 -83.5 13t-72.5 35q-59 -48 -160 -48h-19l27 125h18q60 0 79 13q16 39 34 140l129 30l10 -7q-12 -52 -23 -89.5t-25 -67.5q48 -19 113 -19q21 0 30.5 -11z" />
    <glyph glyph-name="uni066E.fina" unicode="&#x66e;" horiz-adv-x="882" 
d="M939.5 114q9.5 -11 9.5 -29q0 -39 -15.5 -62t-51.5 -23q-39 0 -82 12t-72 34q-11 -11 -24 -19q-27 -17 -107.5 -28t-157.5 -11h-61q-166 0 -253.5 48t-87.5 139q0 32 4.5 61t13.5 61l89 34l10 -5q-9 -46 -9 -83q0 -51 28 -79t87 -39.5t161 -11.5h55q57 0 111 4.5t78 11.5
q24 68 39 149l129 30l10 -7q-21 -90 -51 -156q53 -20 117 -20q21 0 30.5 -11z" />
    <glyph glyph-name="uni066F.aalt" unicode="&#x66f;" horiz-adv-x="731" 
d="M788 114q10 -11 10 -29q0 -39 -15.5 -62t-51.5 -23h-48q-27 -95 -112.5 -140.5t-230.5 -45.5q-100 0 -168 27.5t-101.5 75t-33.5 108.5q0 48 17 114l103 35l11 -6q-5 -27 -8 -48t-3 -38q0 -46 18.5 -77.5t63.5 -48.5t122 -17q85 0 141.5 13t77.5 35l3 13h-22
q-103 0 -152 37.5t-49 107.5q0 48 22 97t60.5 80.5t83.5 31.5q47 0 83.5 -30.5t58 -82.5t26.5 -116h61q23 0 33 -11zM595 125q-2 28 -12.5 53.5t-27.5 41.5t-37 16q-16 0 -30.5 -11t-23 -27.5t-8.5 -32.5q0 -20 23.5 -30t76.5 -10h39z" />
    <glyph glyph-name="uni06A1.init" unicode="&#x6a1;" horiz-adv-x="459" 
d="M325.5 462q38.5 -35 59.5 -94.5t21 -130.5q0 -40 -8.5 -79t-23 -68.5t-31.5 -42.5q-26 -20 -65.5 -30t-103 -13.5t-174.5 -3.5l27 125q133 0 187.5 4.5t80.5 13.5q1 3 3 14t3 23q-40 -9 -93 -9q-68 0 -102.5 32.5t-34.5 87.5q0 47 22.5 95t60.5 79.5t82 31.5
q51 0 89.5 -35zM182 286.5q15 -7.5 50 -7.5q33 0 71 5q-7 39 -27.5 67t-47.5 28q-16 0 -30 -10.5t-22.5 -26.5t-8.5 -32t15 -23.5z" />
    <glyph glyph-name="uni06A1.medi" unicode="&#x6a1;" horiz-adv-x="448" 
d="M506.5 114.5q8.5 -10.5 8.5 -29.5q0 -85 -66 -85h-63q-81 0 -152 31q-77 -31 -176 -31h-58l27 125h82q-32 45 -32 91q0 49 24.5 95.5t64.5 76t85 29.5q41 0 75 -26t54 -66t20 -78q0 -69 -37 -121q12 -1 38 -1h75q22 0 30.5 -10.5zM211 288.5q-15 -10.5 -25 -27t-10 -33.5
q0 -22 16.5 -41.5t47.5 -33.5q28 15 44 35t16 43q0 16 -9.5 32t-23.5 26t-27 10q-14 0 -29 -10.5z" />
    <glyph glyph-name="uni06A1.fina" unicode="&#x6a1;" horiz-adv-x="958" 
d="M1015.5 114q9.5 -11 9.5 -29q0 -39 -15.5 -62t-51.5 -23h-65q-84 0 -154 31q-110 -43 -300 -43h-61q-166 0 -253.5 48t-87.5 139q0 32 4.5 61t13.5 61l89 34l10 -5q-9 -46 -9 -83q0 -51 28 -79t87 -39.5t161 -11.5h55q73 0 142 8q-17 22 -25.5 46t-8.5 49q0 49 24.5 95.5
t64.5 76t85 29.5q41 0 75 -26t54 -66t20 -78q0 -65 -38 -121q12 -1 39 -1h77q21 0 30.5 -11zM717 288.5q-15 -10.5 -24.5 -27t-9.5 -33.5q0 -22 16 -41t46 -33q30 16 46 36.5t16 42.5q0 15 -9.5 30.5t-24 25.5t-27.5 10q-14 0 -29 -10.5z" />
    <glyph glyph-name="uni06C2.aalt" unicode="&#x6c2;" horiz-adv-x="474" 
d="M399 17q-31 17 -50 40.5t-41 59.5q-15 25 -25 38.5t-22.5 22.5t-28.5 9q-34 0 -74 -31.5t-72 -76.5h-9l-60 67q22 39 57 76.5t82.5 63.5t99.5 26q34 0 59.5 -14t42 -34.5t38.5 -53.5q18 -29 31.5 -45.5t31.5 -28t42 -11.5q21 0 30.5 -11t9.5 -29q0 -85 -67 -85
q-44 0 -75 17zM357 448q-78 -10 -195 -14l-7 72q30 0 46 1q-10 14 -16 30.5t-6 32.5q0 39 23.5 62.5t65.5 23.5q32 0 74 -16l-17 -65q-24 8 -43 8q-16 0 -25 -8.5t-9 -23.5q0 -23 20 -41q58 4 84 7z" />
    <glyph glyph-name="uni06C3.aalt" unicode="&#x6c3;" horiz-adv-x="474" 
d="M399 17q-31 17 -50 40.5t-41 59.5q-15 25 -25 38.5t-22.5 22.5t-28.5 9q-34 0 -74 -31.5t-72 -76.5h-9l-60 67q22 39 57 76.5t82.5 63.5t99.5 26q34 0 59.5 -14t42 -34.5t38.5 -53.5q18 -29 31.5 -45.5t31.5 -28t42 -11.5q21 0 30.5 -11t9.5 -29q0 -85 -67 -85
q-44 0 -75 17zM408 505l-64 -96l-98 69l-44 -69l-103 72l64 94l97 -67l45 67z" />
    <glyph glyph-name="uniFB51" unicode="&#x671;" horiz-adv-x="259" arabic-form="final" 
d="M110 49q-49 49 -49 155v458l115 31l10 -6v-474q0 -34 10 -53t31 -27t59 -8q21 0 30.5 -10t9.5 -30q0 -40 -16 -62.5t-51 -22.5q-100 0 -149 49zM227.5 871.5q13.5 -9.5 20 -24t6.5 -29.5q0 -73 -101 -73q-41 0 -67 5.5t-44 15.5q-25 -20 -63 -20l10 44q14 0 21 2.5
t13 8.5q9 14 17 47l49 6l3 -2q-15 -38 -23 -53q6 -2 20 -4q35 45 59 65.5t47 20.5q19 0 32.5 -9.5zM215 808q0 11 -6 18.5t-16 7.5q-12 0 -25.5 -10.5t-32.5 -32.5h18q21 0 38.5 2t22.5 5q1 4 1 10z" />
    <glyph glyph-name="uniFB57" unicode="&#x67e;" horiz-adv-x="882" arabic-form="final" 
d="M939.5 114q9.5 -11 9.5 -29q0 -39 -15.5 -62t-51.5 -23q-39 0 -82 12t-72 34q-11 -11 -24 -19q-27 -17 -107.5 -28t-157.5 -11h-61q-166 0 -253.5 48t-87.5 139q0 32 4.5 61t13.5 61l89 34l10 -5q-9 -46 -9 -83q0 -51 28 -79t87 -39.5t161 -11.5h55q57 0 111 4.5t78 11.5
q24 68 39 149l129 30l10 -7q-21 -90 -51 -156q53 -20 117 -20q21 0 30.5 -11zM414 -182l-46 -66l-101 70l63 96l96 -69l45 69l102 -73l-63 -93zM357 -316l63 96l102 -71l-63 -94z" />
    <glyph glyph-name="uniFB58" unicode="&#x67e;" horiz-adv-x="316" arabic-form="initial" 
d="M27 125h30q31 0 58.5 2t37.5 6q1 3 1 11q0 27 -15.5 67t-41.5 93l100 80h10q24 -52 40 -111t16 -94q0 -40 -13 -74t-40 -60q-25 -24 -64.5 -34.5t-113.5 -10.5h-32zM155 -170l-46 -66l-101 70l63 96l96 -69l45 69l102 -73l-63 -93zM98 -304l63 96l102 -71l-63 -94z" />
    <glyph glyph-name="uniFB59" unicode="&#x67e;" horiz-adv-x="360" arabic-form="medial" 
d="M427 85q0 -85 -66 -85q-57 0 -105 12t-77 35q-28 -23 -63.5 -35t-82.5 -12h-33l27 125h23q21 0 41 3.5t28 9.5q18 44 35 140l129 30l10 -7q-12 -51 -23 -88.5t-24 -67.5q53 -20 141 -20q40 0 40 -40zM183 -170l-46 -66l-101 70l63 96l96 -69l45 69l102 -73l-63 -93z
M126 -304l63 96l102 -71l-63 -94z" />
    <glyph glyph-name="uniFB67" unicode="&#x679;" horiz-adv-x="882" arabic-form="final" 
d="M939.5 114q9.5 -11 9.5 -29q0 -39 -15.5 -62t-51.5 -23q-39 0 -82 12t-72 34q-11 -11 -24 -19q-27 -17 -107.5 -28t-157.5 -11h-61q-166 0 -253.5 48t-87.5 139q0 32 4.5 61t13.5 61l89 34l10 -5q-9 -46 -9 -83q0 -51 28 -79t87 -39.5t161 -11.5h55q57 0 111 4.5t78 11.5
q24 68 39 149l129 30l10 -7q-21 -90 -51 -156q53 -20 117 -20q21 0 30.5 -11zM537 591q19 -12 31 -32.5t12 -45.5q0 -44 -32 -72.5t-111 -28.5q-62 0 -106 2l-19 65l2 6l38 -1l14 18v171h68v-96q32 26 65 26q19 0 38 -12zM519.5 519q-9.5 13 -25.5 13q-31 0 -77 -49h27
q22 0 48.5 1t33.5 4q3 18 -6.5 31z" />
    <glyph glyph-name="uniFB68" unicode="&#x679;" horiz-adv-x="316" arabic-form="initial" 
d="M27 125h30q31 0 58.5 2t37.5 6q1 3 1 11q0 27 -15.5 67t-41.5 93l100 80h10q24 -52 40 -111t16 -94q0 -40 -13 -74t-40 -60q-25 -24 -64.5 -34.5t-113.5 -10.5h-32zM242 661q19 -12 31 -32.5t12 -45.5q0 -44 -32 -72.5t-111 -28.5q-62 0 -106 2l-19 65l2 6l38 -1l14 18
v171h68v-96q32 26 65 26q19 0 38 -12zM224.5 589q-9.5 13 -25.5 13q-31 0 -77 -49h27q22 0 48.5 1t33.5 4q3 18 -6.5 31z" />
    <glyph glyph-name="uniFB69" unicode="&#x679;" horiz-adv-x="360" arabic-form="medial" 
d="M427 85q0 -85 -66 -85q-57 0 -105 12t-77 35q-28 -23 -63.5 -35t-82.5 -12h-33l27 125h23q21 0 41 3.5t28 9.5q18 44 35 140l129 30l10 -7q-12 -51 -23 -88.5t-24 -67.5q53 -20 141 -20q40 0 40 -40zM304 602q19 -12 31 -32.5t12 -45.5q0 -44 -32 -72.5t-111 -28.5
q-62 0 -106 2l-19 65l2 6l38 -1l14 18v171h68v-96q32 26 65 26q19 0 38 -12zM286.5 530q-9.5 13 -25.5 13q-31 0 -77 -49h27q22 0 48.5 1t33.5 4q3 18 -6.5 31z" />
    <glyph glyph-name="uniFB6B" unicode="&#x6a4;" horiz-adv-x="958" arabic-form="final" 
d="M1015.5 114q9.5 -11 9.5 -29q0 -39 -15.5 -62t-51.5 -23h-65q-84 0 -154 31q-110 -43 -300 -43h-61q-166 0 -253.5 48t-87.5 139q0 32 4.5 61t13.5 61l89 34l10 -5q-9 -46 -9 -83q0 -51 28 -79t87 -39.5t161 -11.5h55q73 0 142 8q-17 22 -25.5 46t-8.5 49q0 49 24.5 95.5
t64.5 76t85 29.5q41 0 75 -26t54 -66t20 -78q0 -65 -38 -121q12 -1 39 -1h77q21 0 30.5 -11zM717 288.5q-15 -10.5 -24.5 -27t-9.5 -33.5q0 -22 16 -41t46 -33q30 16 46 36.5t16 42.5q0 15 -9.5 30.5t-24 25.5t-27.5 10q-14 0 -29 -10.5zM819 740l-63 -96l-103 72l64 93z
M910 597l-64 -96l-98 69l-45 -69l-102 72l64 94l97 -67l46 67z" />
    <glyph glyph-name="uniFB6C" unicode="&#x6a4;" horiz-adv-x="459" arabic-form="initial" 
d="M325.5 462q38.5 -35 59.5 -94.5t21 -130.5q0 -40 -8.5 -79t-23 -68.5t-31.5 -42.5q-26 -20 -65.5 -30t-103 -13.5t-174.5 -3.5l27 125q133 0 187.5 4.5t80.5 13.5q1 3 3 14t3 23q-40 -9 -93 -9q-68 0 -102.5 32.5t-34.5 87.5q0 47 22.5 95t60.5 79.5t82 31.5
q51 0 89.5 -35zM182 286.5q15 -7.5 50 -7.5q33 0 71 5q-7 39 -27.5 67t-47.5 28q-16 0 -30 -10.5t-22.5 -26.5t-8.5 -32t15 -23.5zM297 812l-63 -96l-103 72l64 93zM388 669l-64 -96l-98 69l-45 -69l-102 72l64 94l97 -67l46 67z" />
    <glyph glyph-name="uniFB6D" unicode="&#x6a4;" horiz-adv-x="448" arabic-form="medial" 
d="M506.5 114.5q8.5 -10.5 8.5 -29.5q0 -85 -66 -85h-63q-81 0 -152 31q-77 -31 -176 -31h-58l27 125h82q-32 45 -32 91q0 49 24.5 95.5t64.5 76t85 29.5q41 0 75 -26t54 -66t20 -78q0 -69 -37 -121q12 -1 38 -1h75q22 0 30.5 -10.5zM211 288.5q-15 -10.5 -25 -27t-10 -33.5
q0 -22 16.5 -41.5t47.5 -33.5q28 15 44 35t16 43q0 16 -9.5 32t-23.5 26t-27 10q-14 0 -29 -10.5zM312 740l-63 -96l-103 72l64 93zM403 597l-64 -96l-98 69l-45 -69l-102 72l64 94l97 -67l46 67z" />
    <glyph glyph-name="uniFB7B" unicode="&#x686;" horiz-adv-x="689" arabic-form="final" 
d="M749 85q0 -39 -15.5 -62t-51.5 -23q-62 0 -109 14t-83 50t-60 98q-82 -25 -144.5 -67.5t-97 -96.5t-34.5 -114q0 -86 75 -130.5t212 -44.5q46 0 97.5 8.5t102.5 24.5l6 -6l-37 -104q-36 -23 -90 -35.5t-118 -12.5q-109 0 -191.5 31.5t-128 91t-45.5 142.5q0 80 44 155
t117 135t160 100q-55 16 -92.5 23t-65.5 7q-36 0 -76.5 -7t-70.5 -18l-5 5l43 107q23 14 55.5 22.5t63.5 8.5q26 0 59.5 -6.5t84.5 -22.5q82 -26 144 -36t129 -10l-30 -121q-31 -1 -61 -6q13 -22 33.5 -35t54 -19t85.5 -6q40 0 40 -40zM367 -58l-42 -62l-92 63l57 87l91 -64
l42 64l92 -65l-57 -85zM318 -185l58 88l92 -66l-57 -84z" />
    <glyph glyph-name="uniFB7C" unicode="&#x686;" horiz-adv-x="610" arabic-form="initial" 
d="M503.5 264.5q43.5 -15.5 79.5 -17.5l-32 -120q-53 -6 -121.5 -23t-145.5 -43q-103 -35 -165 -48t-119 -13l27 125q63 0 116.5 7.5t144.5 31.5q34 10 65 17.5t39 9.5q-14 6 -48 23q-57 31 -94.5 43t-70.5 12q-31 0 -57.5 -5t-57.5 -14l-5 5l44 110q18 10 42.5 16t48.5 6
q33 0 70.5 -14t115.5 -53q80 -40 123.5 -55.5zM269 -170l-46 -66l-101 70l63 96l96 -69l45 69l102 -73l-63 -93zM212 -304l63 96l102 -71l-63 -94z" />
    <glyph glyph-name="uniFB7D" unicode="&#x686;" horiz-adv-x="632" arabic-form="medial" 
d="M699 85q0 -85 -66 -85q-79 0 -128.5 12.5t-79 36t-50.5 61.5l-37 -18q-102 -51 -178 -71.5t-160 -20.5l27 125q75 0 131.5 11t142.5 42q33 12 79 27l-34 15q-59 27 -96.5 38t-70.5 11q-31 0 -57.5 -5t-57.5 -14l-5 4l44 111q18 10 42.5 16t48.5 6q27 0 62 -10.5t92 -37.5
q77 -35 131 -49.5t107 -15.5l-21 -112q-45 -2 -85 -13q23 -14 63.5 -19t116.5 -5q39 0 39 -40zM262 -170l-46 -66l-101 70l63 96l96 -69l45 69l102 -73l-63 -93zM205 -304l63 96l102 -71l-63 -94z" />
    <glyph glyph-name="uniFB89" unicode="&#x688;" horiz-adv-x="484" arabic-form="final" 
d="M541.5 114q9.5 -11 9.5 -29q0 -39 -16 -62t-52 -23q-50 0 -81.5 10.5t-51.5 36.5q-36 -27 -89.5 -41.5t-117.5 -14.5q-24 0 -58 3t-58 8l18 121l7 4q22 -4 51.5 -6t50.5 -2q39 0 78 5.5t66 16.5l-117 225l90 102h11q25 -61 56 -133t50 -116q18 -42 33 -61.5t34.5 -26
t54.5 -6.5q22 0 31.5 -11zM345 762q19 -12 31 -32.5t12 -45.5q0 -44 -32 -72.5t-111 -28.5q-62 0 -106 2l-19 65l2 6l38 -1l14 18v171h68v-96q32 26 65 26q19 0 38 -12zM327.5 690q-9.5 13 -25.5 13q-31 0 -77 -49h27q22 0 48.5 1t33.5 4q3 18 -6.5 31z" />
    <glyph glyph-name="uniFB8B" unicode="&#x698;" horiz-adv-x="370" arabic-form="final" 
d="M427.5 114q9.5 -11 9.5 -29q0 -39 -15.5 -62t-51.5 -23q-46 0 -81 15q-19 -49 -62 -89.5t-104 -68t-135 -40.5l-67 92l7 10q75 13 132.5 37.5t94.5 54.5t54 63q-43 96 -74 159l89 102h12l43 -122q14 -39 28 -57.5t33.5 -24.5t55.5 -6q22 0 31.5 -11zM281 671l-63 -96
l-103 72l64 93zM372 528l-64 -96l-98 69l-45 -69l-102 72l64 94l97 -67l46 67z" />
    <glyph glyph-name="uniFB8D" unicode="&#x691;" horiz-adv-x="370" arabic-form="final" 
d="M427.5 114q9.5 -11 9.5 -29q0 -39 -15.5 -62t-51.5 -23q-46 0 -81 15q-19 -49 -62 -89.5t-104 -68t-135 -40.5l-67 92l7 10q75 13 132.5 37.5t94.5 54.5t54 63q-43 96 -74 159l89 102h12l43 -122q14 -39 28 -57.5t33.5 -24.5t55.5 -6q22 0 31.5 -11zM291 629
q19 -12 31 -32.5t12 -45.5q0 -44 -32 -72.5t-111 -28.5q-62 0 -106 2l-19 65l2 6l38 -1l14 18v171h68v-96q32 26 65 26q19 0 38 -12zM273.5 557q-9.5 13 -25.5 13q-31 0 -77 -49h27q22 0 48.5 1t33.5 4q3 18 -6.5 31z" />
    <glyph glyph-name="uniFB8F" unicode="&#x6a9;" horiz-adv-x="958" arabic-form="final" 
d="M1025 85q0 -39 -15.5 -62t-51.5 -23q-40 0 -80.5 20t-76.5 62q-19 -37 -60 -57.5t-112.5 -28.5t-189.5 -8h-61q-166 0 -253.5 48t-87.5 139q0 32 4.5 61t13.5 61l89 34l10 -5q-9 -46 -9 -83q0 -51 28 -79t87 -39.5t161 -11.5h55q83 0 133.5 4t78.5 12.5t41 23.5
q-22 32 -84 85t-125 96l-5 7l30 140l346 179l9 -6l-41 -151l-213 -106q55 -44 94 -80.5t79 -77.5q7 -7 41.5 -42.5t65.5 -53.5t59 -18q40 0 40 -40z" />
    <glyph glyph-name="uniFB90" unicode="&#x6a9;" horiz-adv-x="439" arabic-form="initial" 
d="M402 503l-212 -105q77 -51 119 -91.5t57 -71.5t15 -62q0 -81 -66.5 -127t-214.5 -46h-100l27 125h65q58 0 111 7t74 17q0 31 -58.5 78t-154.5 107l-5 7l29 140l346 179l9 -6z" />
    <glyph glyph-name="uniFB91" unicode="&#x6a9;" horiz-adv-x="502" arabic-form="medial" 
d="M559.5 114q9.5 -11 9.5 -29q0 -39 -15.5 -62t-51.5 -23q-45 0 -85 22.5t-72 59.5q-17 -31 -50 -49t-82.5 -25.5t-122.5 -7.5h-90l27 125h104q64 0 96.5 7.5t44.5 21.5q-22 32 -84 85t-124 95l-5 7l29 140l346 179l9 -6l-41 -151l-213 -106q57 -46 97.5 -83t76.5 -75
q40 -42 61.5 -62.5t49 -36t54.5 -15.5q22 0 31.5 -11z" />
    <glyph glyph-name="uniFB93" unicode="&#x6af;" horiz-adv-x="947" arabic-form="final" 
d="M872 727l-328 -169l-9 7l26 117l334 168l9 -6zM1025 85q0 -39 -15.5 -62t-51.5 -23q-40 0 -80.5 20t-76.5 62q-19 -37 -60 -57.5t-112.5 -28.5t-189.5 -8h-61q-166 0 -253.5 48t-87.5 139q0 32 4.5 61t13.5 61l89 34l10 -5q-9 -46 -9 -83q0 -51 28 -79t87 -39.5
t161 -11.5h55q83 0 133.5 4t78.5 12.5t41 23.5q-22 32 -84 85t-125 96l-5 7l30 140l346 179l9 -6l-41 -151l-213 -106q55 -44 94 -80.5t79 -77.5q7 -7 41.5 -42.5t65.5 -53.5t59 -18q40 0 40 -40z" />
    <glyph glyph-name="uniFB94" unicode="&#x6af;" horiz-adv-x="439" arabic-form="initial" 
d="M421 727l-328 -169l-9 7l26 117l334 168l9 -6zM434 660l9 -6l-41 -151l-212 -105q77 -51 119 -91.5t57 -71.5t15 -62q0 -81 -66.5 -127t-214.5 -46h-100l27 125h65q58 0 111 7t74 17q0 31 -58.5 78t-154.5 107l-5 7l29 140z" />
    <glyph glyph-name="uniFB95" unicode="&#x6af;" horiz-adv-x="493" arabic-form="medial" 
d="M421 727l-328 -169l-9 7l26 117l334 168l9 -6zM559.5 114q9.5 -11 9.5 -29q0 -39 -15.5 -62t-51.5 -23q-45 0 -85 22.5t-72 59.5q-17 -31 -50 -49t-82.5 -25.5t-122.5 -7.5h-90l27 125h104q64 0 96.5 7.5t44.5 21.5q-22 32 -84 85t-124 95l-5 7l29 140l346 179l9 -6
l-41 -151l-213 -106q57 -46 97.5 -83t76.5 -75q40 -42 61.5 -62.5t49 -36t54.5 -15.5q22 0 31.5 -11z" />
    <glyph glyph-name="uniFB9F" unicode="&#x6ba;" horiz-adv-x="650" arabic-form="final" 
d="M707 114q10 -11 10 -29q0 -85 -67 -85q-36 0 -65 18q-26 -102 -106.5 -153t-198.5 -51q-77 0 -131.5 26t-83 73t-28.5 110q0 32 5.5 63.5t13.5 57.5l90 34l11 -4q-7 -50 -7 -94q0 -67 35.5 -104t119.5 -37q62 0 106.5 19.5t65.5 49.5q3 14 3 28q0 38 -15.5 81.5
t-44.5 106.5l109 77h6q5 -12 18 -52q19 -60 28 -80q11 -24 32.5 -34t60.5 -10q23 0 33 -11z" />
    <glyph glyph-name="uniFBA7" unicode="&#x6c1;" horiz-adv-x="474" arabic-form="final" 
d="M399 17q-31 17 -50 40.5t-41 59.5q-15 25 -25 38.5t-22.5 22.5t-28.5 9q-34 0 -74 -31.5t-72 -76.5h-9l-60 67q22 39 57 76.5t82.5 63.5t99.5 26q34 0 59.5 -14t42 -34.5t38.5 -53.5q18 -29 31.5 -45.5t31.5 -28t42 -11.5q21 0 30.5 -11t9.5 -29q0 -85 -67 -85
q-44 0 -75 17z" />
    <glyph glyph-name="uniFBA8" unicode="&#x6c1;" horiz-adv-x="292" arabic-form="initial" 
d="M27 125h10q31 0 58.5 2t37.5 6q1 3 1 11q0 27 -15.5 66t-42.5 94l101 80h10q25 -52 40.5 -110.5t15.5 -94.5q0 -39 -13.5 -73t-39.5 -61q-25 -24 -64.5 -34.5t-113.5 -10.5h-12zM98.5 -150q-14.5 13 -14.5 38t14.5 52.5t36.5 50.5l47 -29q-11 -13 -19.5 -25.5t-8.5 -19.5
q0 -5 5 -8q9 -6 14 -13.5t5 -20.5q0 -17 -13 -27.5t-34 -10.5q-18 0 -32.5 13z" />
    <glyph glyph-name="uniFBA9" unicode="&#x6c1;" horiz-adv-x="576" arabic-form="medial" 
d="M643 85q0 -28 -4 -45.5t-16.5 -28.5t-37.5 -11h-54q-38 0 -66.5 -25.5t-44.5 -73.5t-16 -115q0 -50 10 -103l-88 -33q-105 45 -167.5 127.5t-62.5 200.5q0 19 1 29q-41 -7 -97 -7l27 125q51 0 85.5 10.5t57 32.5t40.5 57l88 -35l3 -10q-27 -76 -78 -117q-9 -36 -9 -72
q0 -46 14.5 -89.5t39.5 -78.5t58 -57q-10 50 -10 101q0 77 25 135t73.5 90.5t116.5 32.5h79q33 0 33 -40z" />
    <glyph glyph-name="uniFBAB" unicode="&#x6be;" horiz-adv-x="575" arabic-form="final" 
d="M642 85q0 -42 -17 -63.5t-50 -21.5h-57q11 -16 16.5 -34.5t5.5 -37.5q0 -38 -20.5 -67t-55 -45t-76.5 -16q-60 0 -106.5 23t-75.5 68t-36 108q-30 -1 -49 -9t-47 -26h-9l-45 89q23 32 63.5 51t92.5 20q14 65 46 132t75 120l80 46l9 1q71 -53 104.5 -98t33.5 -90
q0 -28 -14 -60t-35 -50h127q40 0 40 -40zM316.5 215q-18.5 -48 -28.5 -98q52 4 84 31.5t32 72.5q0 21 -9.5 40.5t-30.5 43.5q-29 -42 -47.5 -90zM431.5 -37.5q-15.5 20.5 -43 33.5t-61.5 13q-23 0 -43 -6q9 -44 41 -69t76 -25q27 0 45 11q1 22 -14.5 42.5z" />
    <glyph glyph-name="uniFBAC" unicode="&#x6be;" horiz-adv-x="550" arabic-form="initial" 
d="M398 293q114 -91 114 -173q0 -62 -41 -93t-116 -31q-84 0 -154 32q-63 -28 -142 -28h-59l19 125h71q-23 40 -23 84q0 36 16 71.5t44 58.5q-15 8 -26 12.5t-17 7.5l37 107l9 2q154 -84 268 -175zM233 169.5q10 20.5 10 47.5q0 20 -5.5 36.5t-15 26t-20.5 9.5t-20.5 -8.5
t-15.5 -24.5t-6 -37q0 -56 46 -84q17 14 27 34.5zM394.5 107q19.5 3 24.5 7q-14 40 -86 97q-2 -27 -10.5 -54t-24.5 -50q26 -3 57 -3q20 0 39.5 3z" />
    <glyph glyph-name="uniFBAD" unicode="&#x6be;" horiz-adv-x="468" arabic-form="medial" 
d="M525 115q10 -10 10 -30q0 -42 -17 -63.5t-50 -21.5h-58q11 -16 17 -34.5t6 -37.5q0 -38 -20.5 -67t-55 -45t-76.5 -16q-61 0 -107.5 23t-75.5 68t-36 109h-62l27 125h41q14 65 46 131.5t75 119.5l81 46l8 1q72 -53 105.5 -98t33.5 -90q0 -28 -14 -60t-35 -50h127
q20 0 30 -10zM180 117q52 4 84.5 31.5t32.5 72.5q0 20 -9.5 40t-31.5 44q-56 -81 -76 -188zM323.5 -37.5q-15.5 20.5 -42.5 33.5t-62 13q-22 0 -43 -6q10 -44 42 -69t76 -25q14 0 25.5 3t18.5 8q1 22 -14.5 42.5z" />
    <glyph glyph-name="uniFBAF" unicode="&#x6d2;" horiz-adv-x="619" arabic-form="final" 
d="M232 -251.5q-113 13.5 -167.5 46.5t-54.5 91q0 75 43.5 129t123.5 82t188 28h280q23 0 31.5 -10t8.5 -32q0 -37 -14 -60t-53 -23h-253q-123 0 -188 -23.5t-65 -79.5q79 -40 474 -40l6 -8l-60 -114q-187 0 -300 13.5z" />
    <glyph glyph-name="uniFBB1" unicode="&#x6d3;" horiz-adv-x="619" arabic-form="final" 
d="M232 -251.5q-113 13.5 -167.5 46.5t-54.5 91q0 75 43.5 129t123.5 82t188 28h280q23 0 31.5 -10t8.5 -32q0 -37 -14 -60t-53 -23h-253q-123 0 -188 -23.5t-65 -79.5q79 -40 474 -40l6 -8l-60 -114q-187 0 -300 13.5zM288 261q-78 -10 -195 -14l-7 72q30 0 46 1
q-10 14 -16 30.5t-6 32.5q0 39 23.5 62.5t65.5 23.5q32 0 74 -16l-17 -65q-24 8 -43 8q-16 0 -25 -8.5t-9 -23.5q0 -23 20 -41q58 4 84 7z" />
    <glyph glyph-name="uniFBFD" unicode="&#x6cc;" horiz-adv-x="783" arabic-form="final" 
d="M172 -158.5q-68 27.5 -101.5 75t-33.5 108.5q0 48 17 114l103 35l11 -6q-5 -27 -8 -48t-3 -38q0 -46 18.5 -77.5t63.5 -48.5t122 -17q59 0 115.5 7.5t97.5 21t57 30.5q0 13 -12.5 23t-42 21t-83.5 25l37 118l53 -16q74 -23 123.5 -33.5t103.5 -10.5q22 0 31 -10.5
t9 -29.5q0 -39 -15 -62t-53 -23h-43q-8 -58 -60.5 -100t-140 -64t-198.5 -22q-100 0 -168 27.5z" />
    <glyph glyph-name="uniFBFE" unicode="&#x6cc;" horiz-adv-x="316" arabic-form="initial" 
d="M27 125h30q31 0 58.5 2t37.5 6q1 3 1 11q0 27 -15.5 67t-41.5 93l100 80h10q24 -52 40 -111t16 -94q0 -40 -13 -74t-40 -60q-25 -24 -64.5 -34.5t-113.5 -10.5h-32zM307 -143l-64 -96l-97 69l-46 -69l-102 72l63 94l99 -68l45 68z" />
    <glyph glyph-name="uniFBFF" unicode="&#x6cc;" horiz-adv-x="360" arabic-form="medial" 
d="M427 85q0 -85 -66 -85q-57 0 -105 12t-77 35q-28 -23 -63.5 -35t-82.5 -12h-33l27 125h23q21 0 41 3.5t28 9.5q18 44 35 140l129 30l10 -7q-12 -51 -23 -88.5t-24 -67.5q53 -20 141 -20q40 0 40 -40zM335 -143l-64 -96l-97 69l-46 -69l-102 72l63 94l99 -68l45 68z" />
    <glyph glyph-name="uniFDFC" unicode="&#xfdfc;" horiz-adv-x="990" arabic-form="isolated" 
d="M522.5 176q-35.5 34 -35.5 106v277l79 21l6 -4v-287q0 -34 16 -47.5t55 -13.5q29 0 50 4.5t29 9.5q1 15 -8 36.5t-30 62.5l70 55h6q16 -33 26 -71.5t10 -62.5q0 -56 -34 -86q-39 -34 -126 -34q-78 0 -113.5 34zM420 546l6 -5l-1 -446q0 -73 -27 -122t-75 -73t-111 -24
q-54 0 -92 17.5t-57.5 50t-19.5 75.5q0 16 3.5 40.5t8.5 39.5l63 20l7 -3q-5 -30 -5 -63q0 -46 28 -69t78 -23q39 0 66.5 11.5t41.5 32.5q6 38 6 96v423zM928 130.5q12 -42.5 12 -74.5q0 -39 -19 -73q-23 -40 -73.5 -69t-115.5 -40l-43 65l5 7q48 8 89 24.5t65 35t24 31.5
q-1 16 -15 47t-33 61l63 68h7q22 -40 34 -82.5zM520 43l42 63l68 -46l-42 -64zM750 60l-43 -64l-67 47l41 63z" />
    <glyph glyph-name="uniFE82" unicode="&#x622;" horiz-adv-x="259" arabic-form="final" 
d="M110 49q-49 49 -49 155v458l115 31l10 -6v-474q0 -34 10 -53t31 -27t59 -8q21 0 30.5 -10t9.5 -30q0 -40 -16 -62.5t-51 -22.5q-100 0 -149 49zM183.5 738.5q-14.5 3.5 -23 6t-11.5 3.5q-17 6 -31 9.5t-28 3.5q-36 0 -76 -25l-36 56q26 25 50.5 36t49.5 11
q15 0 32.5 -3.5t33.5 -8.5q21 -6 37.5 -9.5t32.5 -3.5q25 0 46 8l23 -67q-37 -20 -71 -20q-14 0 -28.5 3.5z" />
    <glyph glyph-name="uniFE84" unicode="&#x623;" horiz-adv-x="259" arabic-form="final" 
d="M110 49q-49 49 -49 155v458l115 31l10 -6v-474q0 -34 10 -53t31 -27t59 -8q21 0 30.5 -10t9.5 -30q0 -40 -16 -62.5t-51 -22.5q-100 0 -149 49zM225 755q-78 -10 -195 -14l-7 72q30 0 46 1q-10 14 -16 30.5t-6 32.5q0 39 23.5 62.5t65.5 23.5q32 0 74 -16l-17 -65
q-24 8 -43 8q-16 0 -25 -8.5t-9 -23.5q0 -23 20 -41q58 4 84 7z" />
    <glyph glyph-name="uniFE86" unicode="&#x624;" horiz-adv-x="430" arabic-form="final" 
d="M104 527q33 0 51 1q-11 15 -17.5 33t-6.5 36q0 43 26 69t72 26q36 0 81 -17l-19 -73q-29 10 -48 10q-17 0 -26.5 -9t-9.5 -25q0 -13 6 -25t16 -21q62 4 91 7l7 -75q-96 -12 -216 -16zM497 85q0 -39 -16 -62t-53 -23h-62q-21 -51 -62.5 -91t-104 -63.5t-144.5 -23.5
l-60 95l7 11q92 2 153 19t94 53q-99 1 -148 39t-49 108q0 48 22 96.5t60 80t83 31.5q47 0 84 -30.5t59 -83t26 -116.5h69q42 0 42 -40zM170.5 135q23.5 -10 77.5 -10h38q-2 30 -13.5 55.5t-28 40.5t-34.5 15q-16 0 -31 -10.5t-23.5 -26.5t-8.5 -33q0 -21 23.5 -31z" />
    <glyph glyph-name="uniFE88" unicode="&#x625;" horiz-adv-x="259" arabic-form="final" 
d="M110 49q-49 49 -49 155v458l115 31l10 -6v-474q0 -34 10 -53t31 -27t59 -8q21 0 30.5 -10t9.5 -30q0 -40 -16 -62.5t-51 -22.5q-100 0 -149 49zM227 -265q-78 -10 -195 -14l-7 72q30 0 45 1q-9 14 -15 30.5t-6 31.5q0 39 23.5 62.5t65.5 23.5q35 0 74 -15l-17 -65
q-29 8 -43 8q-16 0 -25 -8.5t-9 -23.5q0 -23 20 -41q60 4 84 7z" />
    <glyph glyph-name="uniFE8A" unicode="&#x626;" horiz-adv-x="783" arabic-form="final" 
d="M75 335q33 0 51 1q-11 15 -17.5 33t-6.5 36q0 43 26 69t72 26q36 0 81 -17l-19 -73q-29 10 -48 10q-17 0 -26.5 -9t-9.5 -25q0 -13 6 -25t16 -21q62 4 91 7l7 -75q-96 -12 -216 -16zM841 114.5q9 -10.5 9 -29.5q0 -39 -15 -62t-53 -23h-43q-8 -58 -60.5 -100t-140 -64
t-198.5 -22q-100 0 -168 27.5t-101.5 75t-33.5 108.5q0 48 17 114l103 35l11 -6q-5 -27 -8 -48t-3 -38q0 -46 18.5 -77.5t63.5 -48.5t122 -17q59 0 115.5 7.5t97.5 21t57 30.5q0 13 -12.5 23t-42 21t-83.5 25l37 118l53 -16q74 -23 123.5 -33.5t103.5 -10.5q22 0 31 -10.5z
" />
    <glyph glyph-name="uniFE8B" unicode="&#x626;" horiz-adv-x="316" arabic-form="initial" 
d="M45 539q33 0 51 1q-11 15 -17.5 33t-6.5 36q0 43 26 69t72 26q36 0 81 -17l-19 -73q-29 10 -48 10q-17 0 -26.5 -9t-9.5 -25q0 -13 6 -25t16 -21q62 4 91 7l7 -75q-96 -12 -216 -16zM207 384q24 -52 40 -111t16 -94q0 -40 -13 -74t-40 -60q-25 -24 -64.5 -34.5
t-113.5 -10.5h-32l27 125h30q31 0 58.5 2t37.5 6q1 3 1 11q0 27 -15.5 67t-41.5 93l100 80h10z" />
    <glyph glyph-name="uniFE8C" unicode="&#x626;" horiz-adv-x="360" arabic-form="medial" 
d="M107 480q33 0 51 1q-11 15 -17.5 33t-6.5 36q0 43 26 69t72 26q36 0 81 -17l-19 -73q-29 10 -48 10q-17 0 -26.5 -9t-9.5 -25q0 -13 6 -25t16 -21q62 4 91 7l7 -75q-96 -12 -216 -16zM427 85q0 -85 -66 -85q-57 0 -105 12t-77 35q-28 -23 -63.5 -35t-82.5 -12h-33l27 125
h23q21 0 41 3.5t28 9.5q18 44 35 140l129 30l10 -7q-12 -51 -23 -88.5t-24 -67.5q53 -20 141 -20q40 0 40 -40z" />
    <glyph glyph-name="uniFE8E" unicode="&#x627;" horiz-adv-x="259" arabic-form="final" 
d="M110 49q-49 49 -49 155v458l115 31l10 -6v-474q0 -34 10 -53t31 -27t59 -8q21 0 30.5 -10t9.5 -30q0 -40 -16 -62.5t-51 -22.5q-100 0 -149 49z" />
    <glyph glyph-name="uniFE90" unicode="&#x628;" horiz-adv-x="882" arabic-form="final" 
d="M939.5 114q9.5 -11 9.5 -29q0 -39 -15.5 -62t-51.5 -23q-39 0 -82 12t-72 34q-11 -11 -24 -19q-27 -17 -107.5 -28t-157.5 -11h-61q-166 0 -253.5 48t-87.5 139q0 32 4.5 61t13.5 61l89 34l10 -5q-9 -46 -9 -83q0 -51 28 -79t87 -39.5t161 -11.5h55q57 0 111 4.5t78 11.5
q24 68 39 149l129 30l10 -7q-21 -90 -51 -156q53 -20 117 -20q21 0 30.5 -11zM431 -258l-107 75l67 98l106 -73z" />
    <glyph glyph-name="uniFE91" unicode="&#x628;" horiz-adv-x="296" arabic-form="initial" 
d="M27 125h10q31 0 58.5 2t37.5 6q1 3 1 11q0 27 -15.5 66t-42.5 94l101 80h10q25 -52 40.5 -110.5t15.5 -94.5q0 -39 -13.5 -73t-39.5 -61q-25 -24 -64.5 -34.5t-113.5 -10.5h-12zM167 -246l-107 75l67 98l106 -73z" />
    <glyph glyph-name="uniFE92" unicode="&#x628;" horiz-adv-x="335" arabic-form="medial" 
d="M392.5 114q9.5 -11 9.5 -29q0 -39 -15.5 -62t-51.5 -23q-40 0 -83.5 13t-72.5 35q-59 -48 -160 -48h-19l27 125h18q60 0 79 13q16 39 34 140l129 30l10 -7q-12 -52 -23 -89.5t-25 -67.5q48 -19 113 -19q21 0 30.5 -11zM197 -246l-107 75l67 98l106 -73z" />
    <glyph glyph-name="uniFE94" unicode="&#x629;" horiz-adv-x="457" arabic-form="final" 
d="M524 85q0 -38 -16.5 -61.5t-52.5 -23.5q-56 0 -96.5 16t-64.5 50q-47 -16 -93 -16q-54 0 -94.5 16t-62 45.5t-21.5 67.5q0 42 27.5 84.5t82 80t130.5 62.5v46l116 45l9 -3v-300q0 -27 8 -41.5t28.5 -21t58.5 -6.5q41 0 41 -40zM263 175v19v95q-53 -13 -91 -33.5
t-47 -43.5q7 -19 33.5 -30t55.5 -11t49 4zM383 661l-64 -96l-98 69l-44 -69l-103 72l64 94l97 -67l45 67z" />
    <glyph glyph-name="uniFE96" unicode="&#x62a;" horiz-adv-x="882" arabic-form="final" 
d="M939.5 114q9.5 -11 9.5 -29q0 -39 -15.5 -62t-51.5 -23q-39 0 -82 12t-72 34q-11 -11 -24 -19q-27 -17 -107.5 -28t-157.5 -11h-61q-166 0 -253.5 48t-87.5 139q0 32 4.5 61t13.5 61l89 34l10 -5q-9 -46 -9 -83q0 -51 28 -79t87 -39.5t161 -11.5h55q57 0 111 4.5t78 11.5
q24 68 39 149l129 30l10 -7q-21 -90 -51 -156q53 -20 117 -20q21 0 30.5 -11zM605 490l-64 -96l-98 69l-44 -69l-103 72l64 94l97 -67l45 67z" />
    <glyph glyph-name="uniFE97" unicode="&#x62a;" horiz-adv-x="316" arabic-form="initial" 
d="M27 125h30q31 0 58.5 2t37.5 6q1 3 1 11q0 27 -15.5 67t-41.5 93l100 80h10q24 -52 40 -111t16 -94q0 -40 -13 -74t-40 -60q-25 -24 -64.5 -34.5t-113.5 -10.5h-32zM310 560l-64 -96l-98 69l-44 -69l-103 72l64 94l97 -67l45 67z" />
    <glyph glyph-name="uniFE98" unicode="&#x62a;" horiz-adv-x="360" arabic-form="medial" 
d="M427 85q0 -85 -66 -85q-57 0 -105 12t-77 35q-28 -23 -63.5 -35t-82.5 -12h-33l27 125h23q21 0 41 3.5t28 9.5q18 44 35 140l129 30l10 -7q-12 -51 -23 -88.5t-24 -67.5q53 -20 141 -20q40 0 40 -40zM372 501l-64 -96l-98 69l-44 -69l-103 72l64 94l97 -67l45 67z" />
    <glyph glyph-name="uniFE9A" unicode="&#x62b;" horiz-adv-x="882" arabic-form="final" 
d="M939.5 114q9.5 -11 9.5 -29q0 -39 -15.5 -62t-51.5 -23q-39 0 -82 12t-72 34q-11 -11 -24 -19q-27 -17 -107.5 -28t-157.5 -11h-61q-166 0 -253.5 48t-87.5 139q0 32 4.5 61t13.5 61l89 34l10 -5q-9 -46 -9 -83q0 -51 28 -79t87 -39.5t161 -11.5h55q57 0 111 4.5t78 11.5
q24 68 39 149l129 30l10 -7q-21 -90 -51 -156q53 -20 117 -20q21 0 30.5 -11zM527 633l-63 -96l-103 72l64 93zM618 490l-64 -96l-98 69l-45 -69l-102 72l64 94l97 -67l46 67z" />
    <glyph glyph-name="uniFE9B" unicode="&#x62b;" horiz-adv-x="316" arabic-form="initial" 
d="M27 125h30q31 0 58.5 2t37.5 6q1 3 1 11q0 27 -15.5 67t-41.5 93l100 80h10q24 -52 40 -111t16 -94q0 -40 -13 -74t-40 -60q-25 -24 -64.5 -34.5t-113.5 -10.5h-32zM232 703l-63 -96l-103 72l64 93zM323 560l-64 -96l-98 69l-45 -69l-102 72l64 94l97 -67l46 67z" />
    <glyph glyph-name="uniFE9C" unicode="&#x62b;" horiz-adv-x="360" arabic-form="medial" 
d="M427 85q0 -85 -66 -85q-57 0 -105 12t-77 35q-28 -23 -63.5 -35t-82.5 -12h-33l27 125h23q21 0 41 3.5t28 9.5q18 44 35 140l129 30l10 -7q-12 -51 -23 -88.5t-24 -67.5q53 -20 141 -20q40 0 40 -40zM294 644l-63 -96l-103 72l64 93zM385 501l-64 -96l-98 69l-45 -69
l-102 72l64 94l97 -67l46 67z" />
    <glyph glyph-name="uniFE9E" unicode="&#x62c;" horiz-adv-x="682" arabic-form="final" 
d="M749 85q0 -39 -15.5 -62t-51.5 -23q-62 0 -109 14t-83 50t-60 98q-82 -25 -144.5 -67.5t-97 -96.5t-34.5 -114q0 -86 75 -130.5t212 -44.5q46 0 97.5 8.5t102.5 24.5l6 -6l-37 -104q-36 -23 -90 -35.5t-118 -12.5q-109 0 -191.5 31.5t-128 91t-45.5 142.5q0 80 44 155
t117 135t160 100q-55 16 -92.5 23t-65.5 7q-36 0 -76.5 -7t-70.5 -18l-5 5l43 107q23 14 55.5 22.5t63.5 8.5q26 0 59.5 -6.5t84.5 -22.5q82 -26 144 -36t129 -10l-30 -121q-31 -1 -61 -6q13 -22 33.5 -35t54 -19t85.5 -6q40 0 40 -40zM400 -178l-107 76l67 98l106 -73z" />
    <glyph glyph-name="uniFE9F" unicode="&#x62c;" horiz-adv-x="610" arabic-form="initial" 
d="M503.5 264.5q43.5 -15.5 79.5 -17.5l-32 -120q-53 -6 -121.5 -23t-145.5 -43q-103 -35 -165 -48t-119 -13l27 125q63 0 116.5 7.5t144.5 31.5q34 10 65 17.5t39 9.5q-14 6 -48 23q-57 31 -94.5 43t-70.5 12q-31 0 -57.5 -5t-57.5 -14l-5 5l44 110q18 10 42.5 16t48.5 6
q33 0 70.5 -14t115.5 -53q80 -40 123.5 -55.5zM286 -246l-107 75l67 98l106 -73z" />
    <glyph glyph-name="uniFEA0" unicode="&#x62c;" horiz-adv-x="632" arabic-form="medial" 
d="M699 85q0 -85 -66 -85q-79 0 -128.5 12.5t-79 36t-50.5 61.5l-37 -18q-102 -51 -178 -71.5t-160 -20.5l27 125q75 0 131.5 11t142.5 42q33 12 79 27l-34 15q-59 27 -96.5 38t-70.5 11q-31 0 -57.5 -5t-57.5 -14l-5 4l44 111q18 10 42.5 16t48.5 6q27 0 62 -10.5t92 -37.5
q77 -35 131 -49.5t107 -15.5l-21 -112q-45 -2 -85 -13q23 -14 63.5 -19t116.5 -5q39 0 39 -40zM279 -246l-107 75l67 98l106 -73z" />
    <glyph glyph-name="uniFEA2" unicode="&#x62d;" horiz-adv-x="682" arabic-form="final" 
d="M749 85q0 -39 -15.5 -62t-51.5 -23q-62 0 -109 14t-83 50t-60 98q-82 -25 -144.5 -67.5t-97 -96.5t-34.5 -114q0 -86 75 -130.5t212 -44.5q46 0 97.5 8.5t102.5 24.5l6 -6l-37 -104q-36 -23 -90 -35.5t-118 -12.5q-109 0 -191.5 31.5t-128 91t-45.5 142.5q0 80 44 155
t117 135t160 100q-55 16 -92.5 23t-65.5 7q-36 0 -76.5 -7t-70.5 -18l-5 5l43 107q23 14 55.5 22.5t63.5 8.5q26 0 59.5 -6.5t84.5 -22.5q82 -26 144 -36t129 -10l-30 -121q-31 -1 -61 -6q13 -22 33.5 -35t54 -19t85.5 -6q40 0 40 -40z" />
    <glyph glyph-name="uniFEA3" unicode="&#x62d;" horiz-adv-x="610" arabic-form="initial" 
d="M503.5 264.5q43.5 -15.5 79.5 -17.5l-32 -120q-53 -6 -121.5 -23t-145.5 -43q-103 -35 -165 -48t-119 -13l27 125q63 0 116.5 7.5t144.5 31.5q34 10 65 17.5t39 9.5q-14 6 -48 23q-57 31 -94.5 43t-70.5 12q-31 0 -57.5 -5t-57.5 -14l-5 5l44 110q18 10 42.5 16t48.5 6
q33 0 70.5 -14t115.5 -53q80 -40 123.5 -55.5z" />
    <glyph glyph-name="uniFEA4" unicode="&#x62d;" horiz-adv-x="632" arabic-form="medial" 
d="M699 85q0 -85 -66 -85q-79 0 -128.5 12.5t-79 36t-50.5 61.5l-37 -18q-102 -51 -178 -71.5t-160 -20.5l27 125q75 0 131.5 11t142.5 42q33 12 79 27l-34 15q-59 27 -96.5 38t-70.5 11q-31 0 -57.5 -5t-57.5 -14l-5 4l44 111q18 10 42.5 16t48.5 6q27 0 62 -10.5t92 -37.5
q77 -35 131 -49.5t107 -15.5l-21 -112q-45 -2 -85 -13q23 -14 63.5 -19t116.5 -5q39 0 39 -40z" />
    <glyph glyph-name="uniFEA6" unicode="&#x62e;" horiz-adv-x="682" arabic-form="final" 
d="M749 85q0 -39 -15.5 -62t-51.5 -23q-62 0 -109 14t-83 50t-60 98q-82 -25 -144.5 -67.5t-97 -96.5t-34.5 -114q0 -86 75 -130.5t212 -44.5q46 0 97.5 8.5t102.5 24.5l6 -6l-37 -104q-36 -23 -90 -35.5t-118 -12.5q-109 0 -191.5 31.5t-128 91t-45.5 142.5q0 80 44 155
t117 135t160 100q-55 16 -92.5 23t-65.5 7q-36 0 -76.5 -7t-70.5 -18l-5 5l43 107q23 14 55.5 22.5t63.5 8.5q26 0 59.5 -6.5t84.5 -22.5q82 -26 144 -36t129 -10l-30 -121q-31 -1 -61 -6q13 -22 33.5 -35t54 -19t85.5 -6q40 0 40 -40zM359 480l-107 76l67 98l106 -74z" />
    <glyph glyph-name="uniFEA7" unicode="&#x62e;" horiz-adv-x="610" arabic-form="initial" 
d="M503.5 264.5q43.5 -15.5 79.5 -17.5l-32 -120q-53 -6 -121.5 -23t-145.5 -43q-103 -35 -165 -48t-119 -13l27 125q63 0 116.5 7.5t144.5 31.5q34 10 65 17.5t39 9.5q-14 6 -48 23q-57 31 -94.5 43t-70.5 12q-31 0 -57.5 -5t-57.5 -14l-5 5l44 110q18 10 42.5 16t48.5 6
q33 0 70.5 -14t115.5 -53q80 -40 123.5 -55.5zM213 480l-107 76l67 98l106 -74z" />
    <glyph glyph-name="uniFEA8" unicode="&#x62e;" horiz-adv-x="632" arabic-form="medial" 
d="M699 85q0 -85 -66 -85q-79 0 -128.5 12.5t-79 36t-50.5 61.5l-37 -18q-102 -51 -178 -71.5t-160 -20.5l27 125q75 0 131.5 11t142.5 42q33 12 79 27l-34 15q-59 27 -96.5 38t-70.5 11q-31 0 -57.5 -5t-57.5 -14l-5 4l44 111q18 10 42.5 16t48.5 6q27 0 62 -10.5t92 -37.5
q77 -35 131 -49.5t107 -15.5l-21 -112q-45 -2 -85 -13q23 -14 63.5 -19t116.5 -5q39 0 39 -40zM213 480l-107 76l67 98l106 -74z" />
    <glyph glyph-name="uniFEAA" unicode="&#x62f;" horiz-adv-x="484" arabic-form="final" 
d="M541.5 114q9.5 -11 9.5 -29q0 -39 -16 -62t-52 -23q-50 0 -81.5 10.5t-51.5 36.5q-36 -27 -89.5 -41.5t-117.5 -14.5q-24 0 -58 3t-58 8l18 121l7 4q22 -4 51.5 -6t50.5 -2q39 0 78 5.5t66 16.5l-117 225l90 102h11q25 -61 56 -133t50 -116q18 -42 33 -61.5t34.5 -26
t54.5 -6.5q22 0 31.5 -11z" />
    <glyph glyph-name="uniFEAC" unicode="&#x630;" horiz-adv-x="484" arabic-form="final" 
d="M541.5 114q9.5 -11 9.5 -29q0 -39 -16 -62t-52 -23q-50 0 -81.5 10.5t-51.5 36.5q-36 -27 -89.5 -41.5t-117.5 -14.5q-24 0 -58 3t-58 8l18 121l7 4q22 -4 51.5 -6t50.5 -2q39 0 78 5.5t66 16.5l-117 225l90 102h11q25 -61 56 -133t50 -116q18 -42 33 -61.5t34.5 -26
t54.5 -6.5q22 0 31.5 -11zM280 561l-107 76l67 98l106 -74z" />
    <glyph glyph-name="uniFEAE" unicode="&#x631;" horiz-adv-x="370" arabic-form="final" 
d="M427.5 114q9.5 -11 9.5 -29q0 -39 -15.5 -62t-51.5 -23q-46 0 -81 15q-19 -49 -62 -89.5t-104 -68t-135 -40.5l-67 92l7 10q75 13 132.5 37.5t94.5 54.5t54 63q-43 96 -74 159l89 102h12l43 -122q14 -39 28 -57.5t33.5 -24.5t55.5 -6q22 0 31.5 -11z" />
    <glyph glyph-name="uniFEB0" unicode="&#x632;" horiz-adv-x="370" arabic-form="final" 
d="M427.5 114q9.5 -11 9.5 -29q0 -39 -15.5 -62t-51.5 -23q-46 0 -81 15q-19 -49 -62 -89.5t-104 -68t-135 -40.5l-67 92l7 10q75 13 132.5 37.5t94.5 54.5t54 63q-43 96 -74 159l89 102h12l43 -122q14 -39 28 -57.5t33.5 -24.5t55.5 -6q22 0 31.5 -11zM226 428l-107 76
l67 98l106 -74z" />
    <glyph glyph-name="uniFEB2" unicode="&#x633;" horiz-adv-x="1153" arabic-form="final" 
d="M1210.5 114q9.5 -11 9.5 -29q0 -39 -15.5 -62t-51.5 -23q-38 0 -79 11.5t-71 31.5q-50 -43 -129 -43q-73 0 -128 25q-17 -13 -37.5 -19t-46.5 -6q-20 0 -40 5t-37 15q-28 -108 -110 -157t-195 -49q-77 0 -131.5 26t-83 73t-28.5 110q0 29 6.5 66t12.5 55l90 34l11 -4
q-3 -23 -5 -49t-2 -45q0 -67 35.5 -104t119.5 -37q62 0 106.5 19.5t65.5 49.5q4 15 4 25q0 38 -16 84t-45 107l109 77h6q5 -12 18 -52q19 -60 28 -80q11 -24 30 -34t51 -10q24 0 36 9q4 6 11 32.5t13 55.5l6 27l127 21l3 -4q-28 -94 -42 -132q36 -9 73 -9h1v0q16 0 31 2.5
t26 8.5q7 19 7 53q0 46 -9 95l125 46l7 -3q3 -36 3 -66q0 -67 -15 -117q22 -9 51.5 -14t63.5 -5q21 0 30.5 -11z" />
    <glyph glyph-name="uniFEB3" unicode="&#x633;" horiz-adv-x="839" arabic-form="initial" 
d="M785 177q0 -58 -28 -98t-77 -59.5t-113 -19.5q-73 0 -132 27q-37 -27 -95 -27q-44 0 -84.5 12.5t-68.5 30.5q-30 -23 -74 -33t-113 -10l27 125q47 0 71.5 3t38.5 9q6 13 12.5 45t11.5 67l135 21l4 -4q-31 -90 -45 -125q22 -7 49 -11.5t51 -4.5t36 9q7 9 20 71l11 44
l126 21l4 -4q-25 -86 -44 -131q36 -10 75 -10q60 0 90 13q1 3 1 10q0 47 -51 156l108 80l6 -1q48 -126 48 -206z" />
    <glyph glyph-name="uniFEB4" unicode="&#x633;" horiz-adv-x="846" arabic-form="medial" 
d="M903.5 114q9.5 -11 9.5 -29q0 -39 -15.5 -62t-51.5 -23q-38 0 -79.5 11.5t-70.5 31.5q-50 -43 -128 -43h-1v0h-1v0q-40 0 -71.5 7t-59.5 20q-37 -27 -95 -27q-44 0 -84.5 12.5t-68.5 30.5q-30 -23 -74 -33t-113 -10l27 125q47 0 71.5 3t38.5 9q6 13 12.5 45t11.5 67
l135 21l4 -4q-31 -90 -45 -125q22 -7 49 -11.5t51 -4.5t36 9q7 9 20 71l11 44l126 21l4 -4q-25 -86 -44 -131q36 -10 75 -10q35 0 57 11q6 17 6 53q0 50 -8 95l125 46l7 -3q3 -36 3 -66q0 -68 -15 -117q22 -9 51.5 -14t63.5 -5q21 0 30.5 -11z" />
    <glyph glyph-name="uniFEB6" unicode="&#x634;" horiz-adv-x="1153" arabic-form="final" 
d="M1210.5 114q9.5 -11 9.5 -29q0 -39 -15.5 -62t-51.5 -23q-38 0 -79 11.5t-71 31.5q-50 -43 -129 -43q-73 0 -128 25q-17 -13 -37.5 -19t-46.5 -6q-20 0 -40 5t-37 15q-28 -108 -110 -157t-195 -49q-77 0 -131.5 26t-83 73t-28.5 110q0 29 6.5 66t12.5 55l90 34l11 -4
q-3 -23 -5 -49t-2 -45q0 -67 35.5 -104t119.5 -37q62 0 106.5 19.5t65.5 49.5q4 15 4 25q0 38 -16 84t-45 107l109 77h6q5 -12 18 -52q19 -60 28 -80q11 -24 30 -34t51 -10q24 0 36 9q4 6 11 32.5t13 55.5l6 27l127 21l3 -4q-28 -94 -42 -132q36 -9 73 -9h1v0q16 0 31 2.5
t26 8.5q7 19 7 53q0 46 -9 95l125 46l7 -3q3 -36 3 -66q0 -67 -15 -117q22 -9 51.5 -14t63.5 -5q21 0 30.5 -11zM841 651l-63 -96l-103 72l64 93zM932 508l-64 -96l-98 69l-45 -69l-102 72l64 94l97 -67l46 67z" />
    <glyph glyph-name="uniFEB7" unicode="&#x634;" horiz-adv-x="839" arabic-form="initial" 
d="M785 177q0 -58 -28 -98t-77 -59.5t-113 -19.5q-73 0 -132 27q-37 -27 -95 -27q-44 0 -84.5 12.5t-68.5 30.5q-30 -23 -74 -33t-113 -10l27 125q47 0 71.5 3t38.5 9q6 13 12.5 45t11.5 67l135 21l4 -4q-31 -90 -45 -125q22 -7 49 -11.5t51 -4.5t36 9q7 9 20 71l11 44
l126 21l4 -4q-25 -86 -44 -131q36 -10 75 -10q60 0 90 13q1 3 1 10q0 47 -51 156l108 80l6 -1q48 -126 48 -206zM532 641l-63 -96l-103 72l64 93zM623 498l-64 -96l-98 69l-45 -69l-102 72l64 94l97 -67l46 67z" />
    <glyph glyph-name="uniFEB8" unicode="&#x634;" horiz-adv-x="846" arabic-form="medial" 
d="M903.5 114q9.5 -11 9.5 -29q0 -39 -15.5 -62t-51.5 -23q-38 0 -79.5 11.5t-70.5 31.5q-50 -43 -128 -43h-1v0h-1v0q-40 0 -71.5 7t-59.5 20q-37 -27 -95 -27q-44 0 -84.5 12.5t-68.5 30.5q-30 -23 -74 -33t-113 -10l27 125q47 0 71.5 3t38.5 9q6 13 12.5 45t11.5 67
l135 21l4 -4q-31 -90 -45 -125q22 -7 49 -11.5t51 -4.5t36 9q7 9 20 71l11 44l126 21l4 -4q-25 -86 -44 -131q36 -10 75 -10q35 0 57 11q6 17 6 53q0 50 -8 95l125 46l7 -3q3 -36 3 -66q0 -68 -15 -117q22 -9 51.5 -14t63.5 -5q21 0 30.5 -11zM532 641l-63 -96l-103 72
l64 93zM623 498l-64 -96l-98 69l-45 -69l-102 72l64 94l97 -67l46 67z" />
    <glyph glyph-name="uniFEBA" unicode="&#x635;" horiz-adv-x="1235" arabic-form="final" 
d="M1292.5 114q9.5 -11 9.5 -29q0 -39 -15.5 -62t-51.5 -23q-37 0 -76.5 10.5t-69.5 29.5q-26 -17 -59.5 -25.5t-77.5 -11.5t-114 -3h-59q-88 0 -127.5 3.5t-65.5 18.5q-27 -109 -109.5 -158.5t-196.5 -49.5q-77 0 -131.5 26t-83 73t-28.5 110q0 32 5.5 63.5t13.5 57.5
l90 34l11 -4q-7 -49 -7 -94q0 -67 35.5 -104t119.5 -37q62 0 106.5 19.5t65.5 49.5q3 14 3 28q0 38 -15.5 81.5t-44.5 106.5l109 77h6l14 -43q4 -10 14 -40.5t18 -47.5q8 -16 17.5 -25t24.5 -13t41 -6q90 88 152 140.5t113 80t95 27.5q46 0 80.5 -26.5t53 -67t18.5 -82.5
q0 -30 -11 -60q44 -13 97 -13q21 0 30.5 -11zM1007 128q40 3 60 11q8 13 8 38q0 18 -8.5 36.5t-24 30.5t-34.5 12q-35 0 -91.5 -34t-128.5 -97h75q104 0 144 3z" />
    <glyph glyph-name="uniFEBB" unicode="&#x635;" horiz-adv-x="850" arabic-form="initial" 
d="M733 347.5q35 -26.5 53.5 -67t18.5 -82.5q0 -43 -19.5 -81.5t-48.5 -62.5q-28 -24 -63 -35.5t-82 -15t-125 -3.5h-107q-87 0 -134 5.5t-93 25.5q-24 -16 -56.5 -23.5t-76.5 -7.5l27 125q17 0 36 2.5t29 6.5q11 27 26 102l133 20l4 -4q-25 -77 -44 -116q16 -5 35 -7t45 -3
q92 89 154 141t112.5 79.5t94.5 27.5q46 0 81 -26.5zM704 177q0 18 -8.5 36.5t-24 30.5t-34.5 12q-35 0 -91.5 -34t-129.5 -97h98q88 0 125 3t57 11q8 13 8 38z" />
    <glyph glyph-name="uniFEBC" unicode="&#x635;" horiz-adv-x="867" arabic-form="medial" 
d="M924.5 114q9.5 -11 9.5 -29q0 -39 -15.5 -62t-51.5 -23q-37 0 -77.5 11t-69.5 30q-27 -18 -60.5 -26.5t-78 -11.5t-114.5 -3h-107q-87 0 -134 5.5t-93 25.5q-24 -16 -56.5 -23.5t-76.5 -7.5l27 125q17 0 36 2.5t29 6.5q11 27 26 102l133 20l4 -4q-25 -77 -44 -116
q16 -5 35 -7t45 -3q92 89 154 141t112.5 79.5t94.5 27.5q46 0 81 -26.5t53.5 -67t18.5 -82.5q0 -29 -10 -59q46 -14 99 -14q21 0 30.5 -11zM639 128q37 3 57 11q8 13 8 38q0 18 -8.5 36.5t-24 30.5t-34.5 12q-35 0 -91.5 -34t-129.5 -97h98q88 0 125 3z" />
    <glyph glyph-name="uniFEBE" unicode="&#x636;" horiz-adv-x="1235" arabic-form="final" 
d="M1292.5 114q9.5 -11 9.5 -29q0 -39 -15.5 -62t-51.5 -23q-37 0 -76.5 10.5t-69.5 29.5q-26 -17 -59.5 -25.5t-77.5 -11.5t-114 -3h-59q-88 0 -127.5 3.5t-65.5 18.5q-27 -109 -109.5 -158.5t-196.5 -49.5q-77 0 -131.5 26t-83 73t-28.5 110q0 32 5.5 63.5t13.5 57.5
l90 34l11 -4q-7 -49 -7 -94q0 -67 35.5 -104t119.5 -37q62 0 106.5 19.5t65.5 49.5q3 14 3 28q0 38 -15.5 81.5t-44.5 106.5l109 77h6l14 -43q4 -10 14 -40.5t18 -47.5q8 -16 17.5 -25t24.5 -13t41 -6q90 88 152 140.5t113 80t95 27.5q46 0 80.5 -26.5t53 -67t18.5 -82.5
q0 -30 -11 -60q44 -13 97 -13q21 0 30.5 -11zM1007 128q40 3 60 11q8 13 8 38q0 18 -8.5 36.5t-24 30.5t-34.5 12q-35 0 -91.5 -34t-128.5 -97h75q104 0 144 3zM1018 467l-107 76l67 98l106 -74z" />
    <glyph glyph-name="uniFEBF" unicode="&#x636;" horiz-adv-x="850" arabic-form="initial" 
d="M733 347.5q35 -26.5 53.5 -67t18.5 -82.5q0 -43 -19.5 -81.5t-48.5 -62.5q-28 -24 -63 -35.5t-82 -15t-125 -3.5h-107q-87 0 -134 5.5t-93 25.5q-24 -16 -56.5 -23.5t-76.5 -7.5l27 125q17 0 36 2.5t29 6.5q11 27 26 102l133 20l4 -4q-25 -77 -44 -116q16 -5 35 -7t45 -3
q92 89 154 141t112.5 79.5t94.5 27.5q46 0 81 -26.5zM704 177q0 18 -8.5 36.5t-24 30.5t-34.5 12q-35 0 -91.5 -34t-129.5 -97h98q88 0 125 3t57 11q8 13 8 38zM644 467l-107 76l67 98l106 -74z" />
    <glyph glyph-name="uniFEC0" unicode="&#x636;" horiz-adv-x="867" arabic-form="medial" 
d="M924.5 114q9.5 -11 9.5 -29q0 -39 -15.5 -62t-51.5 -23q-37 0 -77.5 11t-69.5 30q-27 -18 -60.5 -26.5t-78 -11.5t-114.5 -3h-107q-87 0 -134 5.5t-93 25.5q-24 -16 -56.5 -23.5t-76.5 -7.5l27 125q17 0 36 2.5t29 6.5q11 27 26 102l133 20l4 -4q-25 -77 -44 -116
q16 -5 35 -7t45 -3q92 89 154 141t112.5 79.5t94.5 27.5q46 0 81 -26.5t53.5 -67t18.5 -82.5q0 -29 -10 -59q46 -14 99 -14q21 0 30.5 -11zM639 128q37 3 57 11q8 13 8 38q0 18 -8.5 36.5t-24 30.5t-34.5 12q-35 0 -91.5 -34t-129.5 -97h98q88 0 125 3zM644 467l-107 76
l67 98l106 -74z" />
    <glyph glyph-name="uniFEC2" unicode="&#x637;" horiz-adv-x="736" arabic-form="final" 
d="M793.5 114q9.5 -11 9.5 -29q0 -39 -15.5 -62t-51.5 -23q-37 0 -77 10.5t-69 29.5q-26 -17 -59.5 -25.5t-77.5 -11.5t-114 -3h-238l-59 111l4 14h116l37 35v502l115 31l10 -6l-2 -415q64 52 112 77t90 25q46 0 80.5 -26.5t53 -67t18.5 -82.5q0 -28 -10 -60q48 -13 97 -13
q21 0 30.5 -11zM507 128q40 3 61 11q8 16 8 38q0 18 -8.5 36.5t-24 30.5t-35.5 12q-68 0 -220 -131h75q104 0 144 3z" />
    <glyph glyph-name="uniFEC3" unicode="&#x637;" horiz-adv-x="628" arabic-form="initial" 
d="M510.5 347.5q34.5 -26.5 53 -67t18.5 -82.5q0 -43 -19.5 -81.5t-48.5 -62.5q-28 -23 -63 -35t-82 -15.5t-125 -3.5h-244l27 125h41l38 36v501l115 31l10 -6l-2 -415q63 52 111 77t90 25q46 0 80.5 -26.5zM479.5 155.5q2.5 10.5 2.5 21.5q0 18 -8.5 36.5t-24.5 30.5
t-35 12q-68 0 -220 -131h75q104 0 144 3t60 11q4 6 6.5 16.5z" />
    <glyph glyph-name="uniFEC4" unicode="&#x637;" horiz-adv-x="643" arabic-form="medial" 
d="M700.5 114q9.5 -11 9.5 -29q0 -39 -15.5 -62t-51.5 -23q-37 0 -77 10.5t-70 30.5q-26 -18 -59.5 -26.5t-78 -11.5t-114.5 -3h-244l27 125h41l38 36v501l115 31l10 -6l-2 -415q63 52 111 77t90 25q46 0 80.5 -26.5t53 -67t18.5 -82.5q0 -29 -10 -59q46 -14 98 -14
q21 0 30.5 -11zM413 128q40 3 60 11q4 6 6.5 16.5t2.5 21.5q0 18 -8.5 36.5t-24.5 30.5t-35 12q-68 0 -220 -131h75q104 0 144 3z" />
    <glyph glyph-name="uniFEC6" unicode="&#x638;" horiz-adv-x="736" arabic-form="final" 
d="M793.5 114q9.5 -11 9.5 -29q0 -39 -15.5 -62t-51.5 -23q-37 0 -77 10.5t-69 29.5q-26 -17 -59.5 -25.5t-77.5 -11.5t-114 -3h-238l-59 111l4 14h116l37 35v502l115 31l10 -6l-2 -415q64 52 112 77t90 25q46 0 80.5 -26.5t53 -67t18.5 -82.5q0 -28 -10 -60q48 -13 97 -13
q21 0 30.5 -11zM507 128q40 3 61 11q8 16 8 38q0 18 -8.5 36.5t-24 30.5t-35.5 12q-68 0 -220 -131h75q104 0 144 3zM531 467l-107 76l67 98l106 -74z" />
    <glyph glyph-name="uniFEC7" unicode="&#x638;" horiz-adv-x="628" arabic-form="initial" 
d="M510.5 347.5q34.5 -26.5 53 -67t18.5 -82.5q0 -43 -19.5 -81.5t-48.5 -62.5q-28 -23 -63 -35t-82 -15.5t-125 -3.5h-244l27 125h41l38 36v501l115 31l10 -6l-2 -415q63 52 111 77t90 25q46 0 80.5 -26.5zM479.5 155.5q2.5 10.5 2.5 21.5q0 18 -8.5 36.5t-24.5 30.5
t-35 12q-68 0 -220 -131h75q104 0 144 3t60 11q4 6 6.5 16.5zM436 467l-107 76l67 98l106 -74z" />
    <glyph glyph-name="uniFEC8" unicode="&#x638;" horiz-adv-x="643" arabic-form="medial" 
d="M700.5 114q9.5 -11 9.5 -29q0 -39 -15.5 -62t-51.5 -23q-37 0 -77 10.5t-70 30.5q-26 -18 -59.5 -26.5t-78 -11.5t-114.5 -3h-244l27 125h41l38 36v501l115 31l10 -6l-2 -415q63 52 111 77t90 25q46 0 80.5 -26.5t53 -67t18.5 -82.5q0 -29 -10 -59q46 -14 98 -14
q21 0 30.5 -11zM413 128q40 3 60 11q4 6 6.5 16.5t2.5 21.5q0 18 -8.5 36.5t-24.5 30.5t-35 12q-68 0 -220 -131h75q104 0 144 3zM436 467l-107 76l67 98l106 -74z" />
    <glyph glyph-name="uniFECA" unicode="&#x639;" horiz-adv-x="581" arabic-form="final" 
d="M189 -58.5q-39 -54.5 -39 -108.5q0 -63 59.5 -95t167.5 -32q47 0 105 7t94 17l9 -5l-36 -109q-41 -15 -94 -23.5t-113 -8.5q-96 0 -167 26.5t-109.5 79t-38.5 126.5q0 62 29 118t74.5 104t108.5 99q-35 39 -69 67.5t-71 47.5l-5 10l39 110q42 20 94 31.5t107 11.5
q58 0 112 -12.5t98 -38.5l4 -12l-28 -105l-80 -67l-41 -34q40 -12 91 -16.5t118 -4.5q40 0 40 -40q0 -39 -15.5 -62t-51.5 -23q-96 0 -158 17.5t-112 52.5q-83 -74 -122 -128.5zM317 199q27 22 53.5 44.5t43.5 40.5q-45 14 -94 14q-40 0 -98 -13q39 -26 95 -86z" />
    <glyph glyph-name="uniFECB" unicode="&#x639;" horiz-adv-x="524" arabic-form="initial" 
d="M481 138l-37 -113q-63 -12 -167 -18.5t-277 -6.5l27 125h71q-25 48 -25 97q0 60 27.5 104t75 66.5t106.5 22.5q35 0 73 -8t72 -22l-14 -105l-4 -3q-61 19 -102 19q-44 0 -68.5 -21.5t-24.5 -61.5q0 -20 9 -42t25 -43q130 5 226 17z" />
    <glyph glyph-name="uniFECC" unicode="&#x639;" horiz-adv-x="572" arabic-form="medial" 
d="M629.5 114q9.5 -11 9.5 -29q0 -85 -68 -85q-163 0 -271 73q-58 -35 -129.5 -54t-170.5 -19l27 125q59 0 106 6t88 21q-67 67 -133 100l-3 10l39 110q41 20 94 31.5t108 11.5q58 0 112.5 -13t97.5 -38l3 -12l-27 -105q-40 -31 -92 -80q-9 -7 -15.5 -13t-10.5 -10
q38 -11 87 -15t117 -4q22 0 31.5 -11zM255 251q22 -21 53 -54q48 33 96 87q-51 15 -97 15q-47 0 -96 -13q22 -14 44 -35z" />
    <glyph glyph-name="uniFECE" unicode="&#x63a;" horiz-adv-x="581" arabic-form="final" 
d="M189 -58.5q-39 -54.5 -39 -108.5q0 -63 59.5 -95t167.5 -32q47 0 105 7t94 17l9 -5l-36 -109q-41 -15 -94 -23.5t-113 -8.5q-96 0 -167 26.5t-109.5 79t-38.5 126.5q0 62 29 118t74.5 104t108.5 99q-35 39 -69 67.5t-71 47.5l-5 10l39 110q42 20 94 31.5t107 11.5
q58 0 112 -12.5t98 -38.5l4 -12l-28 -105l-80 -67l-41 -34q40 -12 91 -16.5t118 -4.5q40 0 40 -40q0 -39 -15.5 -62t-51.5 -23q-96 0 -158 17.5t-112 52.5q-83 -74 -122 -128.5zM317 199q27 22 53.5 44.5t43.5 40.5q-45 14 -94 14q-40 0 -98 -13q39 -26 95 -86zM352 508
l-107 76l67 98l106 -74z" />
    <glyph glyph-name="uniFECF" unicode="&#x63a;" horiz-adv-x="524" arabic-form="initial" 
d="M481 138l-37 -113q-63 -12 -167 -18.5t-277 -6.5l27 125h71q-25 48 -25 97q0 60 27.5 104t75 66.5t106.5 22.5q35 0 73 -8t72 -22l-14 -105l-4 -3q-61 19 -102 19q-44 0 -68.5 -21.5t-24.5 -61.5q0 -20 9 -42t25 -43q130 5 226 17zM301 508l-107 76l67 98l106 -74z" />
    <glyph glyph-name="uniFED0" unicode="&#x63a;" horiz-adv-x="572" arabic-form="medial" 
d="M629.5 114q9.5 -11 9.5 -29q0 -85 -68 -85q-163 0 -271 73q-58 -35 -129.5 -54t-170.5 -19l27 125q59 0 106 6t88 21q-67 67 -133 100l-3 10l39 110q41 20 94 31.5t108 11.5q58 0 112.5 -13t97.5 -38l3 -12l-27 -105q-40 -31 -92 -80q-9 -7 -15.5 -13t-10.5 -10
q38 -11 87 -15t117 -4q22 0 31.5 -11zM255 251q22 -21 53 -54q48 33 96 87q-51 15 -97 15q-47 0 -96 -13q22 -14 44 -35zM345 508l-107 76l67 98l106 -74z" />
    <glyph glyph-name="uniFED2" unicode="&#x641;" horiz-adv-x="958" arabic-form="final" 
d="M1015.5 114q9.5 -11 9.5 -29q0 -39 -15.5 -62t-51.5 -23h-65q-84 0 -154 31q-110 -43 -300 -43h-61q-166 0 -253.5 48t-87.5 139q0 32 4.5 61t13.5 61l89 34l10 -5q-9 -46 -9 -83q0 -51 28 -79t87 -39.5t161 -11.5h55q73 0 142 8q-17 22 -25.5 46t-8.5 49q0 49 24.5 95.5
t64.5 76t85 29.5q41 0 75 -26t54 -66t20 -78q0 -65 -38 -121q12 -1 39 -1h77q21 0 30.5 -11zM717 288.5q-15 -10.5 -24.5 -27t-9.5 -33.5q0 -22 16 -41t46 -33q30 16 46 36.5t16 42.5q0 15 -9.5 30.5t-24 25.5t-27.5 10q-14 0 -29 -10.5zM764 497l-107 76l67 98l106 -74z
" />
    <glyph glyph-name="uniFED3" unicode="&#x641;" horiz-adv-x="459" arabic-form="initial" 
d="M325.5 462q38.5 -35 59.5 -94.5t21 -130.5q0 -40 -8.5 -79t-23 -68.5t-31.5 -42.5q-26 -20 -65.5 -30t-103 -13.5t-174.5 -3.5l27 125q133 0 187.5 4.5t80.5 13.5q1 3 3 14t3 23q-40 -9 -93 -9q-68 0 -102.5 32.5t-34.5 87.5q0 47 22.5 95t60.5 79.5t82 31.5
q51 0 89.5 -35zM182 286.5q15 -7.5 50 -7.5q33 0 71 5q-7 39 -27.5 67t-47.5 28q-16 0 -30 -10.5t-22.5 -26.5t-8.5 -32t15 -23.5zM242 569l-107 76l67 98l106 -74z" />
    <glyph glyph-name="uniFED4" unicode="&#x641;" horiz-adv-x="448" arabic-form="medial" 
d="M506.5 114.5q8.5 -10.5 8.5 -29.5q0 -85 -66 -85h-63q-81 0 -152 31q-77 -31 -176 -31h-58l27 125h82q-32 45 -32 91q0 49 24.5 95.5t64.5 76t85 29.5q41 0 75 -26t54 -66t20 -78q0 -69 -37 -121q12 -1 38 -1h75q22 0 30.5 -10.5zM211 288.5q-15 -10.5 -25 -27t-10 -33.5
q0 -22 16.5 -41.5t47.5 -33.5q28 15 44 35t16 43q0 16 -9.5 32t-23.5 26t-27 10q-14 0 -29 -10.5zM257 497l-107 76l67 98l106 -74z" />
    <glyph glyph-name="uniFED6" unicode="&#x642;" horiz-adv-x="731" arabic-form="final" 
d="M788 114q10 -11 10 -29q0 -39 -15.5 -62t-51.5 -23h-48q-27 -95 -112.5 -140.5t-230.5 -45.5q-100 0 -168 27.5t-101.5 75t-33.5 108.5q0 48 17 114l103 35l11 -6q-5 -27 -8 -48t-3 -38q0 -46 18.5 -77.5t63.5 -48.5t122 -17q85 0 141.5 13t77.5 35l3 13h-22
q-103 0 -152 37.5t-49 107.5q0 48 22 97t60.5 80.5t83.5 31.5q47 0 83.5 -30.5t58 -82.5t26.5 -116h61q23 0 33 -11zM595 125q-2 28 -12.5 53.5t-27.5 41.5t-37 16q-16 0 -30.5 -11t-23 -27.5t-8.5 -32.5q0 -20 23.5 -30t76.5 -10h39zM663 541l-64 -96l-98 69l-44 -69
l-103 72l64 94l97 -67l45 67z" />
    <glyph glyph-name="uniFED7" unicode="&#x642;" horiz-adv-x="459" arabic-form="initial" 
d="M325.5 462q38.5 -35 59.5 -94.5t21 -130.5q0 -40 -8.5 -79t-23 -68.5t-31.5 -42.5q-26 -20 -65.5 -30t-103 -13.5t-174.5 -3.5l27 125q133 0 187.5 4.5t80.5 13.5q1 3 3 14t3 23q-40 -9 -93 -9q-68 0 -102.5 32.5t-34.5 87.5q0 47 22.5 95t60.5 79.5t82 31.5
q51 0 89.5 -35zM182 286.5q15 -7.5 50 -7.5q33 0 71 5q-7 39 -27.5 67t-47.5 28q-16 0 -30 -10.5t-22.5 -26.5t-8.5 -32t15 -23.5zM375 669l-64 -96l-98 69l-44 -69l-103 72l64 94l97 -67l45 67z" />
    <glyph glyph-name="uniFED8" unicode="&#x642;" horiz-adv-x="448" arabic-form="medial" 
d="M506.5 114.5q8.5 -10.5 8.5 -29.5q0 -85 -66 -85h-63q-81 0 -152 31q-77 -31 -176 -31h-58l27 125h82q-32 45 -32 91q0 49 24.5 95.5t64.5 76t85 29.5q41 0 75 -26t54 -66t20 -78q0 -69 -37 -121q12 -1 38 -1h75q22 0 30.5 -10.5zM211 288.5q-15 -10.5 -25 -27t-10 -33.5
q0 -22 16.5 -41.5t47.5 -33.5q28 15 44 35t16 43q0 16 -9.5 32t-23.5 26t-27 10q-14 0 -29 -10.5zM390 597l-64 -96l-98 69l-44 -69l-103 72l64 94l97 -67l45 67z" />
    <glyph glyph-name="uniFEDA" unicode="&#x643;" horiz-adv-x="842" arabic-form="final" 
d="M909 85q0 -39 -15.5 -62t-51.5 -23q-40 0 -74 13.5t-56 41.5q-35 -35 -100 -51t-173 -16h-61q-166 0 -253.5 48t-87.5 139q0 32 4.5 61t13.5 61l89 34l10 -5q-9 -46 -9 -83q0 -51 28 -79t87 -39.5t161 -11.5h55q55 0 101.5 8t61.5 17q7 28 7 74v450l115 31l10 -6v-448
q0 -46 7.5 -69.5t28.5 -34t62 -10.5q40 0 40 -40zM313 350q30 0 47 1q-11 15 -17 31.5t-6 32.5q0 39 24 62.5t65 23.5q16 0 35.5 -4.5t38.5 -12.5l-17 -63q-23 8 -44 8q-17 0 -26.5 -7.5t-9.5 -23.5q0 -12 5.5 -23.5t15.5 -20.5q57 4 86 7l6 -66q-80 -10 -196 -14z" />
    <glyph glyph-name="uniFEDB" unicode="&#x643;" horiz-adv-x="439" arabic-form="initial" 
d="M402 503l-212 -105q77 -51 119 -91.5t57 -71.5t15 -62q0 -81 -66.5 -127t-214.5 -46h-100l27 125h65q58 0 111 7t74 17q0 31 -58.5 78t-154.5 107l-5 7l29 140l346 179l9 -6z" />
    <glyph glyph-name="uniFEDC" unicode="&#x643;" horiz-adv-x="502" arabic-form="medial" 
d="M559.5 114q9.5 -11 9.5 -29q0 -39 -15.5 -62t-51.5 -23q-45 0 -85 22.5t-72 59.5q-17 -31 -50 -49t-82.5 -25.5t-122.5 -7.5h-90l27 125h104q64 0 96.5 7.5t44.5 21.5q-22 32 -84 85t-124 95l-5 7l29 140l346 179l9 -6l-41 -151l-213 -106q57 -46 97.5 -83t76.5 -75
q40 -42 61.5 -62.5t49 -36t54.5 -15.5q22 0 31.5 -11z" />
    <glyph glyph-name="uniFEDE" unicode="&#x644;" horiz-adv-x="679" arabic-form="final" 
d="M735.5 114q9.5 -11 9.5 -29q0 -85 -66 -85q-50 0 -88 24q-29 -104 -110.5 -157t-200.5 -53q-76 0 -130.5 25.5t-83.5 73t-29 110.5q0 54 19 121l90 34l11 -4q-7 -36 -7 -94q0 -69 37.5 -105t117.5 -36q57 0 100.5 16t66.5 47q10 60 10 133v527l115 31l10 -6v-474
q0 -39 9 -57.5t29 -24.5t60 -6q21 0 30.5 -11z" />
    <glyph glyph-name="uniFEDF" unicode="&#x644;" horiz-adv-x="300" arabic-form="initial" 
d="M27 125q54 0 80 13q7 28 7 74v450l116 31l9 -6v-469q0 -85 -28 -132.5t-79.5 -66.5t-131.5 -19z" />
    <glyph glyph-name="uniFEE0" unicode="&#x644;" horiz-adv-x="311" arabic-form="medial" 
d="M368.5 114q9.5 -11 9.5 -29q0 -39 -15.5 -62t-51.5 -23t-69.5 12.5t-56.5 44.5q-26 -32 -68 -44.5t-117 -12.5l27 125q54 0 80 13q7 28 7 74v450l116 31l9 -6v-474q0 -39 9 -57.5t29 -24.5t61 -6q21 0 30.5 -11z" />
    <glyph glyph-name="uniFEE2" unicode="&#x645;" horiz-adv-x="560" arabic-form="final" 
d="M617.5 114.5q10.5 -10.5 10.5 -29.5q0 -42 -17.5 -63.5t-50.5 -21.5t-57.5 8.5t-45.5 28.5q-35 -50 -85 -50q-93 0 -204 120l-17 -26q-3 -46 11.5 -158.5t36.5 -233.5l-105 -50l-9 6q-19 101 -33.5 203t-14.5 147q0 69 16.5 120.5t52.5 94.5q51 61 112 103t109 42
q34 0 58.5 -17.5t43 -46t48.5 -86.5q19 -36 31 -51.5t29 -22t50 -6.5q20 0 30.5 -10.5zM399 124q0 2 -1 3t-1 2q-27 57 -45.5 82t-36.5 25q-16 0 -38 -14t-45 -38q35 -38 67.5 -58.5t57.5 -20.5t42 19z" />
    <glyph glyph-name="uniFEE3" unicode="&#x645;" horiz-adv-x="519" arabic-form="initial" 
d="M377 323q42 -32 68 -84t26 -108q0 -64 -30.5 -104t-86.5 -40q-43 0 -94 16.5t-102 52.5q-29 -33 -66 -44.5t-92 -11.5l27 125q20 0 32.5 5.5t23.5 20t28 46.5q25 44 48 76.5t56.5 57t73.5 24.5q46 0 88 -32zM364 120q-2 21 -13.5 49t-28.5 47.5t-34 19.5t-32.5 -20.5
t-39.5 -63.5q30 -19 58.5 -30t50.5 -11t39 9z" />
    <glyph glyph-name="uniFEE4" unicode="&#x645;" horiz-adv-x="532" arabic-form="medial" 
d="M589.5 114q10.5 -11 10.5 -29q0 -40 -17 -62.5t-52 -22.5q-33 0 -57.5 8.5t-45.5 26.5q-15 -24 -36 -36t-49 -12q-35 0 -82 17.5t-95 51.5q-19 -24 -43 -36.5t-52 -16t-71 -3.5l27 125q23 0 36 3.5t22.5 13.5t21.5 31q38 65 61.5 99.5t55 58.5t70.5 24q35 0 61.5 -19
t46.5 -49.5t46 -81.5q17 -34 30.5 -50.5t31.5 -23t48 -6.5q21 0 31.5 -11zM352 109.5q11 4.5 19 13.5l-3 6q-22 53 -42 80t-36 27t-33 -22t-40 -65q31 -20 59 -32t49 -12q16 0 27 4.5z" />
    <glyph glyph-name="uniFEE6" unicode="&#x646;" horiz-adv-x="650" arabic-form="final" 
d="M707 114q10 -11 10 -29q0 -85 -67 -85q-36 0 -65 18q-26 -102 -106.5 -153t-198.5 -51q-77 0 -131.5 26t-83 73t-28.5 110q0 32 5.5 63.5t13.5 57.5l90 34l11 -4q-7 -50 -7 -94q0 -67 35.5 -104t119.5 -37q62 0 106.5 19.5t65.5 49.5q3 14 3 28q0 38 -15.5 81.5
t-44.5 106.5l109 77h6q5 -12 18 -52q19 -60 28 -80q11 -24 32.5 -34t60.5 -10q23 0 33 -11zM309 317l-107 76l67 98l106 -74z" />
    <glyph glyph-name="uniFEE7" unicode="&#x646;" horiz-adv-x="296" arabic-form="initial" 
d="M27 125h10q31 0 58.5 2t37.5 6q1 3 1 11q0 27 -15.5 66t-42.5 94l101 80h10q25 -52 40.5 -110.5t15.5 -94.5q0 -39 -13.5 -73t-39.5 -61q-25 -24 -64.5 -34.5t-113.5 -10.5h-12zM153 461l-107 76l67 98l106 -74z" />
    <glyph glyph-name="uniFEE8" unicode="&#x646;" horiz-adv-x="335" arabic-form="medial" 
d="M392.5 114q9.5 -11 9.5 -29q0 -39 -15.5 -62t-51.5 -23q-40 0 -83.5 13t-72.5 35q-59 -48 -160 -48h-19l27 125h18q60 0 79 13q16 39 34 140l129 30l10 -7q-12 -52 -23 -89.5t-25 -67.5q48 -19 113 -19q21 0 30.5 -11zM235 392l-107 76l67 98l106 -74z" />
    <glyph glyph-name="uniFEEA" unicode="&#x647;" horiz-adv-x="457" arabic-form="final" 
d="M524 85q0 -38 -16.5 -61.5t-52.5 -23.5q-56 0 -96.5 16t-64.5 50q-47 -16 -93 -16q-54 0 -94.5 16t-62 45.5t-21.5 67.5q0 42 27.5 84.5t82 80t130.5 62.5v46l116 45l9 -3v-300q0 -27 8 -41.5t28.5 -21t58.5 -6.5q41 0 41 -40zM263 175v19v95q-53 -13 -91 -33.5
t-47 -43.5q7 -19 33.5 -30t55.5 -11t49 4z" />
    <glyph glyph-name="uniFEEB" unicode="&#x647;" horiz-adv-x="550" arabic-form="initial" 
d="M398 293q114 -91 114 -173q0 -62 -41 -93t-116 -31q-84 0 -154 32q-63 -28 -142 -28h-59l19 125h71q-23 40 -23 84q0 36 16 71.5t44 58.5q-15 8 -26 12.5t-17 7.5l37 107l9 2q154 -84 268 -175zM233 169.5q10 20.5 10 47.5q0 20 -5.5 36.5t-15 26t-20.5 9.5t-20.5 -8.5
t-15.5 -24.5t-6 -37q0 -56 46 -84q17 14 27 34.5zM394.5 107q19.5 3 24.5 7q-14 40 -86 97q-2 -27 -10.5 -54t-24.5 -50q26 -3 57 -3q20 0 39.5 3z" />
    <glyph glyph-name="uniFEEC" unicode="&#x647;" horiz-adv-x="468" arabic-form="medial" 
d="M525 115q10 -10 10 -30q0 -42 -17 -63.5t-50 -21.5h-58q11 -16 17 -34.5t6 -37.5q0 -38 -20.5 -67t-55 -45t-76.5 -16q-61 0 -107.5 23t-75.5 68t-36 109h-62l27 125h41q14 65 46 131.5t75 119.5l81 46l8 1q72 -53 105.5 -98t33.5 -90q0 -28 -14 -60t-35 -50h127
q20 0 30 -10zM180 117q52 4 84.5 31.5t32.5 72.5q0 20 -9.5 40t-31.5 44q-56 -81 -76 -188zM323.5 -37.5q-15.5 20.5 -42.5 33.5t-62 13q-22 0 -43 -6q10 -44 42 -69t76 -25q14 0 25.5 3t18.5 8q1 22 -14.5 42.5z" />
    <glyph glyph-name="uniFEEE" unicode="&#x648;" horiz-adv-x="430" arabic-form="final" 
d="M497 85q0 -39 -16 -62t-53 -23h-62q-21 -51 -62.5 -91t-104 -63.5t-144.5 -23.5l-60 95l7 11q92 2 153 19t94 53q-99 1 -148 39t-49 108q0 48 22 96.5t60 80t83 31.5q47 0 84 -30.5t59 -83t26 -116.5h69q42 0 42 -40zM170.5 135q23.5 -10 77.5 -10h38q-2 30 -13.5 55.5
t-28 40.5t-34.5 15q-16 0 -31 -10.5t-23.5 -26.5t-8.5 -33q0 -21 23.5 -31z" />
    <glyph glyph-name="uniFEF0" unicode="&#x649;" horiz-adv-x="783" arabic-form="final" 
d="M172 -158.5q-68 27.5 -101.5 75t-33.5 108.5q0 48 17 114l103 35l11 -6q-5 -27 -8 -48t-3 -38q0 -46 18.5 -77.5t63.5 -48.5t122 -17q59 0 115.5 7.5t97.5 21t57 30.5q0 13 -12.5 23t-42 21t-83.5 25l37 118l53 -16q74 -23 123.5 -33.5t103.5 -10.5q22 0 31 -10.5
t9 -29.5q0 -39 -15 -62t-53 -23h-43q-8 -58 -60.5 -100t-140 -64t-198.5 -22q-100 0 -168 27.5z" />
    <glyph glyph-name="uniFEF2" unicode="&#x64a;" horiz-adv-x="783" arabic-form="final" 
d="M172 -158.5q-68 27.5 -101.5 75t-33.5 108.5q0 48 17 114l103 35l11 -6q-5 -27 -8 -48t-3 -38q0 -46 18.5 -77.5t63.5 -48.5t122 -17q59 0 115.5 7.5t97.5 21t57 30.5q0 13 -12.5 23t-42 21t-83.5 25l37 118l53 -16q74 -23 123.5 -33.5t103.5 -10.5q22 0 31 -10.5
t9 -29.5q0 -39 -15 -62t-53 -23h-43q-8 -58 -60.5 -100t-140 -64t-198.5 -22q-100 0 -168 27.5zM497 -329l-64 -96l-97 69l-46 -69l-102 72l63 94l99 -68l45 68z" />
    <glyph glyph-name="uniFEF3" unicode="&#x64a;" horiz-adv-x="316" arabic-form="initial" 
d="M27 125h30q31 0 58.5 2t37.5 6q1 3 1 11q0 27 -15.5 67t-41.5 93l100 80h10q24 -52 40 -111t16 -94q0 -40 -13 -74t-40 -60q-25 -24 -64.5 -34.5t-113.5 -10.5h-32zM307 -143l-64 -96l-97 69l-46 -69l-102 72l63 94l99 -68l45 68z" />
    <glyph glyph-name="uniFEF4" unicode="&#x64a;" horiz-adv-x="360" arabic-form="medial" 
d="M427 85q0 -85 -66 -85q-57 0 -105 12t-77 35q-28 -23 -63.5 -35t-82.5 -12h-33l27 125h23q21 0 41 3.5t28 9.5q18 44 35 140l129 30l10 -7q-12 -51 -23 -88.5t-24 -67.5q53 -20 141 -20q40 0 40 -40zM335 -143l-64 -96l-97 69l-46 -69l-102 72l63 94l99 -68l45 68z" />
    <glyph glyph-name=".notdef" horiz-adv-x="540" 
d="M80 0v688h380v-688h-380zM156 72h227v544h-227v-544z" />
    <glyph glyph-name="glyph1" 
 />
    <glyph glyph-name="glyph1" 
 />
    <glyph glyph-name="uni000D" unicode="&#xd;" horiz-adv-x="225" 
 />
    <glyph glyph-name="space" unicode=" " horiz-adv-x="225" 
 />
    <glyph glyph-name="exclam" unicode="!" horiz-adv-x="229" 
d="M62 204l-23 444h151l-24 -435zM73.5 -2q-18.5 11 -29.5 29t-11 40q0 21 11 39t29.5 29t40.5 11q21 0 39.5 -11t30 -29t11.5 -39q0 -22 -11 -40t-30 -29t-40 -11q-22 0 -40.5 11z" />
    <glyph glyph-name="quotedbl" unicode="&#x22;" horiz-adv-x="408" 
d="M58 418v230h130l-38 -230h-92zM233 418v230h130l-38 -230h-92z" />
    <glyph glyph-name="numbersign" unicode="#" horiz-adv-x="540" 
d="M527 419h-76l-29 -191h63v-101h-78l-19 -127h-115l19 127h-106l-19 -127h-115l19 127h-58v101h73l29 191h-60v101h76l19 128h115l-19 -128h106l19 128h115l-19 -128h60v-101zM307 228l29 191h-106l-29 -191h106z" />
    <glyph glyph-name="dollar" unicode="$" horiz-adv-x="540" 
d="M474 53.5q-53 -49.5 -141 -62.5v-132h-109v129q-121 10 -211 76l64 99q93 -59 182 -59q57 0 89.5 18t32.5 54q0 22 -10.5 36.5t-37 28t-79.5 34.5l-23 9q-64 25 -103 48t-62 59t-23 91q0 51 24.5 87.5t65.5 58t91 29.5v132h109v-130q46 -6 92.5 -23.5t88.5 -46.5l-65 -98
q-48 29 -85 42t-80 13q-48 0 -72.5 -16t-24.5 -43q0 -17 10 -30.5t36 -27t75 -31.5l22 -8q64 -24 103.5 -45t66.5 -60t27 -101q0 -81 -53 -130.5z" />
    <glyph glyph-name="percent" unicode="%" horiz-adv-x="937" 
d="M127 300.5q-45 22.5 -72.5 66t-27.5 104.5q0 57 27.5 100.5t72.5 67t97 23.5q51 0 95.5 -22.5t72 -65.5t27.5 -101q0 -61 -27 -105.5t-72 -67t-96 -22.5q-52 0 -97 22.5zM291 -14l-89 58l446 618l90 -58zM273 406q17 26 17 64q0 41 -16.5 65.5t-49.5 24.5
q-34 0 -50.5 -24t-16.5 -62q0 -41 17 -67.5t50 -26.5q32 0 49 26zM618 8.5q-45 22.5 -72.5 66t-27.5 104.5q0 57 27.5 100.5t72.5 67t97 23.5q51 0 95.5 -22.5t72 -65.5t27.5 -101q0 -61 -27 -105.5t-72 -67t-96 -22.5q-52 0 -97 22.5zM764 114q17 26 17 64q0 41 -16.5 65.5
t-49.5 24.5q-34 0 -50.5 -24t-16.5 -62q0 -41 17 -67.5t50 -26.5q32 0 49 26z" />
    <glyph glyph-name="ampersand" unicode="&#x26;" horiz-adv-x="685" 
d="M592 -14l-96 81q-111 -81 -244 -81q-63 0 -112 21t-76 60.5t-27 94.5q0 64 32.5 108.5t90.5 82.5q-45 43 -63 76.5t-18 73.5q0 42 22.5 78.5t65.5 58.5t101 22q57 0 100.5 -17.5t68 -50t24.5 -78.5q0 -57 -29.5 -95.5t-83.5 -72.5l148 -121q29 44 57 108l116 -48
q-33 -73 -83 -133l94 -77zM223 465q12 -19 42 -47q31 21 47 42t16 48q0 25 -16 39t-42 14q-29 0 -44 -16.5t-15 -42.5q0 -18 12 -37zM414 136l-173 145q-30 -22 -46.5 -48t-16.5 -59q0 -21 10 -39t32.5 -30t58.5 -12q78 0 135 43z" />
    <glyph glyph-name="quotesingle" unicode="'" horiz-adv-x="232" 
d="M58 418v230h130l-38 -230h-92z" />
    <glyph glyph-name="parenleft" unicode="(" horiz-adv-x="360" 
d="M151.5 -17q-46.5 63 -73 142t-26.5 178q0 101 26.5 180.5t73 142t116.5 125.5l76 -64q-72 -74 -112.5 -167.5t-40.5 -216.5q0 -122 40.5 -215t112.5 -167l-76 -64q-70 63 -116.5 126z" />
    <glyph glyph-name="parenright" unicode=")" horiz-adv-x="360" 
d="M16 -79q72 74 112.5 167t40.5 215q0 123 -40.5 216.5t-112.5 167.5l76 64q70 -63 116.5 -125.5t73 -142t26.5 -180.5q0 -99 -26.5 -178t-73 -142t-116.5 -126z" />
    <glyph glyph-name="asterisk" unicode="*" horiz-adv-x="500" 
d="M446 501l-127 -22l89 -93l-100 -70l-58 113l-58 -113l-100 70l89 93l-127 22l38 115l115 -56l-19 128h123l-18 -128l115 56z" />
    <glyph glyph-name="plus" unicode="+" horiz-adv-x="540" 
d="M209 50v150h-149v110h149v149h123v-149h148v-110h-148v-150h-123z" />
    <glyph glyph-name="comma" unicode="," horiz-adv-x="206" 
d="M20 -134q53 69 53 107q0 13 -5 20.5t-16 17.5q-7 6 -13.5 13.5t-10.5 18t-4 25.5q0 19 9.5 37t27.5 29.5t42 11.5q38 0 59.5 -26t21.5 -71q0 -52 -26.5 -105.5t-74.5 -113.5z" />
    <glyph glyph-name="hyphen" unicode="-" horiz-adv-x="380" 
d="M42 210v117h296v-117h-296z" />
    <glyph glyph-name="period" unicode="." horiz-adv-x="206" 
d="M62.5 -2q-18.5 11 -29.5 29t-11 40q0 21 11 39t29.5 29t40.5 11q21 0 39.5 -11t30 -29t11.5 -39q0 -22 -11 -40t-30 -29t-40 -11q-22 0 -40.5 11z" />
    <glyph glyph-name="slash" unicode="/" horiz-adv-x="530" 
d="M159 -146l-122 40l335 885l121 -39z" />
    <glyph glyph-name="zero" unicode="0" horiz-adv-x="540" 
d="M138 22.5q-53 36.5 -82 112t-29 189.5q0 130 37 205t93 104t119 29q112 0 174.5 -81.5t62.5 -258.5q0 -188 -72.5 -262t-176.5 -74q-73 0 -126 36.5zM324.5 127q22.5 21 33.5 68.5t11 128.5q0 110 -22 164t-74 54q-35 0 -57.5 -21.5t-33.5 -70t-11 -128.5q0 -110 22 -163
t74 -53q35 0 57.5 21z" />
    <glyph glyph-name="one" unicode="1" horiz-adv-x="540" 
d="M367 114h120v-114h-416v114h158v389l-121 -57l-55 78l176 124h138v-534z" />
    <glyph glyph-name="two" unicode="2" horiz-adv-x="540" 
d="M460 379.5q-20 -48.5 -71 -111.5t-143 -154h232v-114h-440v65q121 122 183.5 193.5t86.5 116t24 82.5q0 40 -23 62t-64 22q-34 0 -65.5 -15.5t-68.5 -45.5l-72 86q47 44 105 69t120 25q63 0 111.5 -20t76.5 -61t28 -102q0 -49 -20 -97.5z" />
    <glyph glyph-name="three" unicode="3" horiz-adv-x="540" 
d="M449.5 292q30.5 -41 30.5 -99t-25 -104.5t-81 -74.5t-143 -28q-57 0 -106.5 11.5t-83.5 28.5l47 102q63 -29 135 -29q55 0 85 23t30 66q0 31 -11.5 51.5t-42 32t-84.5 11.5h-48l9 100h78q49 21 69 45t20 57q0 28 -21.5 46.5t-61.5 18.5q-69 0 -136 -54l-70 77
q90 86 214 86q70 0 118 -20.5t72 -57.5t24 -84q0 -49 -29.5 -85.5t-80.5 -58.5q62 -20 92.5 -61z" />
    <glyph glyph-name="four" unicode="4" horiz-adv-x="540" 
d="M521 254v-113h-78v-141h-138v141h-287v64l175 443h154l-168 -394h126l27 160h111v-160h78z" />
    <glyph glyph-name="five" unicode="5" horiz-adv-x="540" 
d="M385 382.5q50 -22.5 77 -67t27 -108.5q0 -59 -24 -108.5t-80.5 -80.5t-146.5 -31q-55 0 -100.5 10.5t-86.5 29.5l46 102q65 -28 129 -28q62 0 91.5 28t29.5 69q0 32 -11 55t-40.5 36t-81.5 13q-21 0 -42.5 -2.5t-32.5 -6.5l-49 40v315h381l-16 -114h-227v-131q26 2 40 2
q67 0 117 -22.5z" />
    <glyph glyph-name="six" unicode="6" horiz-adv-x="540" 
d="M413.5 402q43.5 -24 69.5 -72t26 -117q0 -83 -36 -133.5t-89 -72t-108 -21.5q-72 0 -124.5 33.5t-81 96.5t-28.5 147q0 133 38 222t103 132t146 43q67 0 134 -25l-29 -101q-47 19 -104 19q-67 0 -100 -44t-43 -119q60 36 129 36q54 0 97.5 -24zM350 124.5
q25 28.5 25 81.5q0 57 -21 88t-75 31q-26 0 -48.5 -7.5t-50.5 -23.5v-31q0 -85 24 -126t76 -41q45 0 70 28.5z" />
    <glyph glyph-name="seven" unicode="7" horiz-adv-x="540" 
d="M496 648v-63q-208 -296 -244 -585h-147q14 128 72 266.5t155 267.5h-289l14 114h439z" />
    <glyph glyph-name="eight" unicode="8" horiz-adv-x="540" 
d="M451.5 302q30.5 -26 46.5 -58t16 -73q0 -58 -28.5 -99.5t-82.5 -63.5t-131 -22q-76 0 -131 21t-84.5 61t-29.5 96q0 51 31 92.5t106 77.5q-102 65 -102 159q0 54 29 92t77.5 56.5t105.5 18.5q65 0 112 -21t71.5 -57t24.5 -81q0 -82 -109 -147q48 -26 78.5 -52z
M217.5 540.5q-18.5 -17.5 -18.5 -47.5q0 -26 20 -49t69 -48q28 20 42.5 43.5t14.5 48.5q0 33 -19 51.5t-55 18.5q-35 0 -53.5 -17.5zM328.5 104q22.5 11 32.5 28.5t10 36.5q0 29 -12.5 48t-35 32.5t-73.5 38.5q-45 -26 -62.5 -52.5t-17.5 -55.5q0 -37 24.5 -62t76.5 -25
q35 0 57.5 11z" />
    <glyph glyph-name="nine" unicode="9" horiz-adv-x="540" 
d="M389 628q53 -33 81 -94.5t28 -146.5q0 -133 -37 -223t-101.5 -134t-149.5 -44q-65 0 -135 26l31 98q52 -20 103 -20q69 0 102.5 45.5t43.5 120.5q-62 -38 -133 -38q-53 0 -96.5 24.5t-69 74t-25.5 121.5q0 68 29 118.5t82 77.5t121 27q73 0 126 -33zM310.5 327
q23.5 7 50.5 23v33q0 87 -23.5 128.5t-76.5 41.5q-44 0 -70.5 -28.5t-26.5 -81.5q0 -58 21.5 -90.5t74.5 -32.5q27 0 50.5 7z" />
    <glyph glyph-name="colon" unicode=":" horiz-adv-x="206" 
d="M62.5 -2q-18.5 11 -29.5 29t-11 40q0 21 11 39t29.5 29t40.5 11q21 0 39.5 -11t30 -29t11.5 -39q0 -22 -11 -40t-30 -29t-40 -11q-22 0 -40.5 11zM62.5 308q-18.5 11 -29.5 29t-11 40q0 21 11 39t29.5 29t40.5 11q21 0 39.5 -11t30 -29t11.5 -39q0 -22 -11 -40t-30 -29
t-40 -11q-22 0 -40.5 11z" />
    <glyph glyph-name="semicolon" unicode=";" horiz-adv-x="206" 
d="M20 -134q53 69 53 107q0 13 -5 20.5t-16 17.5q-7 6 -13.5 13.5t-10.5 18t-4 25.5q0 19 9.5 37t27.5 29.5t42 11.5q38 0 59.5 -26t21.5 -71q0 -52 -26.5 -105.5t-74.5 -113.5zM62.5 308q-18.5 11 -29.5 29t-11 40q0 21 11 39t29.5 29t40.5 11q21 0 39.5 -11t30 -29
t11.5 -39q0 -22 -11 -40t-30 -29t-40 -11q-22 0 -40.5 11z" />
    <glyph glyph-name="less" unicode="&#x3c;" horiz-adv-x="540" 
d="M480 375l-307 -119l307 -118l-43 -104l-377 146v150l377 150z" />
    <glyph glyph-name="equal" unicode="=" horiz-adv-x="540" 
d="M60 287v111h420v-111h-420zM60 115v111h420v-111h-420z" />
    <glyph glyph-name="greater" unicode="&#x3e;" horiz-adv-x="540" 
d="M103 477l377 -146v-150l-377 -150l-43 105l307 119l-307 118z" />
    <glyph glyph-name="question" unicode="?" horiz-adv-x="472" 
d="M149 244q0 47 19.5 83.5t68.5 76.5q33 26 45.5 44.5t12.5 39.5q0 28 -18.5 43.5t-57.5 15.5q-36 0 -70.5 -18.5t-65.5 -47.5l-74 84q40 43 101 70t124 27q61 0 108.5 -18t75 -56t27.5 -94q0 -44 -19 -76.5t-66 -68.5q-41 -32 -57.5 -58t-16.5 -60v-13l-137 -13v39z
M176.5 -2q-18.5 11 -29.5 29t-11 40q0 21 11 39t29.5 29t40.5 11q21 0 39.5 -11t30 -29t11.5 -39q0 -22 -11 -40t-30 -29t-40 -11q-22 0 -40.5 11z" />
    <glyph glyph-name="at" unicode="@" horiz-adv-x="902" 
d="M684.5 613.5q89.5 -48.5 135 -132t45.5 -186.5q0 -61 -22 -112.5t-66.5 -82.5t-108.5 -31q-70 0 -107 48q-35 -25 -69.5 -36.5t-71.5 -11.5q-59 0 -97.5 26.5t-56.5 70.5t-18 97q0 66 27.5 115.5t76.5 76t111 26.5q103 0 175 -41v-225q0 -26 9.5 -38.5t33.5 -12.5
q33 0 51.5 32.5t18.5 99.5q0 121 -65.5 195.5t-223.5 74.5q-95 0 -165.5 -37.5t-108 -107t-37.5 -165.5q0 -88 35 -152t100.5 -98t156.5 -34q56 0 101 8t87 27l32 -89q-53 -24 -105.5 -33.5t-115.5 -9.5q-117 0 -209.5 47t-144 133.5t-51.5 200.5q0 127 55.5 218.5
t153.5 139.5t223 48q126 0 215.5 -48.5zM394.5 193.5q18.5 -24.5 53.5 -24.5q18 0 35.5 5t36.5 17v190q-25 5 -50 5q-48 0 -71 -29.5t-23 -89.5q0 -49 18.5 -73.5z" />
    <glyph glyph-name="A" unicode="A" horiz-adv-x="668" 
d="M422 648l233 -640v-8h-151l-52 155h-240l-51 -155h-149v8l233 640h177zM250 269h164l-83 247z" />
    <glyph glyph-name="B" unicode="B" horiz-adv-x="610" 
d="M516.5 306.5q28.5 -23.5 42 -53.5t13.5 -63q0 -91 -64 -140.5t-183 -49.5h-254v648h237q77 0 130.5 -21.5t80.5 -60t27 -90.5q0 -43 -25 -79.5t-75 -55.5q42 -11 70.5 -34.5zM213 536v-151h79q110 0 110 79q0 35 -24.5 53.5t-71.5 18.5h-93zM400 136.5q26 22.5 26 60.5
q0 37 -27 59t-82 22h-104v-164h100q61 0 87 22.5z" />
    <glyph glyph-name="C" unicode="C" horiz-adv-x="578" 
d="M112.5 76.5q-75.5 90.5 -75.5 242.5q0 123 42 199.5t111.5 110t156.5 33.5q61 0 112 -14.5t102 -44.5l-53 -105q-71 46 -154 46q-169 0 -169 -217q0 -108 47 -164t133 -56q44 0 77 11.5t69 32.5l55 -100q-54 -32 -105.5 -48.5t-109.5 -16.5q-163 0 -238.5 90.5z" />
    <glyph glyph-name="D" unicode="D" horiz-adv-x="679" 
d="M548 574.5q93 -73.5 93 -250.5q0 -108 -49 -181t-130.5 -108t-179.5 -35h-211v648h216q168 0 261 -73.5zM388 138.5q49 16.5 74 60.5t25 125q0 75 -22.5 119t-66.5 63.5t-111 19.5h-74v-404h44q82 0 131 16.5z" />
    <glyph glyph-name="E" unicode="E" horiz-adv-x="552" 
d="M213 116h296v-116h-438v648h433v-115h-291v-146h251l-16 -114h-235v-157z" />
    <glyph glyph-name="F" unicode="F" horiz-adv-x="530" 
d="M504 533h-291v-162h251l-16 -114h-235v-257h-142v648h433v-115z" />
    <glyph glyph-name="G" unicode="G" horiz-adv-x="648" 
d="M597 373v-324q-67 -34 -125.5 -48.5t-119.5 -14.5q-163 0 -239 90.5t-76 244.5q0 118 43 194.5t116 111.5t166 35q61 0 117 -15.5t103 -45.5l-58 -101q-76 45 -155 45q-93 0 -139 -56.5t-46 -161.5q0 -111 42.5 -165.5t134.5 -54.5q52 0 94 16v135h-138l16 115h264z" />
    <glyph glyph-name="H" unicode="H" horiz-adv-x="720" 
d="M506 648h142v-648h-142v269h-293v-269h-142v648h142v-259h293v259z" />
    <glyph glyph-name="I" unicode="I" horiz-adv-x="285" 
d="M71 0v648h142v-648h-142z" />
    <glyph glyph-name="J" unicode="J" horiz-adv-x="476" 
d="M-4 54l69 94q27 -22 52.5 -32t56.5 -10q47 0 71.5 27t24.5 76v439h142v-442q0 -83 -34 -132t-84 -68.5t-104 -19.5q-116 0 -194 68z" />
    <glyph glyph-name="K" unicode="K" horiz-adv-x="645" 
d="M366 342l270 -334v-8h-173l-250 321v-321h-142v648h142v-300l249 300h160v-8z" />
    <glyph glyph-name="L" unicode="L" horiz-adv-x="521" 
d="M213 122h294v-122h-436v648h142v-526z" />
    <glyph glyph-name="M" unicode="M" horiz-adv-x="843" 
d="M772 648v-648h-140v403q-13 -37 -44 -97l-112 -226h-109l-114 226q-31 61 -44 97v-403h-138v648h146l148 -284q17 -33 32 -67.5t24 -60.5q14 46 56 128l149 284h146z" />
    <glyph glyph-name="N" unicode="N" horiz-adv-x="717" 
d="M646 648v-648h-154l-203 302q-26 40 -44 69.5t-35 66.5v-438h-139v648h153l221 -332q4 -6 18 -27.5t25.5 -40.5t19.5 -37v437h138z" />
    <glyph glyph-name="O" unicode="O" horiz-adv-x="726" 
d="M183.5 29q-72.5 43 -109.5 119.5t-37 177.5q0 112 45 187.5t119.5 112t165.5 36.5q104 0 176.5 -43t109 -119.5t36.5 -177.5q0 -112 -44.5 -187.5t-119 -112t-165.5 -36.5q-104 0 -176.5 43zM460.5 128.5q41.5 26.5 62 76t20.5 116.5q0 106 -45 165.5t-131 59.5
q-90 0 -137 -58.5t-47 -160.5q0 -106 45 -165.5t132 -59.5q59 0 100.5 26.5z" />
    <glyph glyph-name="P" unicode="P" horiz-adv-x="576" 
d="M441 621q57 -27 85 -73.5t28 -107.5q0 -65 -29 -115.5t-87.5 -79t-142.5 -28.5h-82v-217h-142v648h227q86 0 143 -27zM375 354.5q33 23.5 33 81.5q0 49 -29.5 73.5t-82.5 24.5h-83v-203h68q61 0 94 23.5z" />
    <glyph glyph-name="Q" unicode="Q" horiz-adv-x="726" 
d="M620 -171l-229 158q-10 -1 -31 -1q-104 0 -176.5 43t-109.5 119.5t-37 177.5q0 112 45 187.5t119.5 112t165.5 36.5q104 0 176.5 -43t109 -119.5t36.5 -177.5q0 -98 -42 -171.5t-112 -116.5l163 -83zM228 161.5q45 -59.5 132 -59.5q59 0 100.5 26.5t62 76t20.5 116.5
q0 106 -45 165.5t-131 59.5q-90 0 -137 -58.5t-47 -160.5q0 -106 45 -165.5z" />
    <glyph glyph-name="R" unicode="R" horiz-adv-x="601" 
d="M585 8v-8h-157l-161 236h-54v-236h-142v648h217q86 0 143.5 -26.5t85.5 -72t28 -103.5q0 -68 -34 -117.5t-100 -73.5zM213 343h61q60 0 92.5 23t32.5 76q0 46 -29 69t-81 23h-76v-191z" />
    <glyph glyph-name="S" unicode="S" horiz-adv-x="566" 
d="M19 64l64 99q93 -59 182 -59q57 0 89.5 18t32.5 54q0 22 -10.5 36.5t-37 28t-79.5 34.5l-23 9q-64 25 -103 48t-62 59t-23 91q0 61 35 101.5t90 59.5t117 19q56 0 115.5 -18.5t113.5 -54.5l-65 -98q-48 29 -85 42t-80 13q-48 0 -72.5 -16t-24.5 -43q0 -17 10 -30.5
t36 -27t75 -31.5l22 -8q64 -24 103.5 -45t66.5 -60t27 -101q0 -65 -34 -109.5t-92.5 -66.5t-132.5 -22q-150 0 -255 78z" />
    <glyph glyph-name="T" unicode="T" horiz-adv-x="577" 
d="M564 648v-121h-202v-527h-142v527h-207v121h551z" />
    <glyph glyph-name="U" unicode="U" horiz-adv-x="688" 
d="M177 22.5q-63 36.5 -91.5 99t-28.5 142.5v384h142v-367q0 -84 33 -130.5t115 -46.5q78 0 110 46.5t32 120.5v377h142v-381q0 -99 -38 -161.5t-103.5 -91t-151.5 -28.5q-98 0 -161 36.5z" />
    <glyph glyph-name="V" unicode="V" horiz-adv-x="656" 
d="M499 648h145v-8l-237 -640h-157l-238 640v8h150l169 -505z" />
    <glyph glyph-name="W" unicode="W" horiz-adv-x="925" 
d="M909 648v-8l-166 -640h-176l-80 355q-14 59 -25 143q-11 -84 -25 -143l-78 -355h-176l-167 640v8h145l83 -351q7 -28 15 -74t14 -91q16 103 30 165l82 351h161l80 -344q18 -81 32 -173q6 42 14.5 89t16.5 84l77 344h143z" />
    <glyph glyph-name="X" unicode="X" horiz-adv-x="626" 
d="M398 343l215 -343h-171l-130 238l-143 -238h-157l215 331l-205 317h169l125 -213l129 213h156z" />
    <glyph glyph-name="Y" unicode="Y" horiz-adv-x="636" 
d="M624 648v-8l-236 -370v-270h-142v266l-234 374v8h160l146 -250l152 250h154z" />
    <glyph glyph-name="Z" unicode="Z" horiz-adv-x="581" 
d="M544 648v-68l-319 -459h306v-121h-504v68l322 459h-303l15 121h483z" />
    <glyph glyph-name="bracketleft" unicode="[" horiz-adv-x="360" 
d="M67 -126v869h277v-115h-142v-639h142v-115h-277z" />
    <glyph glyph-name="backslash" unicode="\" horiz-adv-x="530" 
d="M371 -146l-334 886l121 39l335 -885z" />
    <glyph glyph-name="bracketright" unicode="]" horiz-adv-x="360" 
d="M16 -126v115h142v639h-142v115h277v-869h-277z" />
    <glyph glyph-name="asciicircum" unicode="^" horiz-adv-x="540" 
d="M495 327h-148l-82 191l-80 -191h-140l161 321h128z" />
    <glyph glyph-name="underscore" unicode="_" horiz-adv-x="540" 
d="M35 -171v111h470v-111h-470z" />
    <glyph glyph-name="grave" unicode="`" horiz-adv-x="326" 
d="M246 489l-202 93l68 108l179 -138z" />
    <glyph glyph-name="a" unicode="a" horiz-adv-x="495" 
d="M395.5 430.5q44.5 -34.5 44.5 -113.5v-317h-116l-11 35q-37 -27 -73.5 -38t-76.5 -11q-42 0 -74 16t-49.5 44.5t-17.5 65.5q0 79 78 120.5t204 46.5v11q0 28 -5.5 44t-19.5 23.5t-39 7.5q-63 0 -143 -51l-52 82q54 35 105.5 52t112.5 17q88 0 132.5 -34.5zM176 95.5
q13 -11.5 38 -11.5q41 0 90 27v87q-73 -4 -107 -23t-34 -46q0 -22 13 -33.5z" />
    <glyph glyph-name="b" unicode="b" horiz-adv-x="545" 
d="M469 407q44 -58 44 -175q0 -90 -37.5 -145t-96.5 -78t-129 -23q-36 0 -87 6t-103 20v676l137 13v-277q68 41 137 41q91 0 135 -58zM338.5 122.5q34.5 36.5 34.5 111.5q0 48 -8 76t-26.5 40.5t-50.5 12.5q-39 0 -91 -27v-246q20 -4 46 -4q61 0 95.5 36.5z" />
    <glyph glyph-name="c" unicode="c" horiz-adv-x="443" 
d="M95 38q-63 52 -63 177q0 85 34.5 141.5t88.5 82.5t113 26q42 0 76.5 -9.5t77.5 -32.5l-47 -89q-32 16 -54 22t-44 6q-47 0 -75.5 -36.5t-28.5 -109.5q0 -69 28.5 -95.5t74.5 -26.5q28 0 52.5 9t54.5 26l48 -87q-87 -56 -175 -56q-98 0 -161 52z" />
    <glyph glyph-name="d" unicode="d" horiz-adv-x="542" 
d="M482 701v-701h-116l-10 31q-66 -45 -136 -45q-93 0 -140.5 58.5t-47.5 170.5q0 88 34 144t87.5 81t113.5 25q37 0 79 -11v234zM193 119q21 -31 63 -31q23 0 45 7t45 21v246q-31 7 -58 7q-53 0 -84.5 -39.5t-31.5 -113.5q0 -66 21 -97z" />
    <glyph glyph-name="e" unicode="e" horiz-adv-x="492" 
d="M456 196h-288q6 -56 37 -82.5t74 -26.5q32 0 62 9t64 29l46 -82q-36 -27 -83 -42t-102 -15q-66 0 -118.5 24t-84 76.5t-31.5 135.5q0 76 26.5 131t77 83.5t119.5 28.5q66 0 112.5 -26t69.5 -71t23 -102q0 -20 -4 -70zM201.5 351.5q-21.5 -21.5 -29.5 -67.5h159v3
q0 46 -20 66t-53 20q-35 0 -56.5 -21.5z" />
    <glyph glyph-name="f" unicode="f" horiz-adv-x="339" 
d="M232.5 564q-16.5 -19 -16.5 -54v-60h116l-14 -107h-102v-343h-136v343h-66v107h66v57q0 54 21 97t61.5 67.5t98.5 24.5q34 0 60 -5t53 -16l-33 -106q-18 8 -32.5 11t-31.5 3q-28 0 -44.5 -19z" />
    <glyph glyph-name="g" unicode="g" horiz-adv-x="528" 
d="M429.5 74q40.5 -13 63 -39.5t22.5 -70.5q0 -50 -31.5 -87t-90 -57t-137.5 -20q-102 0 -168 31.5t-66 96.5q0 37 19 62.5t51 43.5q-27 22 -27 54q0 20 12.5 39t41.5 39q-41 21 -61.5 55.5t-20.5 77.5q0 57 31 94t82 54.5t112 17.5q35 0 58 -5l158 67l39 -105l-94 -22
q51 -39 51 -105q0 -55 -31 -89.5t-81 -50.5t-109 -16q-27 0 -51 3q-6 -10 -6 -17q0 -8 5.5 -13t20 -8.5t41.5 -5.5l66 -6q60 -5 100.5 -18zM174 300q0 -34 21.5 -49.5t63.5 -15.5t60.5 16.5t18.5 48.5q0 33 -21 50.5t-61 17.5q-82 0 -82 -68zM338.5 -92q28.5 13 28.5 36
q0 14 -8.5 22t-29 13t-58.5 9l-58 5q-15 1 -43 7q-9 -14 -14 -28t-5 -25q0 -26 23 -39t84 -13q52 0 80.5 13z" />
    <glyph glyph-name="h" unicode="h" horiz-adv-x="541" 
d="M451 431q35 -34 35 -100v-331h-136v290q0 28 -5.5 43.5t-18.5 22.5t-37 7q-43 0 -93 -29v-334h-136v688l136 13v-279q70 43 151 43q69 0 104 -34z" />
    <glyph glyph-name="i" unicode="i" horiz-adv-x="256" 
d="M83 528.5q-20 11.5 -32 30.5t-12 42t12 42.5t32 31t43 11.5q24 0 44.5 -11.5t32.5 -31t12 -42.5t-12 -42t-32.5 -30.5t-44.5 -11.5q-23 0 -43 11.5zM60 0v447l136 13v-460h-136z" />
    <glyph glyph-name="j" unicode="j" horiz-adv-x="256" 
d="M84 528.5q-20 11.5 -32 30.5t-12 42t12 42.5t32 31t43 11.5q24 0 44.5 -11.5t32.5 -31t12 -42.5t-12 -42t-32.5 -30.5t-44.5 -11.5q-23 0 -43 11.5zM-17 -194.5q-28 5.5 -52 15.5l29 91q30 -9 50 -9q50 0 50 56v491l136 13v-495q0 -85 -43.5 -126.5t-116.5 -41.5
q-25 0 -53 5.5z" />
    <glyph glyph-name="k" unicode="k" horiz-adv-x="516" 
d="M338 244l174 -236v-8h-159l-157 224v-224h-136v688l136 13v-453l163 202h144v-7z" />
    <glyph glyph-name="l" unicode="l" horiz-adv-x="256" 
d="M60 0v688l136 13v-701h-136z" />
    <glyph glyph-name="m" unicode="m" horiz-adv-x="796" 
d="M707.5 430.5q33.5 -34.5 33.5 -99.5v-331h-136v290q0 40 -11.5 56.5t-38.5 16.5q-36 0 -86 -29v-3v-331h-136v290q0 40 -11.5 56.5t-38.5 16.5q-39 0 -87 -29v-334h-136v447l136 13v-39q69 44 143 44q76 0 109 -50q40 24 80 37t83 13q63 0 96.5 -34.5z" />
    <glyph glyph-name="n" unicode="n" horiz-adv-x="542" 
d="M452 430.5q35 -34.5 35 -100.5v-330h-136v290q0 28 -5.5 43.5t-18.5 22.5t-37 7q-40 0 -94 -32v-331h-136v447l136 13v-44q37 23 74.5 36t77.5 13q69 0 104 -34.5z" />
    <glyph glyph-name="o" unicode="o" horiz-adv-x="542" 
d="M136.5 18q-52.5 32 -78.5 86.5t-26 121.5q0 86 33.5 139t88.5 76.5t123 23.5q76 0 128.5 -30.5t78.5 -84.5t26 -125q0 -83 -32.5 -136.5t-88 -78t-125.5 -24.5q-75 0 -127.5 32zM347 124.5q22 37.5 22 101.5q0 68 -23.5 103t-72.5 35q-53 0 -77 -34.5t-24 -103.5
q0 -65 24.5 -102t74.5 -37q54 0 76 37.5z" />
    <glyph glyph-name="p" unicode="p" horiz-adv-x="545" 
d="M468.5 407q44.5 -58 44.5 -172q0 -88 -35 -143.5t-89.5 -80.5t-116.5 -25q-37 0 -76 11v-183h-136v633l136 13v-37q69 42 136 42q92 0 136.5 -58zM340.5 122.5q32.5 37.5 32.5 112.5q0 49 -8.5 76.5t-27.5 39.5t-52 12q-40 0 -89 -28v-245q28 -5 53 -5q59 0 91.5 37.5z
" />
    <glyph glyph-name="q" unicode="q" horiz-adv-x="542" 
d="M376 457.5q43 -6.5 106 -27.5v-616h-136v210q-60 -38 -128 -38q-93 0 -139.5 59t-46.5 169q0 91 38.5 147t96.5 79.5t122 23.5q44 0 87 -6.5zM299 95q22 7 47 21v246q-28 6 -53 6q-55 0 -88 -38.5t-33 -115.5q0 -63 20 -94.5t62 -31.5q23 0 45 7z" />
    <glyph glyph-name="r" unicode="r" horiz-adv-x="385" 
d="M374 456l-20 -137q-16 6 -29 9t-30 3q-26 0 -50.5 -12.5t-48.5 -44.5v-274h-136v447l136 13v-63q50 68 124 68q29 0 54 -9z" />
    <glyph glyph-name="s" unicode="s" horiz-adv-x="437" 
d="M105.5 1.5q-50.5 15.5 -94.5 46.5l57 87q37 -27 75 -38.5t73 -11.5q33 0 48.5 10t15.5 27q0 11 -6 19.5t-24.5 17t-54.5 18.5l-29 8q-72 20 -103.5 52t-31.5 87q0 42 23 74t65 49.5t96 17.5q102 0 185 -49l-52 -87q-41 21 -69 29t-60 8q-25 0 -37.5 -9t-12.5 -23
q0 -10 5 -16.5t18.5 -12t42.5 -13.5l33 -9q77 -20 112.5 -56t35.5 -91q0 -43 -21.5 -77t-66 -53.5t-108.5 -19.5t-114.5 15.5z" />
    <glyph glyph-name="t" unicode="t" horiz-adv-x="370" 
d="M362 19q-59 -33 -132 -33q-37 0 -68.5 14.5t-51.5 46.5t-20 81v215h-82v107h82v101l136 19v-120h125l-14 -107h-111v-194q0 -30 10.5 -42t29.5 -12q14 0 27 3.5t32 11.5z" />
    <glyph glyph-name="u" unicode="u" horiz-adv-x="540" 
d="M480 460v-460h-116l-11 36q-77 -50 -158 -50q-67 0 -103.5 37t-36.5 102v322l136 13v-295q0 -40 13 -57.5t47 -17.5q36 0 93 31v326z" />
    <glyph glyph-name="v" unicode="v" horiz-adv-x="476" 
d="M475 450v-7l-166 -443h-137l-171 443v7h144l77 -239q14 -46 21 -79q2 8 7 32t11 47l64 239h150z" />
    <glyph glyph-name="w" unicode="w" horiz-adv-x="687" 
d="M683 450v-7l-129 -443h-126l-63 219q-14 51 -19 82q-4 -36 -17 -82l-59 -221h-130l-136 445v7h147l48 -211q9 -42 13 -83q8 45 17 82l55 212h130l56 -206q11 -47 18 -86q4 42 13 86l41 206h141z" />
    <glyph glyph-name="x" unicode="x" horiz-adv-x="501" 
d="M339 235l152 -227v-8h-160l-82 146l-92 -146h-146v8l156 224l-145 211v7h158l78 -132l78 132h141v-7z" />
    <glyph glyph-name="y" unicode="y" horiz-adv-x="472" 
d="M472 450v-7l-137 -426q-25 -78 -56.5 -125t-75 -69.5t-105.5 -22.5q-54 0 -100 18l34 95q27 -10 56 -10q24 0 43 6.5t37 28t34 62.5h-36l-168 443v7h142l80 -241q9 -27 22 -81q9 40 21 79l68 243h141z" />
    <glyph glyph-name="z" unicode="z" horiz-adv-x="444" 
d="M420 450v-60l-210 -277h207v-113h-399v62l212 275h-197l15 113h372z" />
    <glyph glyph-name="braceleft" unicode="{" horiz-adv-x="360" 
d="M163.5 -86q-56.5 39 -56.5 116q0 23 7 74q6 56 6 67q0 33 -8 50.5t-26 24t-52 7.5v110q34 1 52 7.5t26 24t8 50.5q0 11 -6 67q-7 51 -7 74q0 77 56.5 116t160.5 49l22 -125q-40 2 -63.5 -3.5t-34 -18.5t-10.5 -35q0 -15 5 -57q1 -11 4 -40t3 -43q0 -36 -14 -62.5
t-37.5 -41t-50.5 -17.5q27 -3 50.5 -17.5t37.5 -41t14 -62.5q0 -14 -3 -43t-4 -40q-5 -42 -5 -57q0 -22 10 -35.5t33.5 -22t64.5 -14.5l-22 -110q-104 10 -160.5 49z" />
    <glyph glyph-name="bar" unicode="|" horiz-adv-x="270" 
d="M68 -186v941h134v-941h-134z" />
    <glyph glyph-name="braceright" unicode="}" horiz-adv-x="360" 
d="M14 -25q41 6 64.5 14.5t33.5 22t10 35.5q0 15 -5 57q-1 11 -4 40t-3 43q0 36 14 62.5t37.5 41t50.5 17.5q-27 3 -50.5 17.5t-37.5 41t-14 62.5q0 14 3 43t4 40q5 42 5 57q0 22 -10.5 35t-34 18.5t-63.5 3.5l22 125q104 -10 160.5 -49t56.5 -116q0 -23 -7 -74
q-6 -56 -6 -67q0 -33 8 -50.5t26 -24t52 -7.5v-110q-34 -1 -52 -7.5t-26 -24t-8 -50.5q0 -11 6 -67q7 -51 7 -74q0 -77 -56.5 -116t-160.5 -49z" />
    <glyph glyph-name="asciitilde" unicode="~" horiz-adv-x="540" 
d="M287.5 190.5q-21.5 9.5 -46.5 26.5q-17 11 -28 16.5t-23 5.5q-23 0 -37 -11.5t-29 -41.5l-78 27q22 67 62.5 102t101.5 35q28 0 48.5 -9t47.5 -26q16 -11 28 -16.5t24 -5.5q18 0 31 10.5t27 41.5l78 -27q-22 -67 -61 -102t-95 -35q-29 0 -50.5 9.5z" />
    <glyph glyph-name="uni00A0" unicode="&#xa0;" horiz-adv-x="225" 
 />
    <glyph glyph-name="exclamdown" unicode="&#xa1;" horiz-adv-x="229" 
d="M74.5 317.5q-18.5 10.5 -29.5 28.5t-11 39q0 22 11 40.5t29.5 29t39.5 10.5q22 0 40.5 -10.5t29.5 -29t11 -40.5q0 -21 -11 -39t-29.5 -28.5t-40.5 -10.5q-21 0 -39.5 10.5zM39 -196l24 435l103 10l24 -445h-151z" />
    <glyph glyph-name="cent" unicode="&#xa2;" horiz-adv-x="540" 
d="M345 -10v-131h-108v133q-73 13 -117.5 66.5t-44.5 156.5q0 99 45.5 158.5t116.5 80.5v130h108v-121q30 -3 57.5 -12.5t62.5 -27.5l-47 -89q-32 16 -54 22t-44 6q-47 0 -75.5 -36.5t-28.5 -109.5q0 -69 28.5 -95.5t74.5 -26.5q28 0 52.5 9t54.5 26l48 -87
q-67 -42 -129 -52z" />
    <glyph glyph-name="sterling" unicode="&#xa3;" horiz-adv-x="540" 
d="M240 113h251v-113h-441v113h61q14 22 21 49t7 64q0 25 -5 53h-78v96h49q-12 32 -18 58t-6 55q1 50 27.5 89.5t74.5 62t111 22.5q110 0 201 -84l-76 -84q-32 28 -60.5 42t-61.5 14t-52.5 -20t-19.5 -55q0 -23 4.5 -43.5t15.5 -56.5h170v-96h-146q3 -22 3 -47
q0 -70 -32 -119z" />
    <glyph glyph-name="currency" unicode="&#xa4;" horiz-adv-x="540" 
d="M449 178l70 -70l-69 -68l-69 71q-48 -27 -111 -27q-64 0 -112 27l-69 -69l-69 68l70 69q-26 44 -26 105t26 105l-71 70l69 68l70 -70q48 27 112 27t112 -27l69 69l69 -68l-70 -69q26 -44 26 -105q0 -60 -27 -106zM198.5 214.5q23.5 -24.5 71.5 -24.5q46 0 70.5 25
t24.5 69q0 45 -23.5 69.5t-71.5 24.5q-46 0 -70.5 -25t-24.5 -69q0 -45 23.5 -69.5z" />
    <glyph glyph-name="yen" unicode="&#xa5;" horiz-adv-x="540" 
d="M538 648l-182 -317h119v-84h-137v-54h137v-84h-137v-109h-138v109h-135v84h135v54h-135v84h115l-178 317h159l109 -229l113 229h155z" />
    <glyph glyph-name="brokenbar" unicode="&#xa6;" horiz-adv-x="270" 
d="M68 400v355h134v-355h-134zM68 -186v355h134v-355h-134z" />
    <glyph glyph-name="section" unicode="&#xa7;" horiz-adv-x="540" 
d="M441 132q0 -47 -25.5 -80t-67.5 -49.5t-92 -16.5q-47 0 -86.5 8.5t-83.5 27.5l43 92q38 -17 64.5 -23t59.5 -6q26 0 38 8t12 21q0 16 -9.5 26t-28.5 18t-61 23q-40 14 -65 25.5t-45.5 36.5t-20.5 64q0 32 20.5 62.5t65.5 50.5q-25 18 -39.5 43t-14.5 61q0 44 25 75t66 47
t87 16t84 -9t77 -28l-46 -93q-40 18 -63 25t-48 7t-38 -9.5t-13 -24.5q0 -14 9.5 -23.5t27.5 -17t61 -22.5q41 -14 65.5 -25.5t45 -36t20.5 -63.5q0 -34 -17.5 -62t-59.5 -55q53 -35 53 -93zM203.5 308.5q8.5 -9.5 25.5 -17.5t52 -21l27 -9q18 13 26.5 26.5t8.5 28.5
q0 20 -20 32.5t-66 29.5q-6 3 -12 4.5t-11 3.5q-22 -15 -30.5 -27.5t-8.5 -26.5t8.5 -23.5z" />
    <glyph glyph-name="dieresis" unicode="&#xa8;" horiz-adv-x="421" 
d="M76.5 524.5q-16.5 9.5 -26.5 26t-10 35.5t10 35.5t26.5 26t35.5 9.5q20 0 37 -9.5t26.5 -26t9.5 -35.5t-9.5 -35.5t-26.5 -26t-37 -9.5q-19 0 -35.5 9.5zM271.5 524.5q-16.5 9.5 -26 26t-9.5 35.5t9.5 35.5t26 26t36.5 9.5t36.5 -9.5t26.5 -26t10 -35.5t-10 -35.5
t-26.5 -26t-36.5 -9.5t-36.5 9.5z" />
    <glyph glyph-name="copyright" unicode="&#xa9;" horiz-adv-x="749" 
d="M205.5 32.5q-77.5 44.5 -123 121t-45.5 169.5t45.5 170t123 122t169.5 45t169 -45t122 -122t45 -170t-45 -169.5t-122 -121t-169 -44.5t-169.5 44.5zM502.5 99.5q57.5 34.5 90.5 93.5t33 130t-33 130.5t-90.5 94.5t-127.5 35q-71 0 -129 -35t-91 -94.5t-33 -130.5
t33 -130t91 -93.5t129 -34.5q70 0 127.5 34.5zM277.5 155.5q-42.5 25.5 -63.5 70t-21 100.5q0 67 27.5 110.5t71 63t91.5 19.5q34 0 62.5 -8t65.5 -29l-42 -70q-25 13 -42.5 17.5t-37.5 4.5q-45 0 -66 -31t-21 -76q0 -51 19 -81t67 -30q23 0 41.5 5t41.5 18l38 -73
q-36 -21 -64.5 -28.5t-61.5 -7.5q-63 0 -105.5 25.5z" />
    <glyph glyph-name="ordfeminine" unicode="&#xaa;" horiz-adv-x="402" 
d="M325.5 632q38.5 -30 38.5 -92v-258h-92l-10 27q-30 -21 -59.5 -30t-63.5 -9t-60.5 13.5t-41 38t-14.5 57.5q0 43 30 73t81.5 46t117.5 19v14q0 26 -11.5 37.5t-40.5 11.5q-25 0 -56.5 -11t-62.5 -31l-44 65q86 59 181 59q69 0 107.5 -30zM150 364.5q12 -7.5 31 -7.5
q17 0 33 4t38 15v67q-61 -3 -87.5 -18t-26.5 -38q0 -15 12 -22.5z" />
    <glyph glyph-name="guillemotleft" unicode="&#xab;" horiz-adv-x="533" 
d="M193 51l-157 167v100l157 168l71 -53l-108 -165l108 -164zM406 51l-157 167v100l157 168l71 -53l-108 -165l108 -164z" />
    <glyph glyph-name="logicalnot" unicode="&#xac;" horiz-adv-x="540" 
d="M356 111v150h-296v111h420v-261h-124z" />
    <glyph glyph-name="uni00AD" unicode="&#xad;" horiz-adv-x="380" 
d="M42 210v117h296v-117h-296z" />
    <glyph glyph-name="registered" unicode="&#xae;" horiz-adv-x="566" 
d="M407 629.5q56 -32.5 89 -89t33 -124.5q0 -67 -33 -123t-89 -88.5t-123 -32.5q-68 0 -124.5 32.5t-89.5 88.5t-33 123q0 68 33 124.5t89.5 89t124.5 32.5q67 0 123 -32.5zM377 253q42 25 66 68.5t24 94.5q0 52 -24 95.5t-66 68.5t-93 25q-52 0 -94.5 -25t-66.5 -68.5
t-24 -95.5q0 -51 24 -94.5t66.5 -68.5t94.5 -25q51 0 93 25zM346 383l56 -96h-81l-46 85h-18v-85h-74v264h99q37 0 62.5 -12.5t38 -33t12.5 -44.5q0 -57 -49 -78zM257 425h21q41 0 41 32q0 12 -8 21.5t-25 9.5h-29v-63z" />
    <glyph glyph-name="macron" unicode="&#xaf;" horiz-adv-x="366" 
d="M40 530v103h286v-103h-286z" />
    <glyph glyph-name="degree" unicode="&#xb0;" horiz-adv-x="435" 
d="M125.5 343q-40.5 19 -64.5 57t-24 93t24.5 92.5t65 56t90.5 18.5q52 0 92.5 -18.5t64 -56.5t23.5 -94q0 -55 -24 -92.5t-65 -56t-92 -18.5q-50 0 -90.5 19zM266 436q18 18 18 56t-17.5 56.5t-49.5 18.5q-31 0 -48.5 -18t-17.5 -56t17 -56.5t48 -18.5q32 0 50 18z" />
    <glyph glyph-name="plusminus" unicode="&#xb1;" horiz-adv-x="540" 
d="M209 149v120h-149v111h149v119h123v-119h148v-111h-148v-120h-123zM60 0v110h420v-110h-420z" />
    <glyph glyph-name="uni00B2" unicode="&#xb2;" horiz-adv-x="360" 
d="M322.5 534q-9.5 -24 -38 -60t-85.5 -92h126v-94h-294v52q79 78 117 120t50 62.5t12 37.5q0 19 -12 28.5t-32 9.5q-18 0 -36 -7t-40 -24l-59 69q29 29 70 45t83 16q41 0 74.5 -12.5t53.5 -38t20 -62.5q0 -26 -9.5 -50z" />
    <glyph glyph-name="uni00B3" unicode="&#xb3;" horiz-adv-x="358" 
d="M334 409q0 -35 -16.5 -64.5t-55.5 -48t-103 -18.5q-41 0 -77 8.5t-57 19.5l38 82q37 -17 89 -17q66 0 66 38q0 20 -17.5 31t-67.5 11h-30l7 81h59q24 12 32 22.5t8 23.5q0 12 -10.5 20.5t-30.5 8.5t-43 -8.5t-42 -22.5l-57 63q62 58 148 58q73 0 111.5 -28.5t38.5 -77.5
q0 -26 -17.5 -47.5t-48.5 -35.5q76 -26 76 -99z" />
    <glyph glyph-name="acute" unicode="&#xb4;" horiz-adv-x="326" 
d="M84 489l-44 63l179 138l67 -108z" />
    <glyph glyph-name="mu" unicode="&#xb5;" horiz-adv-x="545" 
d="M485 460v-460h-116l-10 34q-62 -43 -119 -43q-30 0 -58 13q14 -42 14 -86v-104h-136v633l136 13v-295q0 -40 13 -57.5t47 -17.5q36 0 93 31v326z" />
    <glyph glyph-name="paragraph" unicode="&#xb6;" horiz-adv-x="600" 
d="M344 -172.5q-51 19.5 -76 57.5t-25 98v257q-94 2 -144 58.5t-50 162.5q0 103 54 157.5t154 54.5h280v-673h-109v572h-72v-573q0 -30 10 -48t37.5 -29t82.5 -17l-10 -103q-81 6 -132 25.5z" />
    <glyph glyph-name="periodcentered" unicode="&#xb7;" horiz-adv-x="206" 
d="M62.5 218q-18.5 11 -29.5 29t-11 40q0 21 11 39t29.5 29t40.5 11q21 0 39.5 -11t30 -29t11.5 -39q0 -22 -11 -40t-30 -29t-40 -11q-22 0 -40.5 11z" />
    <glyph glyph-name="cedilla" unicode="&#xb8;" horiz-adv-x="332" 
d="M93 -230.5q-30 7.5 -53 20.5l28 74q17 -7 35.5 -11.5t32.5 -4.5q20 0 30 6t10 20q0 11 -8 16.5t-26.5 8t-54.5 3.5l13 108l91 -1v-48q50 -5 75.5 -28t25.5 -65q0 -53 -37.5 -79.5t-99.5 -26.5q-32 0 -62 7.5z" />
    <glyph glyph-name="uni00B9" unicode="&#xb9;" horiz-adv-x="358" 
d="M143 688h113v-400h-113v283l-74 -25l-45 65z" />
    <glyph glyph-name="ordmasculine" unicode="&#xba;" horiz-adv-x="436" 
d="M109.5 296.5q-41.5 26.5 -62 71.5t-20.5 99q0 67 26.5 110.5t71 64t99.5 20.5q60 0 102 -26t63 -70.5t21 -99.5q0 -66 -27.5 -110t-72.5 -65t-99 -21q-60 0 -101.5 26.5zM277 385.5q17 29.5 17 81.5q0 50 -18 79.5t-56 29.5q-40 0 -58.5 -29.5t-18.5 -79.5q0 -51 18 -81
t57 -30q42 0 59 29.5z" />
    <glyph glyph-name="guillemotright" unicode="&#xbb;" horiz-adv-x="533" 
d="M340 51l-71 53l108 164l-108 165l71 53l157 -168v-100zM127 51l-71 53l108 164l-108 165l71 53l157 -168v-100z" />
    <glyph glyph-name="onequarter" unicode="&#xbc;" horiz-adv-x="876" 
d="M143 617h113v-400h-113v283l-74 -25l-45 65zM273 -95l-94 49l473 791l94 -50zM869 174v-91h-45v-83h-113v83h-188v49l115 268h126l-108 -226h55l22 74h91v-74h45z" />
    <glyph glyph-name="onehalf" unicode="&#xbd;" horiz-adv-x="917" 
d="M143 617h113v-400h-113v283l-74 -25l-45 65zM273 -95l-94 49l473 791l94 -50zM879.5 246q-9.5 -24 -38 -60t-85.5 -92h126v-94h-294v52q79 78 117 120t50 62.5t12 37.5q0 19 -12 28.5t-32 9.5q-18 0 -36 -7t-40 -24l-59 69q29 29 70 45t83 16q41 0 74.5 -12.5t53.5 -38
t20 -62.5q0 -26 -9.5 -50z" />
    <glyph glyph-name="threequarters" unicode="&#xbe;" horiz-adv-x="896" 
d="M334 338q0 -35 -16.5 -64.5t-55.5 -48t-103 -18.5q-41 0 -77 8.5t-57 19.5l38 82q37 -17 89 -17q66 0 66 38q0 20 -17.5 31t-67.5 11h-30l7 81h59q24 12 32 22.5t8 23.5q0 12 -10.5 20.5t-30.5 8.5t-43 -8.5t-42 -22.5l-57 63q62 58 148 58q73 0 111.5 -28.5t38.5 -77.5
q0 -26 -17.5 -47.5t-48.5 -35.5q76 -26 76 -99zM293 -95l-94 49l473 791l94 -50zM889 174v-91h-45v-83h-113v83h-188v49l115 268h126l-108 -226h55l22 74h91v-74h45z" />
    <glyph glyph-name="questiondown" unicode="&#xbf;" horiz-adv-x="472" 
d="M215 317.5q-19 10.5 -30 28.5t-11 39q0 22 11 40.5t30 29t40 10.5q22 0 40.5 -10.5t29.5 -29t11 -40.5q0 -21 -11 -39t-29.5 -28.5t-40.5 -10.5q-21 0 -40 10.5zM129.5 -191q-47.5 18 -75 55.5t-27.5 93.5q0 44 19 76.5t66 68.5q42 31 58 57t16 61v13l137 13v-39
q0 -48 -19.5 -84t-68.5 -76q-33 -26 -45.5 -44.5t-12.5 -39.5q0 -28 18.5 -43.5t57.5 -15.5q36 0 70.5 18.5t65.5 47.5l75 -84q-39 -42 -100.5 -69t-125.5 -27q-61 0 -108.5 18z" />
    <glyph glyph-name="Agrave" unicode="&#xc0;" horiz-adv-x="668" 
d="M422 648l233 -640v-8h-151l-52 155h-240l-51 -155h-149v8l233 640h177zM250 269h164l-83 247zM391 687l-202 93l68 108l179 -138z" />
    <glyph glyph-name="Aacute" unicode="&#xc1;" horiz-adv-x="668" 
d="M422 648l233 -640v-8h-151l-52 155h-240l-51 -155h-149v8l233 640h177zM250 269h164l-83 247zM276 694l-44 63l179 138l67 -108z" />
    <glyph glyph-name="Acircumflex" unicode="&#xc2;" horiz-adv-x="668" 
d="M422 648l233 -640v-8h-151l-52 155h-240l-51 -155h-149v8l233 640h177zM250 269h164l-83 247zM235 684l-56 55l106 108h98l106 -108l-54 -57l-100 66z" />
    <glyph glyph-name="Atilde" unicode="&#xc3;" horiz-adv-x="668" 
d="M422 648l233 -640v-8h-151l-52 155h-240l-51 -155h-149v8l233 640h177zM250 269h164l-83 247zM342.5 710q-17.5 8 -39.5 23q-10 9 -17.5 13t-15.5 4q-15 0 -26 -9.5t-24 -34.5l-65 24q19 60 51 92.5t76 32.5q26 0 44 -8.5t38 -22.5q2 -2 9.5 -7t13.5 -7.5t11 -2.5
q15 0 26 9t24 34l64 -23q-18 -60 -50 -92.5t-76 -32.5q-26 0 -43.5 8z" />
    <glyph glyph-name="Adieresis" unicode="&#xc4;" horiz-adv-x="668" 
d="M422 648l233 -640v-8h-151l-52 155h-240l-51 -155h-149v8l233 640h177zM250 269h164l-83 247zM200.5 722.5q-16.5 9.5 -26.5 25.5t-10 35t10 35.5t26.5 26t35.5 9.5q20 0 37 -9.5t26.5 -26t9.5 -35.5t-9.5 -35t-26.5 -25.5t-37 -9.5q-19 0 -35.5 9.5zM395.5 722.5
q-16.5 9.5 -26 25.5t-9.5 35t9.5 35.5t26 26t36.5 9.5t36.5 -9.5t26.5 -26t10 -35.5t-10 -35t-26.5 -25.5t-36.5 -9.5t-36.5 9.5z" />
    <glyph glyph-name="Aring" unicode="&#xc5;" horiz-adv-x="668" 
d="M422 648l233 -640v-8h-151l-52 155h-240l-51 -155h-149v8l233 640h177zM250 269h164l-83 247zM269.5 695.5q-28.5 12.5 -45.5 38t-17 62.5q0 38 17 64t45.5 38.5t64.5 12.5q35 0 63.5 -12.5t45.5 -38.5t17 -64q0 -37 -17 -62.5t-45.5 -38t-63.5 -12.5q-36 0 -64.5 12.5z
M362 765.5q11 9.5 11 30.5q0 23 -11 32t-28 9q-40 0 -40 -41q0 -21 11.5 -30.5t28.5 -9.5t28 9.5z" />
    <glyph glyph-name="AE" unicode="&#xc6;" horiz-adv-x="906" 
d="M621 116h263v-116h-380l-40 155h-241l-63 -155h-148v8l275 640h539v-115h-328l43 -146h255l-16 -114h-205zM269 269h165l-64 247z" />
    <glyph glyph-name="Ccedilla" unicode="&#xc7;" horiz-adv-x="578" 
d="M454.5 -67q25.5 -23 25.5 -65q0 -53 -37.5 -79.5t-99.5 -26.5q-32 0 -62 7.5t-53 20.5l28 74q17 -7 35.5 -11.5t32.5 -4.5q20 0 30 6t10 20q0 11 -8 16.5t-26.5 8t-54.5 3.5l11 88q-129 19 -189 106t-60 223q0 123 42 199.5t111.5 110t156.5 33.5q61 0 112 -14.5
t102 -44.5l-53 -105q-71 46 -154 46q-169 0 -169 -217q0 -108 47 -164t133 -56q44 0 77 11.5t69 32.5l55 -100q-47 -28 -92.5 -44t-94.5 -20v-26q50 -5 75.5 -28z" />
    <glyph glyph-name="Egrave" unicode="&#xc8;" horiz-adv-x="552" 
d="M213 116h296v-116h-438v648h433v-115h-291v-146h251l-16 -114h-235v-157zM353 687l-202 93l68 108l179 -138z" />
    <glyph glyph-name="Eacute" unicode="&#xc9;" horiz-adv-x="552" 
d="M213 116h296v-116h-438v648h433v-115h-291v-146h251l-16 -114h-235v-157zM238 694l-44 63l179 138l67 -108z" />
    <glyph glyph-name="Ecircumflex" unicode="&#xca;" horiz-adv-x="552" 
d="M213 116h296v-116h-438v648h433v-115h-291v-146h251l-16 -114h-235v-157zM197 684l-56 55l106 108h98l106 -108l-54 -57l-100 66z" />
    <glyph glyph-name="Edieresis" unicode="&#xcb;" horiz-adv-x="552" 
d="M213 116h296v-116h-438v648h433v-115h-291v-146h251l-16 -114h-235v-157zM162.5 722.5q-16.5 9.5 -26.5 25.5t-10 35t10 35.5t26.5 26t35.5 9.5q20 0 37 -9.5t26.5 -26t9.5 -35.5t-9.5 -35t-26.5 -25.5t-37 -9.5q-19 0 -35.5 9.5zM357.5 722.5q-16.5 9.5 -26 25.5
t-9.5 35t9.5 35.5t26 26t36.5 9.5t36.5 -9.5t26.5 -26t10 -35.5t-10 -35t-26.5 -25.5t-36.5 -9.5t-36.5 9.5z" />
    <glyph glyph-name="Igrave" unicode="&#xcc;" horiz-adv-x="285" 
d="M71 0v648h142v-648h-142zM199 687l-202 93l68 108l179 -138z" />
    <glyph glyph-name="Iacute" unicode="&#xcd;" horiz-adv-x="285" 
d="M71 0v648h142v-648h-142zM84 694l-44 63l179 138l67 -108z" />
    <glyph glyph-name="Icircumflex" unicode="&#xce;" horiz-adv-x="285" 
d="M71 0v648h142v-648h-142zM43 684l-56 55l106 108h98l106 -108l-54 -57l-100 66z" />
    <glyph glyph-name="Idieresis" unicode="&#xcf;" horiz-adv-x="285" 
d="M71 0v648h142v-648h-142zM8.5 722.5q-16.5 9.5 -26.5 25.5t-10 35t10 35.5t26.5 26t35.5 9.5q20 0 37 -9.5t26.5 -26t9.5 -35.5t-9.5 -35t-26.5 -25.5t-37 -9.5q-19 0 -35.5 9.5zM203.5 722.5q-16.5 9.5 -26 25.5t-9.5 35t9.5 35.5t26 26t36.5 9.5t36.5 -9.5t26.5 -26
t10 -35.5t-10 -35t-26.5 -25.5t-36.5 -9.5t-36.5 9.5z" />
    <glyph glyph-name="Eth" unicode="&#xd0;" horiz-adv-x="679" 
d="M548 574.5q93 -73.5 93 -250.5q0 -108 -49 -181t-130.5 -108t-179.5 -35h-211v273h-44v104h44v271h216q168 0 261 -73.5zM388 138.5q49 16.5 74 60.5t25 125q0 75 -22.5 119t-66.5 63.5t-111 19.5h-74v-149h142v-104h-142v-151h44q82 0 131 16.5z" />
    <glyph glyph-name="Ntilde" unicode="&#xd1;" horiz-adv-x="717" 
d="M646 648v-648h-154l-203 302q-26 40 -44 69.5t-35 66.5v-438h-139v648h153l221 -332q4 -6 18 -27.5t25.5 -40.5t19.5 -37v437h138zM365.5 710q-17.5 8 -39.5 23q-10 9 -17.5 13t-15.5 4q-15 0 -26 -9.5t-24 -34.5l-65 24q19 60 51 92.5t76 32.5q26 0 44 -8.5t38 -22.5
q2 -2 9.5 -7t13.5 -7.5t11 -2.5q15 0 26 9t24 34l64 -23q-18 -60 -50 -92.5t-76 -32.5q-26 0 -43.5 8z" />
    <glyph glyph-name="Ograve" unicode="&#xd2;" horiz-adv-x="726" 
d="M183.5 29q-72.5 43 -109.5 119.5t-37 177.5q0 112 45 187.5t119.5 112t165.5 36.5q104 0 176.5 -43t109 -119.5t36.5 -177.5q0 -112 -44.5 -187.5t-119 -112t-165.5 -36.5q-104 0 -176.5 43zM460.5 128.5q41.5 26.5 62 76t20.5 116.5q0 106 -45 165.5t-131 59.5
q-90 0 -137 -58.5t-47 -160.5q0 -106 45 -165.5t132 -59.5q59 0 100.5 26.5zM420 687l-202 93l68 108l179 -138z" />
    <glyph glyph-name="Oacute" unicode="&#xd3;" horiz-adv-x="726" 
d="M183.5 29q-72.5 43 -109.5 119.5t-37 177.5q0 112 45 187.5t119.5 112t165.5 36.5q104 0 176.5 -43t109 -119.5t36.5 -177.5q0 -112 -44.5 -187.5t-119 -112t-165.5 -36.5q-104 0 -176.5 43zM460.5 128.5q41.5 26.5 62 76t20.5 116.5q0 106 -45 165.5t-131 59.5
q-90 0 -137 -58.5t-47 -160.5q0 -106 45 -165.5t132 -59.5q59 0 100.5 26.5zM305 694l-44 63l179 138l67 -108z" />
    <glyph glyph-name="Ocircumflex" unicode="&#xd4;" horiz-adv-x="726" 
d="M183.5 29q-72.5 43 -109.5 119.5t-37 177.5q0 112 45 187.5t119.5 112t165.5 36.5q104 0 176.5 -43t109 -119.5t36.5 -177.5q0 -112 -44.5 -187.5t-119 -112t-165.5 -36.5q-104 0 -176.5 43zM460.5 128.5q41.5 26.5 62 76t20.5 116.5q0 106 -45 165.5t-131 59.5
q-90 0 -137 -58.5t-47 -160.5q0 -106 45 -165.5t132 -59.5q59 0 100.5 26.5zM264 684l-56 55l106 108h98l106 -108l-54 -57l-100 66z" />
    <glyph glyph-name="Otilde" unicode="&#xd5;" horiz-adv-x="726" 
d="M183.5 29q-72.5 43 -109.5 119.5t-37 177.5q0 112 45 187.5t119.5 112t165.5 36.5q104 0 176.5 -43t109 -119.5t36.5 -177.5q0 -112 -44.5 -187.5t-119 -112t-165.5 -36.5q-104 0 -176.5 43zM460.5 128.5q41.5 26.5 62 76t20.5 116.5q0 106 -45 165.5t-131 59.5
q-90 0 -137 -58.5t-47 -160.5q0 -106 45 -165.5t132 -59.5q59 0 100.5 26.5zM371.5 710q-17.5 8 -39.5 23q-10 9 -17.5 13t-15.5 4q-15 0 -26 -9.5t-24 -34.5l-65 24q19 60 51 92.5t76 32.5q26 0 44 -8.5t38 -22.5q2 -2 9.5 -7t13.5 -7.5t11 -2.5q15 0 26 9t24 34l64 -23
q-18 -60 -50 -92.5t-76 -32.5q-26 0 -43.5 8z" />
    <glyph glyph-name="Odieresis" unicode="&#xd6;" horiz-adv-x="726" 
d="M183.5 29q-72.5 43 -109.5 119.5t-37 177.5q0 112 45 187.5t119.5 112t165.5 36.5q104 0 176.5 -43t109 -119.5t36.5 -177.5q0 -112 -44.5 -187.5t-119 -112t-165.5 -36.5q-104 0 -176.5 43zM460.5 128.5q41.5 26.5 62 76t20.5 116.5q0 106 -45 165.5t-131 59.5
q-90 0 -137 -58.5t-47 -160.5q0 -106 45 -165.5t132 -59.5q59 0 100.5 26.5zM229.5 722.5q-16.5 9.5 -26.5 25.5t-10 35t10 35.5t26.5 26t35.5 9.5q20 0 37 -9.5t26.5 -26t9.5 -35.5t-9.5 -35t-26.5 -25.5t-37 -9.5q-19 0 -35.5 9.5zM424.5 722.5q-16.5 9.5 -26 25.5
t-9.5 35t9.5 35.5t26 26t36.5 9.5t36.5 -9.5t26.5 -26t10 -35.5t-10 -35t-26.5 -25.5t-36.5 -9.5t-36.5 9.5z" />
    <glyph glyph-name="multiply" unicode="&#xd7;" horiz-adv-x="540" 
d="M478 384l-129 -129l129 -129l-79 -79l-129 129l-129 -129l-79 79l129 129l-129 129l79 79l129 -129l129 129z" />
    <glyph glyph-name="Oslash" unicode="&#xd8;" horiz-adv-x="726" 
d="M665.5 469q23.5 -66 23.5 -147q0 -112 -44.5 -187.5t-119 -112t-165.5 -36.5q-77 0 -136 24l-40 -62l-94 55l42 65q-47 45 -71 111t-24 147q0 112 45 187.5t119.5 112t165.5 36.5q77 0 140 -25l42 63l91 -54l-45 -66q47 -45 70.5 -111zM230 487.5q-47 -58.5 -47 -160.5
q0 -94 34 -150l229 352q-34 17 -79 17q-90 0 -137 -58.5zM460.5 128.5q41.5 26.5 62 76t20.5 116.5q0 91 -33 148l-228 -351q35 -16 78 -16q59 0 100.5 26.5z" />
    <glyph glyph-name="Ugrave" unicode="&#xd9;" horiz-adv-x="688" 
d="M177 22.5q-63 36.5 -91.5 99t-28.5 142.5v384h142v-367q0 -84 33 -130.5t115 -46.5q78 0 110 46.5t32 120.5v377h142v-381q0 -99 -38 -161.5t-103.5 -91t-151.5 -28.5q-98 0 -161 36.5zM401 687l-202 93l68 108l179 -138z" />
    <glyph glyph-name="Uacute" unicode="&#xda;" horiz-adv-x="688" 
d="M177 22.5q-63 36.5 -91.5 99t-28.5 142.5v384h142v-367q0 -84 33 -130.5t115 -46.5q78 0 110 46.5t32 120.5v377h142v-381q0 -99 -38 -161.5t-103.5 -91t-151.5 -28.5q-98 0 -161 36.5zM286 694l-44 63l179 138l67 -108z" />
    <glyph glyph-name="Ucircumflex" unicode="&#xdb;" horiz-adv-x="688" 
d="M177 22.5q-63 36.5 -91.5 99t-28.5 142.5v384h142v-367q0 -84 33 -130.5t115 -46.5q78 0 110 46.5t32 120.5v377h142v-381q0 -99 -38 -161.5t-103.5 -91t-151.5 -28.5q-98 0 -161 36.5zM245 684l-56 55l106 108h98l106 -108l-54 -57l-100 66z" />
    <glyph glyph-name="Udieresis" unicode="&#xdc;" horiz-adv-x="688" 
d="M177 22.5q-63 36.5 -91.5 99t-28.5 142.5v384h142v-367q0 -84 33 -130.5t115 -46.5q78 0 110 46.5t32 120.5v377h142v-381q0 -99 -38 -161.5t-103.5 -91t-151.5 -28.5q-98 0 -161 36.5zM210.5 722.5q-16.5 9.5 -26.5 25.5t-10 35t10 35.5t26.5 26t35.5 9.5q20 0 37 -9.5
t26.5 -26t9.5 -35.5t-9.5 -35t-26.5 -25.5t-37 -9.5q-19 0 -35.5 9.5zM405.5 722.5q-16.5 9.5 -26 25.5t-9.5 35t9.5 35.5t26 26t36.5 9.5t36.5 -9.5t26.5 -26t10 -35.5t-10 -35t-26.5 -25.5t-36.5 -9.5t-36.5 9.5z" />
    <glyph glyph-name="Yacute" unicode="&#xdd;" horiz-adv-x="636" 
d="M624 648v-8l-236 -370v-270h-142v266l-234 374v8h160l146 -250l152 250h154zM260 694l-44 63l179 138l67 -108z" />
    <glyph glyph-name="Thorn" unicode="&#xde;" horiz-adv-x="588" 
d="M441 517.5q57 -26.5 85 -73.5t28 -107q0 -66 -29 -116.5t-87.5 -79t-142.5 -28.5h-82v-113h-142v648h142v-104h85q86 0 143 -26.5zM375.5 251.5q32.5 23.5 32.5 80.5q0 50 -29.5 74t-82.5 24h-83v-202h68q62 0 94.5 23.5z" />
    <glyph glyph-name="germandbls" unicode="&#xdf;" horiz-adv-x="563" 
d="M496 284.5q35 -57.5 35 -117.5q0 -62 -25 -102.5t-67 -59.5t-96 -19q-65 0 -114 24l32 93q29 -13 62 -13q30 0 50 20t20 59q0 49 -34.5 92.5t-115.5 67.5v59q38 43 55.5 80.5t17.5 71.5q0 27 -14 43.5t-45 16.5q-27 0 -44 -16t-17 -46v-538h-136v515q0 60 27.5 101
t72.5 60.5t100 19.5q89 0 140.5 -36t51.5 -111q0 -46 -25.5 -84.5t-68.5 -75.5q103 -47 138 -104.5z" />
    <glyph glyph-name="agrave" unicode="&#xe0;" horiz-adv-x="495" 
d="M395.5 430.5q44.5 -34.5 44.5 -113.5v-317h-116l-11 35q-37 -27 -73.5 -38t-76.5 -11q-42 0 -74 16t-49.5 44.5t-17.5 65.5q0 79 78 120.5t204 46.5v11q0 28 -5.5 44t-19.5 23.5t-39 7.5q-63 0 -143 -51l-52 82q54 35 105.5 52t112.5 17q88 0 132.5 -34.5zM176 95.5
q13 -11.5 38 -11.5q41 0 90 27v87q-73 -4 -107 -23t-34 -46q0 -22 13 -33.5zM305 489l-202 93l68 108l178 -138z" />
    <glyph glyph-name="aacute" unicode="&#xe1;" horiz-adv-x="495" 
d="M395.5 430.5q44.5 -34.5 44.5 -113.5v-317h-116l-11 35q-37 -27 -73.5 -38t-76.5 -11q-42 0 -74 16t-49.5 44.5t-17.5 65.5q0 79 78 120.5t204 46.5v11q0 28 -5.5 44t-19.5 23.5t-39 7.5q-63 0 -143 -51l-52 82q54 35 105.5 52t112.5 17q88 0 132.5 -34.5zM176 95.5
q13 -11.5 38 -11.5q41 0 90 27v87q-73 -4 -107 -23t-34 -46q0 -22 13 -33.5zM190 489l-44 63l179 138l67 -108z" />
    <glyph glyph-name="acircumflex" unicode="&#xe2;" horiz-adv-x="495" 
d="M395.5 430.5q44.5 -34.5 44.5 -113.5v-317h-116l-11 35q-37 -27 -73.5 -38t-76.5 -11q-42 0 -74 16t-49.5 44.5t-17.5 65.5q0 79 78 120.5t204 46.5v11q0 28 -5.5 44t-19.5 23.5t-39 7.5q-63 0 -143 -51l-52 82q54 35 105.5 52t112.5 17q88 0 132.5 -34.5zM176 95.5
q13 -11.5 38 -11.5q41 0 90 27v87q-73 -4 -107 -23t-34 -46q0 -22 13 -33.5zM149 495l-56 55l106 107h98l106 -107l-54 -57l-100 65z" />
    <glyph glyph-name="atilde" unicode="&#xe3;" horiz-adv-x="495" 
d="M395.5 430.5q44.5 -34.5 44.5 -113.5v-317h-116l-11 35q-37 -27 -73.5 -38t-76.5 -11q-42 0 -74 16t-49.5 44.5t-17.5 65.5q0 79 78 120.5t204 46.5v11q0 28 -5.5 44t-19.5 23.5t-39 7.5q-63 0 -143 -51l-52 82q54 35 105.5 52t112.5 17q88 0 132.5 -34.5zM176 95.5
q13 -11.5 38 -11.5q41 0 90 27v87q-73 -4 -107 -23t-34 -46q0 -22 13 -33.5zM259.5 515q-17.5 8 -39.5 23q-10 9 -17.5 13t-15.5 4q-15 0 -26 -9.5t-24 -34.5l-65 24q19 60 51 92.5t76 32.5q26 0 44 -8.5t38 -22.5q2 -2 9.5 -7t13.5 -7.5t11 -2.5q15 0 26 9t24 34l64 -23
q-18 -60 -50 -92.5t-76 -32.5q-26 0 -43.5 8z" />
    <glyph glyph-name="adieresis" unicode="&#xe4;" horiz-adv-x="495" 
d="M395.5 430.5q44.5 -34.5 44.5 -113.5v-317h-116l-11 35q-37 -27 -73.5 -38t-76.5 -11q-42 0 -74 16t-49.5 44.5t-17.5 65.5q0 79 78 120.5t204 46.5v11q0 28 -5.5 44t-19.5 23.5t-39 7.5q-63 0 -143 -51l-52 82q54 35 105.5 52t112.5 17q88 0 132.5 -34.5zM176 95.5
q13 -11.5 38 -11.5q41 0 90 27v87q-73 -4 -107 -23t-34 -46q0 -22 13 -33.5zM114.5 524.5q-16.5 9.5 -26.5 26t-10 35.5t10 35.5t26.5 26t35.5 9.5q20 0 37 -9.5t26.5 -26t9.5 -35.5t-9.5 -35.5t-26.5 -26t-37 -9.5q-19 0 -35.5 9.5zM309.5 524.5q-16.5 9.5 -26 26
t-9.5 35.5t9.5 35.5t26 26t36.5 9.5t36.5 -9.5t26.5 -26t10 -35.5t-10 -35.5t-26.5 -26t-36.5 -9.5t-36.5 9.5z" />
    <glyph glyph-name="aring" unicode="&#xe5;" horiz-adv-x="495" 
d="M395.5 430.5q44.5 -34.5 44.5 -113.5v-317h-116l-11 35q-37 -27 -73.5 -38t-76.5 -11q-42 0 -74 16t-49.5 44.5t-17.5 65.5q0 79 78 120.5t204 46.5v11q0 28 -5.5 44t-19.5 23.5t-39 7.5q-63 0 -143 -51l-52 82q54 35 105.5 52t112.5 17q88 0 132.5 -34.5zM176 95.5
q13 -11.5 38 -11.5q41 0 90 27v87q-73 -4 -107 -23t-34 -46q0 -22 13 -33.5zM183.5 504.5q-28.5 12.5 -45.5 37.5t-17 62q0 38 17 64t45.5 38.5t64.5 12.5q35 0 63.5 -12.5t45.5 -38.5t17 -64q0 -37 -17 -62t-45.5 -37.5t-63.5 -12.5q-36 0 -64.5 12.5zM275.5 573.5
q11.5 9.5 11.5 30.5q0 23 -11 32t-28 9q-40 0 -40 -41q0 -21 11.5 -30.5t28.5 -9.5q16 0 27.5 9.5z" />
    <glyph glyph-name="ae" unicode="&#xe6;" horiz-adv-x="731" 
d="M695 199h-278q6 -61 35 -86.5t72 -25.5q30 0 59 9t62 29l45 -82q-35 -27 -80 -42t-99 -15q-52 0 -95 16.5t-72 51.5q-47 -37 -92 -52.5t-94 -15.5q-40 0 -71 16t-48 44.5t-17 65.5q0 54 35.5 90.5t96.5 55t140 21.5v11q0 29 -5.5 45.5t-18.5 23.5t-37 7q-31 0 -65 -13
t-73 -38l-50 81q103 69 209 69q48 0 77.5 -13t43.5 -40q23 26 54.5 39.5t73.5 13.5q63 0 107 -26t66.5 -71t22.5 -102q0 -36 -4 -67zM446.5 351q-20.5 -22 -27.5 -70h151v4q0 47 -18 67.5t-51 20.5q-34 0 -54.5 -22zM255.5 92q23.5 8 52.5 28q-12 38 -13 78
q-70 -4 -101.5 -22.5t-31.5 -46.5q0 -22 13 -33.5t36 -11.5q21 0 44.5 8z" />
    <glyph glyph-name="ccedilla" unicode="&#xe7;" horiz-adv-x="443" 
d="M358.5 -67q25.5 -23 25.5 -65q0 -53 -37.5 -79.5t-99.5 -26.5q-32 0 -62 7.5t-53 20.5l28 74q17 -7 35.5 -11.5t32.5 -4.5q20 0 30 6t10 20q0 11 -8 16.5t-26.5 8t-54.5 3.5l11 90q-72 15 -115 68t-43 155q0 85 34.5 141.5t88.5 82.5t113 26q42 0 76.5 -9.5t77.5 -32.5
l-47 -89q-32 16 -54 22t-44 6q-47 0 -75.5 -36.5t-28.5 -109.5q0 -69 28.5 -95.5t74.5 -26.5q28 0 52.5 9t54.5 26l48 -87q-74 -47 -148 -55v-26q50 -5 75.5 -28z" />
    <glyph glyph-name="egrave" unicode="&#xe8;" horiz-adv-x="492" 
d="M456 196h-288q6 -56 37 -82.5t74 -26.5q32 0 62 9t64 29l46 -82q-36 -27 -83 -42t-102 -15q-66 0 -118.5 24t-84 76.5t-31.5 135.5q0 76 26.5 131t77 83.5t119.5 28.5q66 0 112.5 -26t69.5 -71t23 -102q0 -20 -4 -70zM201.5 351.5q-21.5 -21.5 -29.5 -67.5h159v3
q0 46 -20 66t-53 20q-35 0 -56.5 -21.5zM312 489l-202 93l68 108l178 -138z" />
    <glyph glyph-name="eacute" unicode="&#xe9;" horiz-adv-x="492" 
d="M456 196h-288q6 -56 37 -82.5t74 -26.5q32 0 62 9t64 29l46 -82q-36 -27 -83 -42t-102 -15q-66 0 -118.5 24t-84 76.5t-31.5 135.5q0 76 26.5 131t77 83.5t119.5 28.5q66 0 112.5 -26t69.5 -71t23 -102q0 -20 -4 -70zM201.5 351.5q-21.5 -21.5 -29.5 -67.5h159v3
q0 46 -20 66t-53 20q-35 0 -56.5 -21.5zM197 489l-44 63l179 138l67 -108z" />
    <glyph glyph-name="ecircumflex" unicode="&#xea;" horiz-adv-x="492" 
d="M456 196h-288q6 -56 37 -82.5t74 -26.5q32 0 62 9t64 29l46 -82q-36 -27 -83 -42t-102 -15q-66 0 -118.5 24t-84 76.5t-31.5 135.5q0 76 26.5 131t77 83.5t119.5 28.5q66 0 112.5 -26t69.5 -71t23 -102q0 -20 -4 -70zM201.5 351.5q-21.5 -21.5 -29.5 -67.5h159v3
q0 46 -20 66t-53 20q-35 0 -56.5 -21.5zM156 495l-56 55l106 107h98l106 -107l-54 -57l-100 65z" />
    <glyph glyph-name="edieresis" unicode="&#xeb;" horiz-adv-x="492" 
d="M456 196h-288q6 -56 37 -82.5t74 -26.5q32 0 62 9t64 29l46 -82q-36 -27 -83 -42t-102 -15q-66 0 -118.5 24t-84 76.5t-31.5 135.5q0 76 26.5 131t77 83.5t119.5 28.5q66 0 112.5 -26t69.5 -71t23 -102q0 -20 -4 -70zM201.5 351.5q-21.5 -21.5 -29.5 -67.5h159v3
q0 46 -20 66t-53 20q-35 0 -56.5 -21.5zM121.5 524.5q-16.5 9.5 -26.5 26t-10 35.5t10 35.5t26.5 26t35.5 9.5q20 0 37 -9.5t26.5 -26t9.5 -35.5t-9.5 -35.5t-26.5 -26t-37 -9.5q-19 0 -35.5 9.5zM316.5 524.5q-16.5 9.5 -26 26t-9.5 35.5t9.5 35.5t26 26t36.5 9.5
t36.5 -9.5t26.5 -26t10 -35.5t-10 -35.5t-26.5 -26t-36.5 -9.5t-36.5 9.5z" />
    <glyph glyph-name="igrave" unicode="&#xec;" horiz-adv-x="256" 
d="M60 0v447l136 13v-460h-136zM184 489l-202 93l68 108l178 -138z" />
    <glyph glyph-name="iacute" unicode="&#xed;" horiz-adv-x="256" 
d="M60 0v447l136 13v-460h-136zM69 489l-44 63l179 138l67 -108z" />
    <glyph glyph-name="icircumflex" unicode="&#xee;" horiz-adv-x="256" 
d="M60 0v447l136 13v-460h-136zM28 495l-56 55l106 107h98l106 -107l-54 -57l-100 65z" />
    <glyph glyph-name="idieresis" unicode="&#xef;" horiz-adv-x="256" 
d="M60 0v447l136 13v-460h-136zM10 524q-16 9 -25.5 25t-9.5 35q0 20 9.5 36t25.5 25t34 9q19 0 35 -9t25.5 -25t9.5 -36t-9.5 -35.5t-25.5 -24.5t-35 -9q-18 0 -34 9zM175 524q-16 9 -25.5 25t-9.5 35q0 20 9.5 36t25.5 25t34 9t34.5 -9t26 -25t9.5 -36q0 -19 -9.5 -35
t-26 -25t-34.5 -9t-34 9z" />
    <glyph glyph-name="eth" unicode="&#xf0;" horiz-adv-x="546" 
d="M511 254q0 -82 -29.5 -142.5t-83.5 -93t-126 -32.5q-60 0 -114.5 20.5t-90 69.5t-35.5 129q0 69 27.5 117.5t73.5 72t100 23.5q67 0 125 -30q-20 75 -70 128l-61 -57l-70 61l53 49q-18 8 -36.5 14t-37.5 12q-13 3 -37 11l46 96q45 -13 81 -26t67 -30l61 56l69 -61
l-52 -48q140 -118 140 -339zM347 137q26 41 26 121q0 22 -1 33q-26 14 -49 20.5t-49 6.5q-108 0 -108 -119q0 -50 26.5 -76.5t74.5 -26.5q54 0 80 41z" />
    <glyph glyph-name="ntilde" unicode="&#xf1;" horiz-adv-x="542" 
d="M452 430.5q35 -34.5 35 -100.5v-330h-136v290q0 28 -5.5 43.5t-18.5 22.5t-37 7q-40 0 -94 -32v-331h-136v447l136 13v-44q37 23 74.5 36t77.5 13q69 0 104 -34.5zM284.5 515q-17.5 8 -39.5 23q-10 9 -17.5 13t-15.5 4q-15 0 -26 -9.5t-24 -34.5l-65 24q19 60 51 92.5
t76 32.5q26 0 44 -8.5t38 -22.5q2 -2 9.5 -7t13.5 -7.5t11 -2.5q15 0 26 9t24 34l64 -23q-18 -60 -50 -92.5t-76 -32.5q-26 0 -43.5 8z" />
    <glyph glyph-name="ograve" unicode="&#xf2;" horiz-adv-x="542" 
d="M136.5 18q-52.5 32 -78.5 86.5t-26 121.5q0 86 33.5 139t88.5 76.5t123 23.5q76 0 128.5 -30.5t78.5 -84.5t26 -125q0 -83 -32.5 -136.5t-88 -78t-125.5 -24.5q-75 0 -127.5 32zM347 124.5q22 37.5 22 101.5q0 68 -23.5 103t-72.5 35q-53 0 -77 -34.5t-24 -103.5
q0 -65 24.5 -102t74.5 -37q54 0 76 37.5zM328 489l-202 93l68 108l178 -138z" />
    <glyph glyph-name="oacute" unicode="&#xf3;" horiz-adv-x="542" 
d="M136.5 18q-52.5 32 -78.5 86.5t-26 121.5q0 86 33.5 139t88.5 76.5t123 23.5q76 0 128.5 -30.5t78.5 -84.5t26 -125q0 -83 -32.5 -136.5t-88 -78t-125.5 -24.5q-75 0 -127.5 32zM347 124.5q22 37.5 22 101.5q0 68 -23.5 103t-72.5 35q-53 0 -77 -34.5t-24 -103.5
q0 -65 24.5 -102t74.5 -37q54 0 76 37.5zM213 489l-44 63l179 138l67 -108z" />
    <glyph glyph-name="ocircumflex" unicode="&#xf4;" horiz-adv-x="542" 
d="M136.5 18q-52.5 32 -78.5 86.5t-26 121.5q0 86 33.5 139t88.5 76.5t123 23.5q76 0 128.5 -30.5t78.5 -84.5t26 -125q0 -83 -32.5 -136.5t-88 -78t-125.5 -24.5q-75 0 -127.5 32zM347 124.5q22 37.5 22 101.5q0 68 -23.5 103t-72.5 35q-53 0 -77 -34.5t-24 -103.5
q0 -65 24.5 -102t74.5 -37q54 0 76 37.5zM172 495l-56 55l106 107h98l106 -107l-54 -57l-100 65z" />
    <glyph glyph-name="otilde" unicode="&#xf5;" horiz-adv-x="542" 
d="M136.5 18q-52.5 32 -78.5 86.5t-26 121.5q0 86 33.5 139t88.5 76.5t123 23.5q76 0 128.5 -30.5t78.5 -84.5t26 -125q0 -83 -32.5 -136.5t-88 -78t-125.5 -24.5q-75 0 -127.5 32zM347 124.5q22 37.5 22 101.5q0 68 -23.5 103t-72.5 35q-53 0 -77 -34.5t-24 -103.5
q0 -65 24.5 -102t74.5 -37q54 0 76 37.5zM282.5 515q-17.5 8 -39.5 23q-10 9 -17.5 13t-15.5 4q-15 0 -26 -9.5t-24 -34.5l-65 24q19 60 51 92.5t76 32.5q26 0 44 -8.5t38 -22.5q2 -2 9.5 -7t13.5 -7.5t11 -2.5q15 0 26 9t24 34l64 -23q-18 -60 -50 -92.5t-76 -32.5
q-26 0 -43.5 8z" />
    <glyph glyph-name="odieresis" unicode="&#xf6;" horiz-adv-x="542" 
d="M136.5 18q-52.5 32 -78.5 86.5t-26 121.5q0 86 33.5 139t88.5 76.5t123 23.5q76 0 128.5 -30.5t78.5 -84.5t26 -125q0 -83 -32.5 -136.5t-88 -78t-125.5 -24.5q-75 0 -127.5 32zM347 124.5q22 37.5 22 101.5q0 68 -23.5 103t-72.5 35q-53 0 -77 -34.5t-24 -103.5
q0 -65 24.5 -102t74.5 -37q54 0 76 37.5zM137.5 524.5q-16.5 9.5 -26.5 26t-10 35.5t10 35.5t26.5 26t35.5 9.5q20 0 37 -9.5t26.5 -26t9.5 -35.5t-9.5 -35.5t-26.5 -26t-37 -9.5q-19 0 -35.5 9.5zM332.5 524.5q-16.5 9.5 -26 26t-9.5 35.5t9.5 35.5t26 26t36.5 9.5
t36.5 -9.5t26.5 -26t10 -35.5t-10 -35.5t-26.5 -26t-36.5 -9.5t-36.5 9.5z" />
    <glyph glyph-name="divide" unicode="&#xf7;" horiz-adv-x="540" 
d="M229.5 368q-18.5 11 -29.5 29t-11 40q0 21 11 39t29.5 29t40.5 11q21 0 39.5 -11t30 -29t11.5 -39q0 -22 -11 -40t-30 -29t-40 -11q-22 0 -40.5 11zM60 200v110h420v-110h-420zM229.5 6q-18.5 11 -29.5 29t-11 40q0 21 11 39t29.5 29t40.5 11q21 0 39.5 -11t30 -29
t11.5 -39q0 -22 -11 -40t-30 -29t-40 -11q-22 0 -40.5 11z" />
    <glyph glyph-name="oslash" unicode="&#xf8;" horiz-adv-x="542" 
d="M493.5 328.5q16.5 -46.5 16.5 -103.5q0 -83 -32.5 -136.5t-88 -78t-125.5 -24.5q-45 0 -86 13l-44 -67l-91 53l47 72q-29 32 -43.5 75.5t-14.5 93.5q0 86 33.5 139t88.5 76.5t123 23.5q42 0 77 -9l37 55l87 -53l-34 -52q33 -31 49.5 -77.5zM190 337.5
q-26 -37.5 -26 -111.5q0 -38 7 -65l137 209q-18 5 -35 5q-57 0 -83 -37.5zM354 116.5q24 40.5 24 109.5q0 49 -12 83l-144 -222q22 -11 49 -11q59 0 83 40.5z" />
    <glyph glyph-name="ugrave" unicode="&#xf9;" horiz-adv-x="540" 
d="M480 460v-460h-116l-11 36q-77 -50 -158 -50q-67 0 -103.5 37t-36.5 102v322l136 13v-295q0 -40 13 -57.5t47 -17.5q36 0 93 31v326zM324 489l-202 93l68 108l178 -138z" />
    <glyph glyph-name="uacute" unicode="&#xfa;" horiz-adv-x="540" 
d="M480 460v-460h-116l-11 36q-77 -50 -158 -50q-67 0 -103.5 37t-36.5 102v322l136 13v-295q0 -40 13 -57.5t47 -17.5q36 0 93 31v326zM209 489l-44 63l179 138l67 -108z" />
    <glyph glyph-name="ucircumflex" unicode="&#xfb;" horiz-adv-x="540" 
d="M480 460v-460h-116l-11 36q-77 -50 -158 -50q-67 0 -103.5 37t-36.5 102v322l136 13v-295q0 -40 13 -57.5t47 -17.5q36 0 93 31v326zM168 495l-56 55l106 107h98l106 -107l-54 -57l-100 65z" />
    <glyph glyph-name="udieresis" unicode="&#xfc;" horiz-adv-x="540" 
d="M480 460v-460h-116l-11 36q-77 -50 -158 -50q-67 0 -103.5 37t-36.5 102v322l136 13v-295q0 -40 13 -57.5t47 -17.5q36 0 93 31v326zM133.5 524.5q-16.5 9.5 -26.5 26t-10 35.5t10 35.5t26.5 26t35.5 9.5q20 0 37 -9.5t26.5 -26t9.5 -35.5t-9.5 -35.5t-26.5 -26t-37 -9.5
q-19 0 -35.5 9.5zM328.5 524.5q-16.5 9.5 -26 26t-9.5 35.5t9.5 35.5t26 26t36.5 9.5t36.5 -9.5t26.5 -26t10 -35.5t-10 -35.5t-26.5 -26t-36.5 -9.5t-36.5 9.5z" />
    <glyph glyph-name="yacute" unicode="&#xfd;" horiz-adv-x="472" 
d="M472 450v-7l-137 -426q-25 -78 -56.5 -125t-75 -69.5t-105.5 -22.5q-54 0 -100 18l34 95q27 -10 56 -10q24 0 43 6.5t37 28t34 62.5h-36l-168 443v7h142l80 -241q9 -27 22 -81q9 40 21 79l68 243h141zM177 489l-44 63l179 138l67 -108z" />
    <glyph glyph-name="thorn" unicode="&#xfe;" horiz-adv-x="545" 
d="M468.5 407q44.5 -58 44.5 -172q0 -88 -35 -143.5t-89.5 -80.5t-116.5 -25q-37 0 -76 11v-183h-136v874l136 13v-278q69 42 136 42q92 0 136.5 -58zM340.5 122.5q32.5 37.5 32.5 112.5q0 49 -8.5 76.5t-27.5 39.5t-52 12q-40 0 -89 -28v-245q28 -5 53 -5q59 0 91.5 37.5z
" />
    <glyph glyph-name="ydieresis" unicode="&#xff;" horiz-adv-x="472" 
d="M472 450v-7l-137 -426q-25 -78 -56.5 -125t-75 -69.5t-105.5 -22.5q-54 0 -100 18l34 95q27 -10 56 -10q24 0 43 6.5t37 28t34 62.5h-36l-168 443v7h142l80 -241q9 -27 22 -81q9 40 21 79l68 243h141zM101.5 524.5q-16.5 9.5 -26.5 26t-10 35.5t10 35.5t26.5 26t35.5 9.5
q20 0 37 -9.5t26.5 -26t9.5 -35.5t-9.5 -35.5t-26.5 -26t-37 -9.5q-19 0 -35.5 9.5zM296.5 524.5q-16.5 9.5 -26 26t-9.5 35.5t9.5 35.5t26 26t36.5 9.5t36.5 -9.5t26.5 -26t10 -35.5t-10 -35.5t-26.5 -26t-36.5 -9.5t-36.5 9.5z" />
    <glyph glyph-name="dotlessi" unicode="&#x131;" horiz-adv-x="256" 
d="M60 0v447l136 13v-460h-136z" />
    <glyph glyph-name="Lslash" unicode="&#x141;" horiz-adv-x="548" 
d="M241 122h294v-122h-436v178l-30 -21l-65 90l95 63v338h142v-222l98 71l65 -87l-163 -115v-173z" />
    <glyph glyph-name="lslash" unicode="&#x142;" horiz-adv-x="351" 
d="M347 422l-107 -75v-347h-136v241l-45 -32l-55 78l100 71v330l136 13v-240l51 36z" />
    <glyph glyph-name="OE" unicode="&#x152;" horiz-adv-x="918" 
d="M875 116v-116h-406q-46 -14 -108 -14q-105 0 -178 43.5t-109.5 120t-36.5 176.5q0 113 45 188.5t120.5 111.5t166.5 36q58 0 106 -14h395v-115h-274v-146h233l-16 -114h-217v-157h279zM228.5 161.5q45.5 -59.5 133.5 -59.5q54 0 97 13v419q-22 7 -43.5 9.5t-48.5 2.5
q-89 0 -136.5 -58.5t-47.5 -160.5q0 -106 45.5 -165.5z" />
    <glyph glyph-name="oe" unicode="&#x153;" horiz-adv-x="786" 
d="M750 199h-278q6 -61 35.5 -86.5t72.5 -25.5q30 0 58.5 9t61.5 29l45 -82q-35 -27 -80 -42t-99 -15q-48 0 -89.5 17t-70.5 50q-29 -34 -69.5 -50.5t-86.5 -16.5q-70 0 -119 32t-74 86.5t-25 121.5q0 85 32 138.5t83.5 77t114.5 23.5q51 0 89.5 -19t62.5 -54q54 73 147 73
q62 0 105.5 -26t65.5 -71t22 -102q0 -36 -4 -67zM501.5 351q-20.5 -22 -27.5 -70h151v4q0 48 -18 68t-50 20q-35 0 -55.5 -22zM326 124q20 37 20 102q0 68 -20.5 103t-65.5 35q-46 0 -67 -35t-21 -103q0 -65 21 -102t64 -37q49 0 69 37z" />
    <glyph glyph-name="Scaron" unicode="&#x160;" horiz-adv-x="566" 
d="M19 64l64 99q93 -59 182 -59q57 0 89.5 18t32.5 54q0 22 -10.5 36.5t-37 28t-79.5 34.5l-23 9q-64 25 -103 48t-62 59t-23 91q0 61 35 101.5t90 59.5t117 19q56 0 115.5 -18.5t113.5 -54.5l-65 -98q-48 29 -85 42t-80 13q-48 0 -72.5 -16t-24.5 -43q0 -17 10 -30.5
t36 -27t75 -31.5l22 -8q64 -24 103.5 -45t66.5 -60t27 -101q0 -65 -34 -109.5t-92.5 -66.5t-132.5 -22q-150 0 -255 78zM239 684l-106 108l56 55l100 -63l100 65l54 -57l-106 -108h-98z" />
    <glyph glyph-name="scaron" unicode="&#x161;" horiz-adv-x="437" 
d="M105.5 1.5q-50.5 15.5 -94.5 46.5l57 87q37 -27 75 -38.5t73 -11.5q33 0 48.5 10t15.5 27q0 11 -6 19.5t-24.5 17t-54.5 18.5l-29 8q-72 20 -103.5 52t-31.5 87q0 42 23 74t65 49.5t96 17.5q102 0 185 -49l-52 -87q-41 21 -69 29t-60 8q-25 0 -37.5 -9t-12.5 -23
q0 -10 5 -16.5t18.5 -12t42.5 -13.5l33 -9q77 -20 112.5 -56t35.5 -91q0 -43 -21.5 -77t-66 -53.5t-108.5 -19.5t-114.5 15.5zM165 496l-106 108l56 55l100 -64l100 65l54 -56l-106 -108h-98z" />
    <glyph glyph-name="Ydieresis" unicode="&#x178;" horiz-adv-x="636" 
d="M624 648v-8l-236 -370v-270h-142v266l-234 374v8h160l146 -250l152 250h154zM184.5 722.5q-16.5 9.5 -26.5 25.5t-10 35t10 35.5t26.5 26t35.5 9.5q20 0 37 -9.5t26.5 -26t9.5 -35.5t-9.5 -35t-26.5 -25.5t-37 -9.5q-19 0 -35.5 9.5zM379.5 722.5q-16.5 9.5 -26 25.5
t-9.5 35t9.5 35.5t26 26t36.5 9.5t36.5 -9.5t26.5 -26t10 -35.5t-10 -35t-26.5 -25.5t-36.5 -9.5t-36.5 9.5z" />
    <glyph glyph-name="Zcaron" unicode="&#x17d;" horiz-adv-x="581" 
d="M544 648v-68l-319 -459h306v-121h-504v68l322 459h-303l15 121h483zM241 684l-106 108l56 55l100 -63l100 65l54 -57l-106 -108h-98z" />
    <glyph glyph-name="zcaron" unicode="&#x17e;" horiz-adv-x="444" 
d="M420 450v-60l-210 -277h207v-113h-399v62l212 275h-197l15 113h372zM180 496l-106 108l56 55l100 -64l100 65l54 -56l-106 -108h-98z" />
    <glyph glyph-name="florin" unicode="&#x192;" horiz-adv-x="540" 
d="M344 564.5q-16 -18.5 -16 -52.5v-68h121l-15 -106h-106v-372q0 -85 -43.5 -125.5t-114.5 -40.5q-29 0 -59 6t-54 16l29 91q35 -10 55 -10q51 0 51 57v378h-64v106h64v65q0 54 20.5 96t61 66t97.5 24q35 0 60 -4.5t52 -15.5l-33 -106q-19 8 -33.5 11t-28.5 3
q-28 0 -44 -18.5z" />
    <glyph glyph-name="circumflex" unicode="&#x2c6;" horiz-adv-x="390" 
d="M96 495l-56 55l106 107h98l106 -107l-54 -57l-100 65z" />
    <glyph glyph-name="caron" unicode="&#x2c7;" horiz-adv-x="390" 
d="M146 496l-106 108l56 55l100 -64l100 65l54 -56l-106 -108h-98z" />
    <glyph glyph-name="uni02C9" unicode="&#x2c9;" horiz-adv-x="366" 
d="M40 530v103h286v-103h-286z" />
    <glyph glyph-name="breve" unicode="&#x2d8;" horiz-adv-x="389" 
d="M90.5 531.5q-42.5 33.5 -50.5 107.5l86 7q7 -26 22.5 -40t46.5 -14q30 0 45.5 14t22.5 40l86 -7q-8 -74 -50 -107.5t-104 -33.5t-104.5 33.5z" />
    <glyph glyph-name="dotaccent" unicode="&#x2d9;" horiz-adv-x="256" 
d="M84 528.5q-20 11.5 -32 30.5t-12 42t12 42.5t32 31t44 11.5t44 -11.5t32 -31t12 -42.5t-12 -42t-32 -30.5t-44 -11.5t-44 11.5z" />
    <glyph glyph-name="ring" unicode="&#x2da;" horiz-adv-x="333" 
d="M102.5 504.5q-28.5 12.5 -45.5 37.5t-17 62q0 38 17 64t45.5 38.5t64.5 12.5q35 0 63.5 -12.5t45.5 -38.5t17 -64q0 -37 -17 -62t-45.5 -37.5t-63.5 -12.5q-36 0 -64.5 12.5zM194.5 573.5q11.5 9.5 11.5 30.5q0 23 -11 32t-28 9q-40 0 -40 -41q0 -21 11.5 -30.5
t28.5 -9.5q16 0 27.5 9.5z" />
    <glyph glyph-name="ogonek" unicode="&#x2db;" horiz-adv-x="306" 
d="M96.5 -215.5q-28.5 12.5 -42.5 34t-14 47.5q0 58 42.5 101.5t109.5 71.5l24 -39q-36 -35 -49.5 -58.5t-13.5 -44.5q0 -30 36 -30q10 0 25 3t26 8l26 -86q-26 -10 -49 -15t-52 -5q-40 0 -68.5 12.5z" />
    <glyph glyph-name="tilde" unicode="&#x2dc;" horiz-adv-x="437" 
d="M227.5 515q-17.5 8 -39.5 23q-10 9 -17.5 13t-15.5 4q-15 0 -26 -9.5t-24 -34.5l-65 24q19 60 51 92.5t76 32.5q26 0 44 -8.5t38 -22.5q2 -2 9.5 -7t13.5 -7.5t11 -2.5q15 0 26 9t24 34l64 -23q-18 -60 -50 -92.5t-76 -32.5q-26 0 -43.5 8z" />
    <glyph glyph-name="hungarumlaut" unicode="&#x2dd;" horiz-adv-x="409" 
d="M113 499l-73 26l56 165l108 -47zM267 488l-73 28l69 162l106 -46z" />
    <glyph glyph-name="gravecomb" unicode="&#x300;" 
d="M-84 489l-202 93l68 108l178 -138z" />
    <glyph glyph-name="acutecomb" unicode="&#x301;" 
d="M-242 489l-44 63l179 138l67 -108z" />
    <glyph glyph-name="uni0302" unicode="&#x302;" 
d="M-294 495l-56 55l106 107h98l106 -107l-54 -57l-100 65z" />
    <glyph glyph-name="tildecomb" unicode="&#x303;" 
d="M-209.5 515q-17.5 8 -39.5 23q-10 9 -17.5 13t-15.5 4q-15 0 -26 -9.5t-24 -34.5l-65 24q19 60 51 92.5t76 32.5q26 0 44 -8.5t38 -22.5q2 -2 9.5 -7t13.5 -7.5t11 -2.5q15 0 26 9t24 34l64 -23q-18 -60 -50 -92.5t-76 -32.5q-26 0 -43.5 8z" />
    <glyph glyph-name="uni0304" unicode="&#x304;" 
d="M-326 530v103h286v-103h-286z" />
    <glyph glyph-name="uni0306" unicode="&#x306;" 
d="M-298.5 531.5q-42.5 33.5 -50.5 107.5l86 7q7 -26 22.5 -40t46.5 -14q30 0 45.5 14t22.5 40l86 -7q-8 -74 -50 -107.5t-104 -33.5t-104.5 33.5z" />
    <glyph glyph-name="uni0307" unicode="&#x307;" 
d="M-172 528.5q-20 11.5 -32 30.5t-12 42t12 42.5t32 31t44 11.5t44 -11.5t32 -31t12 -42.5t-12 -42t-32 -30.5t-44 -11.5t-44 11.5z" />
    <glyph glyph-name="uni0308" unicode="&#x308;" 
d="M-344.5 524.5q-16.5 9.5 -26.5 26t-10 35.5t10 35.5t26.5 26t35.5 9.5q20 0 37 -9.5t26.5 -26t9.5 -35.5t-9.5 -35.5t-26.5 -26t-37 -9.5q-19 0 -35.5 9.5zM-149.5 524.5q-16.5 9.5 -26 26t-9.5 35.5t9.5 35.5t26 26t36.5 9.5t36.5 -9.5t26.5 -26t10 -35.5t-10 -35.5
t-26.5 -26t-36.5 -9.5t-36.5 9.5z" />
    <glyph glyph-name="uni030A" unicode="&#x30a;" 
d="M-230.5 504.5q-28.5 12.5 -45.5 37.5t-17 62q0 38 17 64t45.5 38.5t64.5 12.5q35 0 63.5 -12.5t45.5 -38.5t17 -64q0 -37 -17 -62t-45.5 -37.5t-63.5 -12.5q-36 0 -64.5 12.5zM-138.5 573.5q11.5 9.5 11.5 30.5q0 23 -11 32t-28 9q-40 0 -40 -41q0 -21 11.5 -30.5
t28.5 -9.5q16 0 27.5 9.5z" />
    <glyph glyph-name="uni030B" unicode="&#x30b;" 
d="M-296 499l-73 26l56 165l108 -47zM-142 488l-73 28l69 162l106 -46z" />
    <glyph glyph-name="uni030C" unicode="&#x30c;" 
d="M-244 496l-106 108l56 55l100 -64l100 65l54 -56l-106 -108h-98z" />
    <glyph glyph-name="uni0312" unicode="&#x312;" 
d="M-166.5 510q-20.5 22 -20.5 58q0 53 22.5 98.5t61.5 87.5l59 -34q-17 -22 -28.5 -42t-11.5 -37q0 -18 12 -27q16 -14 24 -26.5t8 -32.5q0 -17 -8.5 -32t-25 -25t-38.5 -10q-34 0 -54.5 22z" />
    <glyph glyph-name="uni0313" unicode="&#x313;" 
d="M-130 522q40 49 40 78q0 18 -12 27q-16 14 -24 26.5t-8 32.5q0 17 8.5 32.5t25 25.5t38.5 10q33 0 54 -22.5t21 -58.5q0 -53 -22.5 -97.5t-62.5 -87.5z" />
    <glyph glyph-name="uni0326" unicode="&#x326;" 
d="M-183 -272q17 22 28.5 42t11.5 37q0 18 -12 27q-16 14 -24 26.5t-8 32.5q0 17 8.5 32t25 25t38.5 10q34 0 54.5 -22.5t20.5 -57.5q0 -53 -23 -98t-62 -88z" />
    <glyph glyph-name="uni0327" unicode="&#x327;" 
d="M-239 -230.5q-30 7.5 -53 20.5l28 74q17 -7 35.5 -11.5t32.5 -4.5q20 0 30 6t10 20q0 11 -8 16.5t-26.5 8t-54.5 3.5l13 108l91 -1v-48q50 -5 75.5 -28t25.5 -65q0 -53 -37.5 -79.5t-99.5 -26.5q-32 0 -62 7.5z" />
    <glyph glyph-name="uni0328" unicode="&#x328;" 
d="M-209.5 -215.5q-28.5 12.5 -42.5 34t-14 47.5q0 58 42.5 101.5t109.5 71.5l24 -39q-36 -35 -49.5 -58.5t-13.5 -44.5q0 -30 36 -30q10 0 25 3t26 8l26 -86q-26 -10 -49 -15t-52 -5q-40 0 -68.5 12.5z" />
    <glyph glyph-name="uni0335" unicode="&#x335;" 
d="M-368 193v104h328v-104h-328z" />
    <glyph glyph-name="uni0336" unicode="&#x336;" 
d="M-665 193v104h625v-104h-625z" />
    <glyph glyph-name="uni0337" unicode="&#x337;" 
d="M-288 -84l-106 34l249 657l105 -33z" />
    <glyph glyph-name="uni0338" unicode="&#x338;" 
d="M-384 -61l-91 53l58 89l17 5l210 322l-1 13l64 97l87 -53l-60 -90l-16 -4l-210 -324l4 -13z" />
    <glyph glyph-name="uni0394" unicode="&#x394;" horiz-adv-x="668" 
d="M422 648l233 -640v-8h-643v8l233 640h177zM199 114h267l-135 402z" />
    <glyph glyph-name="uni03A9" unicode="&#x3a9;" horiz-adv-x="747" 
d="M674.5 205q-27.5 -55 -77.5 -91q47 4 102 4v-118h-252v101q65 26 87 87.5t22 147.5q0 61 -20.5 108.5t-62 74.5t-100.5 27t-100 -27t-61.5 -74.5t-20.5 -107.5q0 -55 8 -99t32 -81t69 -56v-101h-252v118q56 0 101 -4q-50 37 -77 92.5t-27 129.5q0 105 45 178.5t120 110.5
t165 37q93 0 167.5 -39.5t117 -113.5t42.5 -174q0 -75 -27.5 -130z" />
    <glyph glyph-name="uni03BC" unicode="&#x3bc;" horiz-adv-x="545" 
d="M485 460v-460h-116l-10 34q-62 -43 -119 -43q-30 0 -58 13q14 -42 14 -86v-104h-136v633l136 13v-295q0 -40 13 -57.5t47 -17.5q36 0 93 31v326z" />
    <glyph glyph-name="pi" unicode="&#x3c0;" horiz-adv-x="546" 
d="M536 450l-14 -107h-43v-343h-136v343h-134v-343h-136v343h-54v107h517z" />
    <glyph glyph-name="uni060C" unicode="&#x60c;" horiz-adv-x="218" 
d="M43.5 21q-21.5 26 -21.5 71q0 52 26.5 105.5t74.5 113.5l63 -36q-25 -33 -39 -60t-14 -47q0 -13 5 -20.5t16 -17.5q7 -6 13.5 -13.5t10.5 -18t4 -25.5q0 -19 -9.5 -37t-27.5 -29.5t-42 -11.5q-38 0 -59.5 26z" />
    <glyph glyph-name="uni0615" unicode="&#x615;" 
d="M289 646q19 -12 31 -32.5t12 -45.5q0 -44 -32 -72.5t-111 -28.5q-62 0 -106 2l-19 65l2 6l38 -1l14 18v171h68v-96q32 26 65 26q19 0 38 -12zM271.5 574q-9.5 13 -25.5 13q-31 0 -77 -49h27q22 0 48.5 1t33.5 4q3 18 -6.5 31z" />
    <glyph glyph-name="uni061B" unicode="&#x61b;" horiz-adv-x="218" 
d="M62.5 -2q-18.5 11 -29.5 29t-11 40q0 21 11 39t29.5 29t40.5 11q21 0 39.5 -11t30 -29t11.5 -39q0 -22 -11 -40t-30 -29t-40 -11q-22 0 -40.5 11zM43.5 267q-21.5 26 -21.5 71q0 52 26.5 105.5t74.5 113.5l63 -36q-25 -33 -39 -60t-14 -47q0 -13 5 -20.5t16 -17.5
q7 -6 13.5 -13.5t10.5 -18t4 -25.5q0 -19 -9.5 -37t-27.5 -29.5t-42 -11.5q-38 0 -59.5 26z" />
    <glyph glyph-name="uni061F" unicode="&#x61f;" horiz-adv-x="432" 
d="M185 218v13q0 35 -16.5 61.5t-57.5 56.5q-48 35 -66.5 68t-18.5 77q0 56 27.5 94t75 56t108.5 18q44 0 87.5 -13.5t81.5 -37.5l-55 -99q-23 16 -48.5 25.5t-50.5 9.5q-39 0 -57.5 -15.5t-18.5 -43.5q0 -21 12.5 -39t45.5 -45q48 -40 68 -76.5t20 -83.5q0 -26 -2 -39z
M206.5 -2q-18.5 11 -29.5 29t-11 40q0 21 11 39t29.5 29t40.5 11q21 0 39.5 -11t30 -29t11.5 -39q0 -22 -11 -40t-30 -29t-40 -11q-22 0 -40.5 11z" />
    <glyph glyph-name="uni0621" unicode="&#x621;" horiz-adv-x="400" 
d="M368 20q-99 -10 -171 -15.5t-172 -9.5l-7 100l80 5q-27 40 -27 88q0 41 18.5 75t52.5 53.5t79 19.5q29 0 59.5 -7t54.5 -19l-33 -92q-40 14 -62 14q-29 0 -44 -17t-15 -44q0 -31 25 -64q78 5 153 12z" />
    <glyph glyph-name="uni0622" unicode="&#x622;" horiz-adv-x="248" 
d="M69 -7l-8 6v663l116 31l10 -6l-3 -670zM183.5 738.5q-14.5 3.5 -23 6t-11.5 3.5q-17 6 -31 9.5t-28 3.5q-36 0 -76 -25l-36 56q26 25 50.5 36t49.5 11q15 0 32.5 -3.5t33.5 -8.5q21 -6 37.5 -9.5t32.5 -3.5q25 0 46 8l23 -67q-37 -20 -71 -20q-14 0 -28.5 3.5z" />
    <glyph glyph-name="uni0623" unicode="&#x623;" horiz-adv-x="248" 
d="M69 -7l-8 6v663l116 31l10 -6l-3 -670zM225 755q-78 -10 -195 -14l-7 72q30 0 46 1q-10 14 -16 30.5t-6 32.5q0 39 23.5 62.5t65.5 23.5q32 0 74 -16l-17 -65q-24 8 -43 8q-16 0 -25 -8.5t-9 -23.5q0 -23 20 -41q58 4 84 7z" />
    <glyph glyph-name="uni0624" unicode="&#x624;" horiz-adv-x="439" 
d="M91 527q33 0 51 1q-11 15 -17.5 33t-6.5 36q0 43 26 69t72 26q36 0 81 -17l-19 -73q-29 10 -48 10q-17 0 -26.5 -9t-9.5 -25q0 -13 6 -25t16 -21q62 4 91 7l7 -75q-96 -12 -216 -16zM306.5 320.5q38.5 -34.5 59 -92.5t20.5 -128q0 -71 -37 -134.5t-111.5 -103
t-182.5 -40.5l-60 95l7 11q104 1 171.5 28.5t95.5 78.5q-36 -6 -80 -6q-68 0 -102.5 32t-34.5 88q0 47 22.5 95t60.5 79.5t83 31.5q50 0 88.5 -34.5zM163.5 144q15.5 -7 50.5 -7q32 0 70 5q-6 39 -26.5 67t-47.5 28q-17 0 -31 -10.5t-22.5 -26.5t-8.5 -32q0 -17 15.5 -24z
" />
    <glyph glyph-name="uni0625" unicode="&#x625;" horiz-adv-x="248" 
d="M69 -7l-8 6v663l116 31l10 -6l-3 -670zM224 -265q-78 -10 -195 -14l-7 72q30 0 45 1q-9 14 -15 30.5t-6 31.5q0 39 23.5 62.5t65.5 23.5q35 0 74 -15l-17 -65q-29 8 -43 8q-16 0 -25 -8.5t-9 -23.5q0 -23 20 -41q60 4 84 7z" />
    <glyph glyph-name="uni0626" unicode="&#x626;" horiz-adv-x="778" 
d="M63 365q33 0 51 1q-11 15 -17.5 33t-6.5 36q0 43 26 69t72 26q36 0 81 -17l-19 -73q-29 10 -48 10q-17 0 -26.5 -9t-9.5 -25q0 -13 6 -25t16 -21q62 4 91 7l7 -75q-96 -12 -216 -16zM692 158q25 -16 34 -32t9 -37q0 -68 -52.5 -124.5t-143 -89t-197.5 -32.5
q-105 0 -173.5 27t-100 74.5t-31.5 109.5q0 52 16 114l104 35l9 -6q-5 -27 -7.5 -48t-2.5 -38q0 -47 18 -78t64 -48t128 -17q56 0 106 9.5t86 24.5t55 31q2 8 2 10q0 12 -15.5 22t-56.5 25q-44 15 -69 28t-41 36t-16 61q0 51 27 110.5t77 101t116 41.5q30 0 59 -7t49 -17
l-24 -120l-5 -3q-20 9 -45.5 15.5t-47.5 6.5q-30 0 -56.5 -13.5t-42.5 -33.5t-16 -39q0 -13 11.5 -22.5t33.5 -18.5t67 -25q47 -17 72 -33z" />
    <glyph glyph-name="uni0627" unicode="&#x627;" horiz-adv-x="248" 
d="M69 -7l-8 6v663l116 31l10 -6l-3 -670z" />
    <glyph glyph-name="uni0628" unicode="&#x628;" horiz-adv-x="858" 
d="M793.5 276q11.5 -52 11.5 -88q0 -46 -20.5 -89.5t-58.5 -66.5q-35 -21 -112 -32.5t-175 -11.5h-61q-166 0 -253.5 48t-87.5 139q0 32 4.5 61t13.5 61l89 34l10 -5q-9 -46 -9 -83q0 -51 28 -79t87 -39.5t161 -11.5h55q68 0 129.5 6t91.5 15q3 50 -52 168l102 82h12
q23 -56 34.5 -108zM431 -258l-107 75l67 98l106 -73z" />
    <glyph glyph-name="uni0629" unicode="&#x629;" horiz-adv-x="429" 
d="M333 301.5q47 -71.5 47 -138.5q0 -51 -22 -89.5t-62 -59.5t-94 -21q-79 0 -123 37t-44 104q0 39 22 87t75 114l-29 22l61 104l10 7q112 -95 159 -166.5zM255 131q17 13 17 36q0 43 -68 108q-62 -61 -62 -108q0 -22 17.5 -35.5t46.5 -13.5q32 0 49 13zM347 631l-64 -96
l-98 69l-44 -69l-103 72l64 94l97 -67l45 67z" />
    <glyph glyph-name="uni062A" unicode="&#x62a;" horiz-adv-x="858" 
d="M793.5 276q11.5 -52 11.5 -88q0 -46 -20.5 -89.5t-58.5 -66.5q-35 -21 -112 -32.5t-175 -11.5h-61q-166 0 -253.5 48t-87.5 139q0 32 4.5 61t13.5 61l89 34l10 -5q-9 -46 -9 -83q0 -51 28 -79t87 -39.5t161 -11.5h55q68 0 129.5 6t91.5 15q3 50 -52 168l102 82h12
q23 -56 34.5 -108zM586 490l-64 -96l-98 69l-44 -69l-103 72l64 94l97 -67l45 67z" />
    <glyph glyph-name="uni062B" unicode="&#x62b;" horiz-adv-x="858" 
d="M793.5 276q11.5 -52 11.5 -88q0 -46 -20.5 -89.5t-58.5 -66.5q-35 -21 -112 -32.5t-175 -11.5h-61q-166 0 -253.5 48t-87.5 139q0 32 4.5 61t13.5 61l89 34l10 -5q-9 -46 -9 -83q0 -51 28 -79t87 -39.5t161 -11.5h55q68 0 129.5 6t91.5 15q3 50 -52 168l102 82h12
q23 -56 34.5 -108zM508 633l-63 -96l-103 72l64 93zM599 490l-64 -96l-98 69l-45 -69l-102 72l64 94l97 -67l46 67z" />
    <glyph glyph-name="uni062C" unicode="&#x62c;" horiz-adv-x="662" 
d="M647 -264l-37 -104q-36 -23 -90 -35.5t-118 -12.5q-109 0 -191.5 31.5t-128 91t-45.5 142.5q0 80 44 155t117 135t160 100q-55 16 -92.5 23t-65.5 7q-36 0 -76.5 -7t-70.5 -18l-5 5l43 107q23 14 55.5 22.5t63.5 8.5q26 0 59.5 -6.5t84.5 -22.5q82 -26 144 -36t129 -10
l-30 -121q-123 -6 -224.5 -49t-160 -111.5t-58.5 -146.5q0 -86 75 -130.5t212 -44.5q46 0 97.5 8.5t102.5 24.5zM409 -174l-107 76l67 98l106 -73z" />
    <glyph glyph-name="uni062D" unicode="&#x62d;" horiz-adv-x="662" 
d="M647 -264l-37 -104q-36 -23 -90 -35.5t-118 -12.5q-109 0 -191.5 31.5t-128 91t-45.5 142.5q0 80 44 155t117 135t160 100q-55 16 -92.5 23t-65.5 7q-36 0 -76.5 -7t-70.5 -18l-5 5l43 107q23 14 55.5 22.5t63.5 8.5q26 0 59.5 -6.5t84.5 -22.5q82 -26 144 -36t129 -10
l-30 -121q-123 -6 -224.5 -49t-160 -111.5t-58.5 -146.5q0 -86 75 -130.5t212 -44.5q46 0 97.5 8.5t102.5 24.5z" />
    <glyph glyph-name="uni062E" unicode="&#x62e;" horiz-adv-x="662" 
d="M647 -264l-37 -104q-36 -23 -90 -35.5t-118 -12.5q-109 0 -191.5 31.5t-128 91t-45.5 142.5q0 80 44 155t117 135t160 100q-55 16 -92.5 23t-65.5 7q-36 0 -76.5 -7t-70.5 -18l-5 5l43 107q23 14 55.5 22.5t63.5 8.5q26 0 59.5 -6.5t84.5 -22.5q82 -26 144 -36t129 -10
l-30 -121q-123 -6 -224.5 -49t-160 -111.5t-58.5 -146.5q0 -86 75 -130.5t212 -44.5q46 0 97.5 8.5t102.5 24.5zM359 480l-107 76l67 98l106 -74z" />
    <glyph glyph-name="uni062F" unicode="&#x62f;" horiz-adv-x="452" 
d="M87.5 -5.5q-40.5 3.5 -60.5 7.5l18 121l7 4q16 -4 52 -6t65 -2q40 0 83 5t60 15q-11 42 -58.5 104t-103.5 114l77 111h10q78 -83 124.5 -161.5t46.5 -143.5q0 -55 -30.5 -94t-86.5 -58.5t-130 -19.5q-33 0 -73.5 3.5z" />
    <glyph glyph-name="uni0630" unicode="&#x630;" horiz-adv-x="452" 
d="M87.5 -5.5q-40.5 3.5 -60.5 7.5l18 121l7 4q16 -4 52 -6t65 -2q40 0 83 5t60 15q-11 42 -58.5 104t-103.5 114l77 111h10q78 -83 124.5 -161.5t46.5 -143.5q0 -55 -30.5 -94t-86.5 -58.5t-130 -19.5q-33 0 -73.5 3.5zM229 561l-107 76l67 98l106 -74z" />
    <glyph glyph-name="uni0631" unicode="&#x631;" horiz-adv-x="357" 
d="M-79 -91l7 10q77 13 141 39.5t101 55t37 47.5q-2 25 -23.5 74.5t-48.5 97.5l90 101h11q32 -58 49.5 -124t17.5 -116q0 -65 -29 -116q-21 -38 -63.5 -71t-100 -56.5t-122.5 -33.5z" />
    <glyph glyph-name="uni0632" unicode="&#x632;" horiz-adv-x="357" 
d="M-79 -91l7 10q77 13 141 39.5t101 55t37 47.5q-2 25 -23.5 74.5t-48.5 97.5l90 101h11q32 -58 49.5 -124t17.5 -116q0 -65 -29 -116q-21 -38 -63.5 -71t-100 -56.5t-122.5 -33.5zM227 427l-107 76l67 98l106 -74z" />
    <glyph glyph-name="uni0633" unicode="&#x633;" horiz-adv-x="1145" 
d="M1092 177q0 -58 -28 -98t-77 -59.5t-113 -19.5q-73 0 -128 25q-17 -13 -37.5 -19t-46.5 -6q-20 0 -40 5t-37 15q-27 -108 -109.5 -157t-195.5 -49q-77 0 -131.5 26t-83 73t-28.5 110q0 29 6.5 66t12.5 55l90 34l11 -4q-3 -23 -5 -49t-2 -45q0 -67 35.5 -104t119.5 -37
q62 0 106.5 19.5t65.5 49.5q3 14 3 28q0 38 -15.5 81.5t-44.5 106.5l109 77h6q5 -12 18 -52q19 -60 28 -80q11 -24 30 -34t51 -10q24 0 36 9q4 6 11 32.5t13 55.5l6 27l127 21l3 -4q-28 -94 -42 -132q36 -9 73 -9q60 0 90 13q1 4 1 12q0 47 -50 154l107 80l7 -1
q48 -126 48 -206z" />
    <glyph glyph-name="uni0634" unicode="&#x634;" horiz-adv-x="1145" 
d="M1092 177q0 -58 -28 -98t-77 -59.5t-113 -19.5q-73 0 -128 25q-17 -13 -37.5 -19t-46.5 -6q-20 0 -40 5t-37 15q-27 -108 -109.5 -157t-195.5 -49q-77 0 -131.5 26t-83 73t-28.5 110q0 29 6.5 66t12.5 55l90 34l11 -4q-3 -23 -5 -49t-2 -45q0 -67 35.5 -104t119.5 -37
q62 0 106.5 19.5t65.5 49.5q3 14 3 28q0 38 -15.5 81.5t-44.5 106.5l109 77h6q5 -12 18 -52q19 -60 28 -80q11 -24 30 -34t51 -10q24 0 36 9q4 6 11 32.5t13 55.5l6 27l127 21l3 -4q-28 -94 -42 -132q36 -9 73 -9q60 0 90 13q1 4 1 12q0 47 -50 154l107 80l7 -1
q48 -126 48 -206zM841 651l-63 -96l-103 72l64 93zM932 508l-64 -96l-98 69l-45 -69l-102 72l64 94l97 -67l46 67z" />
    <glyph glyph-name="uni0635" unicode="&#x635;" horiz-adv-x="1221" 
d="M1104.5 347.5q34.5 -26.5 53 -67t18.5 -82.5q0 -43 -19.5 -81.5t-48.5 -62.5q-28 -23 -63 -35t-82 -15.5t-125 -3.5h-59q-88 0 -127.5 3.5t-65.5 18.5q-27 -109 -109.5 -158.5t-196.5 -49.5q-77 0 -131.5 26t-83 73t-28.5 110q0 32 5.5 63.5t13.5 57.5l90 34l11 -4
q-7 -49 -7 -94q0 -67 35.5 -104t119.5 -37q62 0 106.5 19.5t65.5 49.5q3 14 3 28q0 38 -15.5 81.5t-44.5 106.5l109 77h6l14 -43q4 -10 14 -40.5t18 -47.5q8 -16 17.5 -25t24.5 -13t41 -6q90 88 152 140.5t113 80t95 27.5q46 0 80.5 -26.5zM1075 177q0 18 -8.5 36.5
t-24 30.5t-34.5 12q-35 0 -91.5 -34t-128.5 -97h75q104 0 144 3t60 11q8 13 8 38z" />
    <glyph glyph-name="uni0636" unicode="&#x636;" horiz-adv-x="1221" 
d="M1104.5 347.5q34.5 -26.5 53 -67t18.5 -82.5q0 -43 -19.5 -81.5t-48.5 -62.5q-28 -23 -63 -35t-82 -15.5t-125 -3.5h-59q-88 0 -127.5 3.5t-65.5 18.5q-27 -109 -109.5 -158.5t-196.5 -49.5q-77 0 -131.5 26t-83 73t-28.5 110q0 32 5.5 63.5t13.5 57.5l90 34l11 -4
q-7 -49 -7 -94q0 -67 35.5 -104t119.5 -37q62 0 106.5 19.5t65.5 49.5q3 14 3 28q0 38 -15.5 81.5t-44.5 106.5l109 77h6l14 -43q4 -10 14 -40.5t18 -47.5q8 -16 17.5 -25t24.5 -13t41 -6q90 88 152 140.5t113 80t95 27.5q46 0 80.5 -26.5zM1075 177q0 18 -8.5 36.5
t-24 30.5t-34.5 12q-35 0 -91.5 -34t-128.5 -97h75q104 0 144 3t60 11q8 13 8 38zM1018 467l-107 76l67 98l106 -74z" />
    <glyph glyph-name="uni0637" unicode="&#x637;" horiz-adv-x="722" 
d="M604.5 347.5q34.5 -26.5 53 -67t18.5 -82.5q0 -43 -19.5 -81.5t-48.5 -62.5q-28 -23 -62.5 -35t-81.5 -15.5t-125 -3.5h-238l-59 111l4 14h116l37 35v502l115 31l10 -6l-2 -415q64 52 112 77t90 25q46 0 80.5 -26.5zM576 177q0 18 -8.5 36.5t-24 30.5t-35.5 12
q-68 0 -220 -131h75q104 0 144 3t61 11q8 16 8 38z" />
    <glyph glyph-name="uni0638" unicode="&#x638;" horiz-adv-x="722" 
d="M604.5 347.5q34.5 -26.5 53 -67t18.5 -82.5q0 -43 -19.5 -81.5t-48.5 -62.5q-28 -23 -62.5 -35t-81.5 -15.5t-125 -3.5h-238l-59 111l4 14h116l37 35v502l115 31l10 -6l-2 -415q64 52 112 77t90 25q46 0 80.5 -26.5zM576 177q0 18 -8.5 36.5t-24 30.5t-35.5 12
q-68 0 -220 -131h75q104 0 144 3t61 11q8 16 8 38zM531 467l-107 76l67 98l106 -74z" />
    <glyph glyph-name="uni0639" unicode="&#x639;" horiz-adv-x="549" 
d="M603 -367q-45 -22 -108 -35.5t-135 -13.5q-101 0 -176 27t-116 79t-41 124q0 126 145 219q-48 39 -75 88.5t-27 100.5q0 60 28 104t76 66.5t107 22.5q37 0 76.5 -8.5t67.5 -21.5l-14 -105l-4 -3q-65 19 -102 19q-47 0 -70 -23t-23 -60q0 -29 18.5 -62.5t51.5 -58.5
q74 32 168 60l6 -2l-9 -132q-150 -32 -223.5 -76.5t-73.5 -104.5q0 -40 28.5 -69.5t82 -45.5t127.5 -16q49 0 99.5 6.5t87.5 17.5l9 -5z" />
    <glyph glyph-name="uni063A" unicode="&#x63a;" horiz-adv-x="549" 
d="M603 -367q-45 -22 -108 -35.5t-135 -13.5q-101 0 -176 27t-116 79t-41 124q0 126 145 219q-48 39 -75 88.5t-27 100.5q0 60 28 104t76 66.5t107 22.5q37 0 76.5 -8.5t67.5 -21.5l-14 -105l-4 -3q-65 19 -102 19q-47 0 -70 -23t-23 -60q0 -29 18.5 -62.5t51.5 -58.5
q74 32 168 60l6 -2l-9 -132q-150 -32 -223.5 -76.5t-73.5 -104.5q0 -40 28.5 -69.5t82 -45.5t127.5 -16q49 0 99.5 6.5t87.5 17.5l9 -5zM300 508l-107 76l67 98l106 -74z" />
    <glyph glyph-name="uni0640" unicode="&#x640;" horiz-adv-x="80" 
d="M27 125h80q21 0 30.5 -11t9.5 -29q0 -39 -15.5 -62t-51.5 -23h-80z" />
    <glyph glyph-name="uni0641" unicode="&#x641;" horiz-adv-x="913" 
d="M780 461q38 -35 59 -94.5t21 -130.5q0 -41 -8 -79.5t-22 -68t-32 -42.5q-40 -31 -134 -44.5t-225 -13.5h-61q-166 0 -253.5 48t-87.5 139q0 32 4.5 61t13.5 61l89 34l10 -5q-9 -46 -9 -83q0 -51 28 -79t87 -39.5t161 -11.5h55q115 0 185 8.5t90 20.5l6 38q-42 -9 -94 -9
q-68 0 -102.5 32t-34.5 87q0 47 22 95t60 79.5t83 31.5q51 0 89 -35zM637 285.5q16 -7.5 50 -7.5q33 0 71 5q-7 39 -27.5 67t-47.5 28q-16 0 -30.5 -10.5t-23 -26.5t-8.5 -32t16 -23.5zM690 569l-107 76l67 98l106 -74z" />
    <glyph glyph-name="uni0642" unicode="&#x642;" horiz-adv-x="748" 
d="M615 319q38 -35 59 -94.5t21 -130.5q0 -143 -89 -211.5t-266 -68.5q-100 0 -168 27.5t-101.5 75t-33.5 108.5q0 48 17 114l103 35l11 -6q-5 -27 -8 -48t-3 -38q0 -46 18.5 -77.5t63.5 -48.5t122 -17q82 0 139 17.5t80 42.5l9 38q-43 -8 -91 -8q-68 0 -102.5 32t-34.5 87
q0 47 22 95t60 79.5t83 31.5q51 0 89 -35zM472 143.5q16 -7.5 50 -7.5q33 0 71 5q-7 39 -27.5 67t-47.5 28q-17 0 -31 -10.5t-22.5 -26.5t-8.5 -32t16 -23.5zM664 540l-64 -96l-98 69l-44 -69l-103 72l64 94l97 -67l45 67z" />
    <glyph glyph-name="uni0643" unicode="&#x643;" horiz-adv-x="832" 
d="M771 687v-469q0 -83 -31 -133t-103 -73.5t-198 -23.5h-61q-166 0 -253.5 48t-87.5 139q0 32 4.5 61t13.5 61l89 34l10 -5q-9 -46 -9 -83q0 -51 28 -79t87 -39.5t161 -11.5h55q50 0 98.5 7t64.5 16q7 30 7 78v448l115 31zM313 350q30 0 47 1q-11 15 -17 31.5t-6 32.5
q0 39 24 62.5t65 23.5q16 0 35.5 -4.5t38.5 -12.5l-17 -63q-23 8 -44 8q-17 0 -26.5 -7.5t-9.5 -23.5q0 -12 5.5 -23.5t15.5 -20.5q57 4 86 7l6 -66q-80 -10 -196 -14z" />
    <glyph glyph-name="uni0644" unicode="&#x644;" horiz-adv-x="669" 
d="M149.5 -160.5q-54.5 25.5 -83.5 73t-29 110.5q0 26 6 63.5t13 57.5l90 34l11 -4q-7 -36 -7 -94q0 -69 37.5 -105t117.5 -36q57 0 100.5 16t66.5 47q10 60 10 133v527l116 31l10 -6l-1 -544q0 -109 -41 -183t-114.5 -110t-171.5 -36q-76 0 -130.5 25.5z" />
    <glyph glyph-name="uni0645" unicode="&#x645;" horiz-adv-x="507" 
d="M370.5 318.5q41.5 -36.5 65 -93.5t23.5 -115q0 -64 -18.5 -94t-60.5 -30q-17 0 -31.5 1t-25.5 2q-46 4 -71 4q-23 0 -46.5 -4t-41.5 -11q-4 -17 -4 -45q0 -37 6.5 -81t18.5 -108l10 -55l-111 -50l-9 6q-4 30 -16 96q-11 61 -16.5 98t-5.5 64q0 51 24.5 99t74 79t120.5 31
q40 0 98 -8q-2 34 -18 64.5t-40 49t-49 18.5q-26 0 -46.5 -20t-32.5 -59l-52 -6l-9 6q5 60 30.5 105t63 69t76.5 24q52 0 93.5 -36.5z" />
    <glyph glyph-name="uni0646" unicode="&#x646;" horiz-adv-x="642" 
d="M151 -160.5q-55 25.5 -84.5 72.5t-29.5 111q0 25 6 63t13 58l90 34l11 -4q-7 -35 -7 -94q0 -71 38.5 -106t116.5 -35q57 0 103 18.5t69 50.5q3 14 3 28q0 33 -14.5 76.5t-45.5 111.5l109 77h6q23 -52 38.5 -113.5t15.5 -102.5q0 -81 -38 -142.5t-108 -95t-163 -33.5
q-74 0 -129 25.5zM309 317l-107 76l67 98l106 -74z" />
    <glyph glyph-name="uni0647" unicode="&#x647;" horiz-adv-x="429" 
d="M333 301.5q47 -71.5 47 -138.5q0 -51 -22 -89.5t-62 -59.5t-94 -21q-79 0 -123 37t-44 104q0 39 22 87t75 114l-29 22l61 104l10 7q112 -95 159 -166.5zM255 131q17 13 17 36q0 43 -68 108q-62 -61 -62 -108q0 -22 17.5 -35.5t46.5 -13.5q32 0 49 13z" />
    <glyph glyph-name="uni0648" unicode="&#x648;" horiz-adv-x="439" 
d="M306.5 320.5q38.5 -34.5 59 -92.5t20.5 -128q0 -71 -37 -134.5t-111.5 -103t-182.5 -40.5l-60 95l7 11q104 1 171.5 28.5t95.5 78.5q-36 -6 -80 -6q-68 0 -102.5 32t-34.5 88q0 47 22.5 95t60.5 79.5t83 31.5q50 0 88.5 -34.5zM163.5 144q15.5 -7 50.5 -7q32 0 70 5
q-6 39 -26.5 67t-47.5 28q-17 0 -31 -10.5t-22.5 -26.5t-8.5 -32q0 -17 15.5 -24z" />
    <glyph glyph-name="uni0649" unicode="&#x649;" horiz-adv-x="778" 
d="M168.5 -130q-68.5 27 -100 74.5t-31.5 109.5q0 52 16 114l104 35l9 -6q-5 -27 -7.5 -48t-2.5 -38q0 -47 18 -78t64 -48t128 -17q56 0 106 9.5t86 24.5t55 31q2 8 2 10q0 12 -15.5 22t-56.5 25q-44 15 -69 28t-41 36t-16 61q0 51 27 110.5t77 101t116 41.5q30 0 59 -7
t49 -17l-24 -120l-5 -3q-20 9 -45.5 15.5t-47.5 6.5q-30 0 -56.5 -13.5t-42.5 -33.5t-16 -39q0 -13 11.5 -22.5t33.5 -18.5t67 -25q47 -17 72 -33t34 -32t9 -37q0 -68 -52.5 -124.5t-143 -89t-197.5 -32.5q-105 0 -173.5 27z" />
    <glyph glyph-name="uni064A" unicode="&#x64a;" horiz-adv-x="778" 
d="M168.5 -130q-68.5 27 -100 74.5t-31.5 109.5q0 52 16 114l104 35l9 -6q-5 -27 -7.5 -48t-2.5 -38q0 -47 18 -78t64 -48t128 -17q56 0 106 9.5t86 24.5t55 31q2 8 2 10q0 12 -15.5 22t-56.5 25q-44 15 -69 28t-41 36t-16 61q0 51 27 110.5t77 101t116 41.5q30 0 59 -7
t49 -17l-24 -120l-5 -3q-20 9 -45.5 15.5t-47.5 6.5q-30 0 -56.5 -13.5t-42.5 -33.5t-16 -39q0 -13 11.5 -22.5t33.5 -18.5t67 -25q47 -17 72 -33t34 -32t9 -37q0 -68 -52.5 -124.5t-143 -89t-197.5 -32.5q-105 0 -173.5 27zM497 -300l-64 -96l-97 69l-46 -69l-102 72l63 94
l99 -68l45 68z" />
    <glyph glyph-name="uni064B" unicode="&#x64b;" 
d="M33 719v74l253 46v-75zM33 596v74l253 46v-75z" />
    <glyph glyph-name="uni064C" unicode="&#x64c;" 
d="M322 837q19 -13 29.5 -33.5t10.5 -42.5q0 -40 -27.5 -72t-83.5 -52.5t-137 -24.5l-16 59q8 11 8 23q0 8 -4 12t-12 4q-11 0 -23 -10l-32 49q11 11 31.5 20t39.5 9q31 0 49 -19t18 -49q0 -16 -4 -28q32 3 58 12q-18 14 -27 28t-9 35q0 22 12 43.5t32.5 35.5t43.5 14
q24 0 43 -13zM298 759q0 11 -6.5 19t-16.5 8t-17.5 -7.5t-7.5 -17.5t8 -18.5t23 -18.5q17 17 17 35z" />
    <glyph glyph-name="uni064D" unicode="&#x64d;" 
d="M40 -226v74l239 46v-75zM40 -343v74l239 46v-75z" />
    <glyph glyph-name="uni064E" unicode="&#x64e;" 
d="M33 596v74l253 46v-75z" />
    <glyph glyph-name="uni064F" unicode="&#x64f;" 
d="M242.5 838.5q18.5 -11.5 29.5 -31t11 -43.5q0 -38 -23 -66.5t-75 -50.5t-138 -38l-14 62q64 11 111 26q-17 14 -24.5 29t-7.5 37q0 21 12 41t32.5 33t45.5 13q22 0 40.5 -11.5zM220 758q0 11 -7 19.5t-17 8.5q-9 0 -16.5 -8t-7.5 -18q0 -9 6.5 -16.5t23.5 -17.5
q18 15 18 32z" />
    <glyph glyph-name="uni0650" unicode="&#x650;" 
d="M40 -226v74l239 46v-75z" />
    <glyph glyph-name="uni0651" unicode="&#x651;" 
d="M327 753.5q4 -18.5 4 -38.5q0 -46 -24.5 -75t-70.5 -29q-19 0 -34.5 6.5t-24.5 17.5q-11 -13 -28.5 -19.5t-37.5 -6.5q-49 0 -70.5 25t-21.5 64q0 10 2.5 28t6.5 31l68 2q-4 -21 -4 -43q0 -18 6 -26.5t18 -8.5q10 0 15.5 6t8.5 22t3 45l65 4q-1 -20 -1 -41q0 -33 26 -33
q14 0 19 9t5 27q0 13 -3 28.5t-7 29.5l69 15q7 -21 11 -39.5z" />
    <glyph glyph-name="uni0652" unicode="&#x652;" 
d="M65.5 624q-25.5 25 -25.5 66q0 30 12 53t34.5 35.5t51.5 12.5q42 0 66.5 -27t24.5 -71q0 -28 -12 -49t-34 -33t-50 -12q-42 0 -67.5 25zM157.5 669q8.5 9 8.5 23q0 15 -9 24t-23 9q-13 0 -22.5 -9t-9.5 -24q0 -14 9 -23t23 -9q15 0 23.5 9z" />
    <glyph glyph-name="uni0653" unicode="&#x653;" 
d="M265.5 601.5q-14.5 3.5 -23 6t-11.5 3.5q-17 6 -31 9.5t-28 3.5q-36 0 -76 -25l-36 56q26 25 50.5 36t49.5 11q15 0 32.5 -3.5t33.5 -8.5q21 -6 37.5 -9.5t32.5 -3.5q25 0 46 8l23 -67q-37 -20 -71 -20q-14 0 -28.5 3.5z" />
    <glyph glyph-name="uni0654" unicode="&#x654;" 
d="M238 618q-78 -10 -195 -14l-7 72q30 0 46 1q-10 14 -16 30.5t-6 32.5q0 39 23.5 62.5t65.5 23.5q32 0 74 -16l-17 -65q-24 8 -43 8q-16 0 -25 -8.5t-9 -23.5q0 -23 20 -41q58 4 84 7z" />
    <glyph glyph-name="uni0655" unicode="&#x655;" 
d="M238 -265q-78 -10 -195 -14l-7 72q30 0 45 1q-9 14 -15 30.5t-6 31.5q0 39 23.5 62.5t65.5 23.5q35 0 74 -15l-17 -65q-29 8 -43 8q-16 0 -25 -8.5t-9 -23.5q0 -23 20 -41q60 4 84 7z" />
    <glyph glyph-name="uni0656" unicode="&#x656;" 
d="M27 -247v192h88v-192h-88z" />
    <glyph glyph-name="uni0658" unicode="&#x658;" 
d="M86.5 619q-29.5 26 -29.5 71q0 23 8 53l62 18q-4 -24 -4 -43q0 -25 13 -38t42 -13q25 0 42.5 8.5t30.5 20.5q0 15 -6.5 34.5t-19.5 48.5l67 44q12 -25 18 -52t6 -50q0 -35 -19.5 -64.5t-53 -46.5t-74.5 -17q-53 0 -82.5 26z" />
    <glyph glyph-name="uni0660" unicode="&#x660;" horiz-adv-x="527" 
d="M230 182l-66 61l90 98q54 -46 109 -104l-93 -93z" />
    <glyph glyph-name="uni0661" unicode="&#x661;" horiz-adv-x="527" 
d="M249 -7q-12 133 -30.5 277t-38.5 241l112 79l14 -2q14 -73 26 -188.5t19.5 -225t7.5 -160.5l-97 -25z" />
    <glyph glyph-name="uni0662" unicode="&#x662;" horiz-adv-x="527" 
d="M485 566q-2 -111 -51 -165.5t-132 -54.5q-53 0 -99 20q11 -101 17.5 -201.5t6.5 -150.5l-97 -25l-13 4q-12 133 -30.5 277t-38.5 241l112 79l14 -2q4 -21 10 -64l4 -25q21 -14 46.5 -21t53.5 -7q33 0 54.5 8.5t35.5 32t18 68.5z" />
    <glyph glyph-name="uni0663" unicode="&#x663;" horiz-adv-x="527" 
d="M491 522q9 -34 9 -63q0 -46 -17.5 -73t-41.5 -38t-47 -11q-30 0 -56.5 9.5t-44.5 26.5q-10 -19 -26.5 -29t-38.5 -10q-25 0 -47 11q10 -100 16 -193t6 -138l-97 -25l-13 4q-12 133 -30.5 277t-38.5 241l112 79l14 -2q11 -63 16 -102q6 -17 19 -25.5t27 -8.5q18 0 30 17.5
t18 65.5l67 -8q-1 -7 -2.5 -19.5t-1.5 -24.5q0 -14 12 -21t33 -7q20 0 28.5 8t8.5 24q0 13 -5 33t-12 40l78 30q16 -34 25 -68z" />
    <glyph glyph-name="uni0664" unicode="&#x664;" horiz-adv-x="527" 
d="M469 125l-39 -111q-25 -8 -60 -13t-77 -5q-96 0 -141 33.5t-45 94.5q0 77 93 149q-45 19 -68 43.5t-23 56.5q0 43 30 87t92 79t151 50l8 -5l-22 -130q-49 -8 -80.5 -19.5t-45.5 -24.5t-14 -25q0 -10 13 -19.5t45 -15.5t83 -6l7 -9l-22 -87q-51 -17 -88 -42.5t-37 -46.5
q0 -18 26 -27.5t77 -9.5q25 0 91 6q14 2 40 4z" />
    <glyph glyph-name="uni0665" unicode="&#x665;" horiz-adv-x="527" 
d="M108.5 50.5q-46.5 55.5 -46.5 157.5q0 67 26 131t73 104t107 40q58 0 104.5 -35.5t72.5 -97.5t26 -138q0 -97 -46.5 -157t-156.5 -60q-113 0 -159.5 55.5zM333.5 144q18.5 24 18.5 60q0 40 -10 75.5t-29 57t-45 21.5t-46 -22t-30.5 -57.5t-10.5 -74.5q0 -36 19 -60
t68 -24q47 0 65.5 24z" />
    <glyph glyph-name="uni0666" unicode="&#x666;" horiz-adv-x="527" 
d="M398.5 413q11.5 -107 27 -218t28.5 -178l-116 -30l-10 4q-3 27 -4 33q-13 108 -22.5 215t-11.5 211q-36 -2 -56 -2q-48 0 -97 4.5t-80 12.5l10 116l6 6q84 -15 194 -15q66 0 120 6q0 -58 11.5 -165z" />
    <glyph glyph-name="uni0667" unicode="&#x667;" horiz-adv-x="527" 
d="M416 590l104 -75l-199 -508l-115 -17l-199 544l121 55l11 -3l124 -459l141 461z" />
    <glyph glyph-name="uni0668" unicode="&#x668;" horiz-adv-x="527" 
d="M321 590l198 -546l-121 -54l-10 2l-124 461l-142 -462l-11 -1l-104 74l198 508z" />
    <glyph glyph-name="uni0669" unicode="&#x669;" horiz-adv-x="527" 
d="M451.5 162.5q14.5 -106.5 22.5 -145.5l-107 -30l-11 4q-14 102 -31 250q-37 -10 -78 -10q-49 0 -87 16t-60 47t-22 76q0 52 26 103t69.5 83t91.5 32q81 0 119 -70.5t47 -182.5q6 -66 20.5 -172.5zM264 348q13 0 48 5q-8 61 -22.5 89t-39.5 28q-16 0 -29 -11.5t-20.5 -29
t-7.5 -35.5q0 -46 71 -46z" />
    <glyph glyph-name="uni066A" unicode="&#x66a;" horiz-adv-x="519" 
d="M160 -24l-91 40l280 609l94 -44zM26 526l86 91q53 -43 103 -98l-88 -88zM303 83l86 91q50 -41 103 -98l-88 -88z" />
    <glyph glyph-name="uni066B" unicode="&#x66b;" horiz-adv-x="240" 
d="M20 -134q53 69 53 107q0 13 -5 20.5t-16 17.5q-7 6 -13.5 13.5t-10.5 18t-4 25.5q0 19 9.5 37t27.5 29.5t42 11.5q38 0 59.5 -26t21.5 -71q0 -52 -26.5 -105.5t-74.5 -113.5z" />
    <glyph glyph-name="uni066C" unicode="&#x66c;" horiz-adv-x="203" 
d="M16 -107q42 55 42 85q0 11 -4 17t-13 14q-11 9 -16.5 18.5t-5.5 26.5q0 15 7.5 30t22 24t33.5 9q31 0 48 -21t17 -57q0 -42 -21 -85t-60 -90z" />
    <glyph glyph-name="uni066D" unicode="&#x66d;" horiz-adv-x="710" 
d="M160 -16l-22 17l124 234l-222 108l6 28l248 -26l47 239h29l46 -238l248 25l6 -30l-224 -104l126 -236l-22 -17l-195 171z" />
    <glyph glyph-name="uni066E" unicode="&#x66e;" horiz-adv-x="858" 
d="M793.5 276q11.5 -52 11.5 -88q0 -46 -20.5 -89.5t-58.5 -66.5q-35 -21 -112 -32.5t-175 -11.5h-61q-166 0 -253.5 48t-87.5 139q0 32 4.5 61t13.5 61l89 34l10 -5q-9 -46 -9 -83q0 -51 28 -79t87 -39.5t161 -11.5h55q68 0 129.5 6t91.5 15q3 50 -52 168l102 82h12
q23 -56 34.5 -108z" />
    <glyph glyph-name="uni066F" unicode="&#x66f;" horiz-adv-x="748" 
d="M615 319q38 -35 59 -94.5t21 -130.5q0 -143 -89 -211.5t-266 -68.5q-100 0 -168 27.5t-101.5 75t-33.5 108.5q0 48 17 114l103 35l11 -6q-5 -27 -8 -48t-3 -38q0 -46 18.5 -77.5t63.5 -48.5t122 -17q82 0 139 17.5t80 42.5l9 38q-43 -8 -91 -8q-68 0 -102.5 32t-34.5 87
q0 47 22 95t60 79.5t83 31.5q51 0 89 -35zM472 143.5q16 -7.5 50 -7.5q33 0 71 5q-7 39 -27.5 67t-47.5 28q-17 0 -31 -10.5t-22.5 -26.5t-8.5 -32t16 -23.5z" />
    <glyph glyph-name="uni0670" unicode="&#x670;" 
d="M27 621v206h88v-206h-88z" />
    <glyph glyph-name="uni0671" unicode="&#x671;" horiz-adv-x="248" 
d="M69 -7l-8 6v663l116 31l10 -6l-3 -670zM227.5 871.5q13.5 -9.5 20 -24t6.5 -29.5q0 -73 -101 -73q-41 0 -67 5.5t-44 15.5q-25 -20 -63 -20l10 44q14 0 21 2.5t13 8.5q9 14 17 47l49 6l3 -2q-15 -38 -23 -53q6 -2 20 -4q35 45 59 65.5t47 20.5q19 0 32.5 -9.5zM215 808
q0 11 -6 18.5t-16 7.5q-12 0 -25.5 -10.5t-32.5 -32.5h18q21 0 38.5 2t22.5 5q1 4 1 10z" />
    <glyph glyph-name="uni0679" unicode="&#x679;" horiz-adv-x="858" 
d="M793.5 276q11.5 -52 11.5 -88q0 -46 -20.5 -89.5t-58.5 -66.5q-35 -21 -112 -32.5t-175 -11.5h-61q-166 0 -253.5 48t-87.5 139q0 32 4.5 61t13.5 61l89 34l10 -5q-9 -46 -9 -83q0 -51 28 -79t87 -39.5t161 -11.5h55q68 0 129.5 6t91.5 15q3 50 -52 168l102 82h12
q23 -56 34.5 -108zM518 591q19 -12 31 -32.5t12 -45.5q0 -44 -32 -72.5t-111 -28.5q-62 0 -106 2l-19 65l2 6l38 -1l14 18v171h68v-96q32 26 65 26q19 0 38 -12zM500.5 519q-9.5 13 -25.5 13q-31 0 -77 -49h27q22 0 48.5 1t33.5 4q3 18 -6.5 31z" />
    <glyph glyph-name="uni067E" unicode="&#x67e;" horiz-adv-x="858" 
d="M793.5 276q11.5 -52 11.5 -88q0 -46 -20.5 -89.5t-58.5 -66.5q-35 -21 -112 -32.5t-175 -11.5h-61q-166 0 -253.5 48t-87.5 139q0 32 4.5 61t13.5 61l89 34l10 -5q-9 -46 -9 -83q0 -51 28 -79t87 -39.5t161 -11.5h55q68 0 129.5 6t91.5 15q3 50 -52 168l102 82h12
q23 -56 34.5 -108zM414 -182l-46 -66l-101 70l63 96l96 -69l45 69l102 -73l-63 -93zM357 -316l63 96l102 -71l-63 -94z" />
    <glyph glyph-name="uni0686" unicode="&#x686;" horiz-adv-x="645" 
d="M647 -264l-37 -104q-36 -23 -90 -35.5t-118 -12.5q-109 0 -191.5 31.5t-128 91t-45.5 142.5q0 80 44 155t117 135t160 100q-55 16 -92.5 23t-65.5 7q-36 0 -76.5 -7t-70.5 -18l-5 5l43 107q23 14 55.5 22.5t63.5 8.5q26 0 59.5 -6.5t84.5 -22.5q82 -26 144 -36t129 -10
l-30 -121q-123 -6 -224.5 -49t-160 -111.5t-58.5 -146.5q0 -86 75 -130.5t212 -44.5q46 0 97.5 8.5t102.5 24.5zM402 -42l-42 -62l-92 63l57 87l91 -64l42 64l92 -65l-57 -85zM353 -169l58 88l92 -66l-57 -84z" />
    <glyph glyph-name="uni0688" unicode="&#x688;" horiz-adv-x="452" 
d="M87.5 -5.5q-40.5 3.5 -60.5 7.5l18 121l7 4q16 -4 52 -6t65 -2q40 0 83 5t60 15q-11 42 -58.5 104t-103.5 114l77 111h10q78 -83 124.5 -161.5t46.5 -143.5q0 -55 -30.5 -94t-86.5 -58.5t-130 -19.5q-33 0 -73.5 3.5zM294 762q19 -12 31 -32.5t12 -45.5q0 -44 -32 -72.5
t-111 -28.5q-62 0 -106 2l-19 65l2 6l38 -1l14 18v171h68v-96q32 26 65 26q19 0 38 -12zM276.5 690q-9.5 13 -25.5 13q-31 0 -77 -49h27q22 0 48.5 1t33.5 4q3 18 -6.5 31z" />
    <glyph glyph-name="uni0691" unicode="&#x691;" horiz-adv-x="357" 
d="M-79 -91l7 10q77 13 141 39.5t101 55t37 47.5q-2 25 -23.5 74.5t-48.5 97.5l90 101h11q32 -58 49.5 -124t17.5 -116q0 -65 -29 -116q-21 -38 -63.5 -71t-100 -56.5t-122.5 -33.5zM292 628q19 -12 31 -32.5t12 -45.5q0 -44 -32 -72.5t-111 -28.5q-62 0 -106 2l-19 65l2 6
l38 -1l14 18v171h68v-96q32 26 65 26q19 0 38 -12zM274.5 556q-9.5 13 -25.5 13q-31 0 -77 -49h27q22 0 48.5 1t33.5 4q3 18 -6.5 31z" />
    <glyph glyph-name="uni0698" unicode="&#x698;" horiz-adv-x="357" 
d="M-79 -91l7 10q77 13 141 39.5t101 55t37 47.5q-2 25 -23.5 74.5t-48.5 97.5l90 101h11q32 -58 49.5 -124t17.5 -116q0 -65 -29 -116q-21 -38 -63.5 -71t-100 -56.5t-122.5 -33.5zM282 670l-63 -96l-103 72l64 93zM373 527l-64 -96l-98 69l-45 -69l-102 72l64 94l97 -67
l46 67z" />
    <glyph glyph-name="uni06A1" unicode="&#x6a1;" horiz-adv-x="913" 
d="M780 461q38 -35 59 -94.5t21 -130.5q0 -41 -8 -79.5t-22 -68t-32 -42.5q-40 -31 -134 -44.5t-225 -13.5h-61q-166 0 -253.5 48t-87.5 139q0 32 4.5 61t13.5 61l89 34l10 -5q-9 -46 -9 -83q0 -51 28 -79t87 -39.5t161 -11.5h55q115 0 185 8.5t90 20.5l6 38q-42 -9 -94 -9
q-68 0 -102.5 32t-34.5 87q0 47 22 95t60 79.5t83 31.5q51 0 89 -35zM637 285.5q16 -7.5 50 -7.5q33 0 71 5q-7 39 -27.5 67t-47.5 28q-16 0 -30.5 -10.5t-23 -26.5t-8.5 -32t16 -23.5z" />
    <glyph glyph-name="uni06A4" unicode="&#x6a4;" horiz-adv-x="913" 
d="M780 461q38 -35 59 -94.5t21 -130.5q0 -41 -8 -79.5t-22 -68t-32 -42.5q-40 -31 -134 -44.5t-225 -13.5h-61q-166 0 -253.5 48t-87.5 139q0 32 4.5 61t13.5 61l89 34l10 -5q-9 -46 -9 -83q0 -51 28 -79t87 -39.5t161 -11.5h55q115 0 185 8.5t90 20.5l6 38q-42 -9 -94 -9
q-68 0 -102.5 32t-34.5 87q0 47 22 95t60 79.5t83 31.5q51 0 89 -35zM637 285.5q16 -7.5 50 -7.5q33 0 71 5q-7 39 -27.5 67t-47.5 28q-16 0 -30.5 -10.5t-23 -26.5t-8.5 -32t16 -23.5zM745 812l-63 -96l-103 72l64 93zM836 669l-64 -96l-98 69l-45 -69l-102 72l64 94
l97 -67l46 67z" />
    <glyph glyph-name="uni06A9" unicode="&#x6a9;" horiz-adv-x="892" 
d="M855 503l-212 -105q77 -51 118.5 -91.5t56.5 -71.5t15 -62q0 -70 -41.5 -110.5t-127 -57.5t-225.5 -17h-61q-166 0 -253.5 48t-87.5 139q0 32 4.5 61t13.5 61l89 34l10 -5q-9 -46 -9 -83q0 -51 28 -79t87 -39.5t161 -11.5h55q97 0 161 9.5t92 26.5q0 31 -58.5 78
t-154.5 107l-4 7l29 140l346 179l9 -6z" />
    <glyph glyph-name="uni06AF" unicode="&#x6af;" horiz-adv-x="889" 
d="M872 727l-328 -169l-9 7l26 117l334 168l9 -6zM887 660l9 -6l-41 -151l-212 -105q77 -51 118.5 -91.5t56.5 -71.5t15 -62q0 -70 -41.5 -110.5t-127 -57.5t-225.5 -17h-61q-166 0 -253.5 48t-87.5 139q0 32 4.5 61t13.5 61l89 34l10 -5q-9 -46 -9 -83q0 -51 28 -79
t87 -39.5t161 -11.5h55q97 0 161 9.5t92 26.5q0 31 -58.5 78t-154.5 107l-4 7l29 140z" />
    <glyph glyph-name="uni06BA" unicode="&#x6ba;" horiz-adv-x="642" 
d="M151 -160.5q-55 25.5 -84.5 72.5t-29.5 111q0 25 6 63t13 58l90 34l11 -4q-7 -35 -7 -94q0 -71 38.5 -106t116.5 -35q57 0 103 18.5t69 50.5q3 14 3 28q0 33 -14.5 76.5t-45.5 111.5l109 77h6q23 -52 38.5 -113.5t15.5 -102.5q0 -81 -38 -142.5t-108 -95t-163 -33.5
q-74 0 -129 25.5z" />
    <glyph glyph-name="uni06BE" unicode="&#x6be;" horiz-adv-x="662" 
d="M511.5 294.5q112.5 -88.5 112.5 -174.5q0 -62 -41.5 -93t-116.5 -31q-85 0 -152 31q-23 -10 -49.5 -15.5t-73.5 -10.5q-36 -5 -62.5 -13t-54.5 -24h-9l-45 89q23 26 67.5 44.5t87.5 21.5l29 2q-25 42 -25 88q0 36 16 72t44 58q-15 7 -26 12t-18 8l37 107l10 2
q157 -85 269.5 -173.5zM345 169.5q10 20.5 10 47.5q0 20 -6 36.5t-15 26t-20 9.5t-20.5 -8.5t-15.5 -24.5t-6 -37q0 -55 45 -84q18 14 28 34.5zM504 107q22 3 27 7q-15 41 -86 99q-2 -58 -35 -106q26 -3 56 -3q16 0 38 3z" />
    <glyph glyph-name="uni06C1" unicode="&#x6c1;" horiz-adv-x="429" 
d="M333 301.5q47 -71.5 47 -138.5q0 -51 -22 -89.5t-62 -59.5t-94 -21q-79 0 -123 37t-44 104q0 39 22 87t75 114l-29 22l61 104l10 7q112 -95 159 -166.5zM255 131q17 13 17 36q0 43 -68 108q-62 -61 -62 -108q0 -22 17.5 -35.5t46.5 -13.5q32 0 49 13z" />
    <glyph glyph-name="uni06C2" unicode="&#x6c2;" horiz-adv-x="429" 
d="M333 301.5q47 -71.5 47 -138.5q0 -51 -22 -89.5t-62 -59.5t-94 -21q-79 0 -123 37t-44 104q0 39 22 87t75 114l-29 22l61 104l10 7q112 -95 159 -166.5zM255 131q17 13 17 36q0 43 -68 108q-62 -61 -62 -108q0 -22 17.5 -35.5t46.5 -13.5q32 0 49 13zM296 574
q-78 -10 -195 -14l-7 72q30 0 46 1q-10 14 -16 30.5t-6 32.5q0 39 23.5 62.5t65.5 23.5q32 0 74 -16l-17 -65q-24 8 -43 8q-16 0 -25 -8.5t-9 -23.5q0 -23 20 -41q58 4 84 7z" />
    <glyph glyph-name="uni06C3" unicode="&#x6c3;" horiz-adv-x="429" 
d="M333 301.5q47 -71.5 47 -138.5q0 -51 -22 -89.5t-62 -59.5t-94 -21q-79 0 -123 37t-44 104q0 39 22 87t75 114l-29 22l61 104l10 7q112 -95 159 -166.5zM255 131q17 13 17 36q0 43 -68 108q-62 -61 -62 -108q0 -22 17.5 -35.5t46.5 -13.5q32 0 49 13zM347 631l-64 -96
l-98 69l-44 -69l-103 72l64 94l97 -67l45 67z" />
    <glyph glyph-name="uni06CC" unicode="&#x6cc;" horiz-adv-x="778" 
d="M168.5 -130q-68.5 27 -100 74.5t-31.5 109.5q0 52 16 114l104 35l9 -6q-5 -27 -7.5 -48t-2.5 -38q0 -47 18 -78t64 -48t128 -17q56 0 106 9.5t86 24.5t55 31q2 8 2 10q0 12 -15.5 22t-56.5 25q-44 15 -69 28t-41 36t-16 61q0 51 27 110.5t77 101t116 41.5q30 0 59 -7
t49 -17l-24 -120l-5 -3q-20 9 -45.5 15.5t-47.5 6.5q-30 0 -56.5 -13.5t-42.5 -33.5t-16 -39q0 -13 11.5 -22.5t33.5 -18.5t67 -25q47 -17 72 -33t34 -32t9 -37q0 -68 -52.5 -124.5t-143 -89t-197.5 -32.5q-105 0 -173.5 27z" />
    <glyph glyph-name="uni06D2" unicode="&#x6d2;" horiz-adv-x="896" 
d="M337.5 0q-165.5 11 -246.5 45t-81 103q0 45 24 76.5t54.5 49.5t73.5 37q33 14 39 21q8 10 15 19.5t13 17.5q21 30 36 47.5t37 30.5t49 13q37 0 69.5 -29.5t51.5 -79t18 -107.5l-89 -33l-8 5q-4 39 -17.5 72.5t-29.5 41.5q-7 0 -13 -8t-14 -25q-9 -19 -18.5 -35t-24.5 -29
q-21 -19 -49.5 -29.5t-65.5 -18.5q-4 -1 -20 -5.5t-23 -8.5t-7 -9q43 -48 744 -48l6 -8l-47 -117q-311 0 -476.5 11z" />
    <glyph glyph-name="uni06D3" unicode="&#x6d3;" horiz-adv-x="896" 
d="M337.5 0q-165.5 11 -246.5 45t-81 103q0 45 24 76.5t54.5 49.5t73.5 37q33 14 39 21q8 10 15 19.5t13 17.5q21 30 36 47.5t37 30.5t49 13q37 0 69.5 -29.5t51.5 -79t18 -107.5l-89 -33l-8 5q-4 39 -17.5 72.5t-29.5 41.5q-7 0 -13 -8t-14 -25q-9 -19 -18.5 -35t-24.5 -29
q-21 -19 -49.5 -29.5t-65.5 -18.5q-4 -1 -20 -5.5t-23 -8.5t-7 -9q43 -48 744 -48l6 -8l-47 -117q-311 0 -476.5 11zM230 455q-78 -10 -195 -14l-7 72q30 0 46 1q-10 14 -16 30.5t-6 32.5q0 39 23.5 62.5t65.5 23.5q32 0 74 -16l-17 -65q-24 8 -43 8q-16 0 -25 -8.5
t-9 -23.5q0 -23 20 -41q58 4 84 7z" />
    <glyph glyph-name="uni06D4" unicode="&#x6d4;" horiz-adv-x="298" 
d="M96 9q-42 9 -74 22l25 111l5 5q44 -11 79 -16.5t76 -5.5h42l-28 -125h-41q-42 0 -84 9z" />
    <glyph glyph-name="uni06F0" unicode="&#x6f0;" horiz-adv-x="527" 
d="M230 182l-66 61l90 98q54 -46 109 -104l-93 -93z" />
    <glyph glyph-name="uni06F1" unicode="&#x6f1;" horiz-adv-x="527" 
d="M249 -7q-12 133 -30.5 277t-38.5 241l112 79l14 -2q14 -73 26 -188.5t19.5 -225t7.5 -160.5l-97 -25z" />
    <glyph glyph-name="uni06F2" unicode="&#x6f2;" horiz-adv-x="527" 
d="M485 566q-2 -111 -51 -165.5t-132 -54.5q-53 0 -99 20q11 -101 17.5 -201.5t6.5 -150.5l-97 -25l-13 4q-12 133 -30.5 277t-38.5 241l112 79l14 -2q4 -21 10 -64l4 -25q21 -14 46.5 -21t53.5 -7q33 0 54.5 8.5t35.5 32t18 68.5z" />
    <glyph glyph-name="uni06F3" unicode="&#x6f3;" horiz-adv-x="527" 
d="M491 522q9 -34 9 -63q0 -46 -17.5 -73t-41.5 -38t-47 -11q-30 0 -56.5 9.5t-44.5 26.5q-10 -19 -26.5 -29t-38.5 -10q-25 0 -47 11q10 -100 16 -193t6 -138l-97 -25l-13 4q-12 133 -30.5 277t-38.5 241l112 79l14 -2q11 -63 16 -102q6 -17 19 -25.5t27 -8.5q18 0 30 17.5
t18 65.5l67 -8q-1 -7 -2.5 -19.5t-1.5 -24.5q0 -14 12 -21t33 -7q20 0 28.5 8t8.5 24q0 13 -5 33t-12 40l78 30q16 -34 25 -68z" />
    <glyph glyph-name="uni06F4" unicode="&#x6f4;" horiz-adv-x="527" 
d="M345 273q-29 0 -67.5 5t-58 8t-26.5 4q7 -85 11.5 -161t4.5 -115l-97 -25l-13 4q-12 133 -30.5 277t-38.5 241l112 79l14 -2q15 -76 26 -190q40 -6 60 -8q-8 26 -8 53q0 42 17 75t48 51.5t72 18.5q38 0 71 -19.5t51 -52.5l-68 -64q-13 15 -25.5 21.5t-25.5 6.5
q-23 0 -36 -14.5t-13 -35.5q0 -25 17 -50h15q34 0 62.5 5t54.5 16l23 -89q-53 -39 -152 -39z" />
    <glyph glyph-name="uni06F5" unicode="&#x6f5;" horiz-adv-x="527" 
d="M348 489q59 -61 103.5 -145t44.5 -177q0 -51 -17 -90t-48.5 -60.5t-75.5 -21.5q-28 0 -53 10.5t-43 33.5q-34 -44 -91 -44q-40 0 -71 18.5t-48.5 55t-17.5 86.5q0 85 43.5 171.5t108.5 159.5q-6 4 -12.5 9t-13.5 10l68 84h9q55 -39 114 -100zM380 122.5q12 15.5 12 43.5
q0 64 -41.5 132.5t-102.5 128.5q-51 -60 -83.5 -130t-32.5 -128q0 -33 12.5 -47.5t31.5 -14.5q22 0 35.5 19t14.5 57h73q1 -42 13 -59t33 -17q23 0 35 15.5z" />
    <glyph glyph-name="uni06F6" unicode="&#x6f6;" horiz-adv-x="527" 
d="M457 379l-13 -133q-70 -26 -117.5 -60t-80.5 -81.5t-61 -117.5l-99 12l-9 7q25 84 62 145t88 105q-57 32 -85.5 71.5t-28.5 92.5q0 43 21.5 81.5t60.5 62.5t90 24q47 0 83.5 -19.5t56.5 -52.5l-70 -64q-15 15 -29 21t-30 6q-21 0 -35.5 -8.5t-21 -21t-6.5 -26.5
q0 -30 24 -55t70 -42q50 27 120 58z" />
    <glyph glyph-name="uni06F7" unicode="&#x6f7;" horiz-adv-x="527" 
d="M416 590l104 -75l-199 -508l-115 -17l-199 544l121 55l11 -3l124 -459l141 461z" />
    <glyph glyph-name="uni06F8" unicode="&#x6f8;" horiz-adv-x="527" 
d="M321 590l198 -546l-121 -54l-10 2l-124 461l-142 -462l-11 -1l-104 74l198 508z" />
    <glyph glyph-name="uni06F9" unicode="&#x6f9;" horiz-adv-x="527" 
d="M451.5 162.5q14.5 -106.5 22.5 -145.5l-107 -30l-11 4q-14 102 -31 250q-37 -10 -78 -10q-49 0 -87 16t-60 47t-22 76q0 52 26 103t69.5 83t91.5 32q81 0 119 -70.5t47 -182.5q6 -66 20.5 -172.5zM264 348q13 0 48 5q-8 61 -22.5 89t-39.5 28q-16 0 -29 -11.5t-20.5 -29
t-7.5 -35.5q0 -46 71 -46z" />
    <glyph glyph-name="uni2007" unicode="&#x2007;" horiz-adv-x="540" 
 />
    <glyph glyph-name="uni200B" unicode="&#x200b;" 
 />
    <glyph glyph-name="uni200C" unicode="&#x200c;" 
d="M-8 -150v900h16v-900h-16z" />
    <glyph glyph-name="uni200D" unicode="&#x200d;" 
d="M-8 -150v881l-49 -49l-11 11l57 57l-54 54l11 11l54 -54l54 54l11 -11l-54 -54l57 -57l-11 -11l-49 49v-881h-16z" />
    <glyph glyph-name="uni200E" unicode="&#x200e;" 
d="M-8 -150v908h111l-43 55l13 9l55 -72l-55 -72l-13 9l43 55h-95v-892h-16z" />
    <glyph glyph-name="uni200F" unicode="&#x200f;" 
d="M-8 -150v892h-95l43 -55l-13 -9l-55 72l55 72l13 -9l-43 -55h111v-908h-16z" />
    <glyph glyph-name="uni2011" unicode="&#x2011;" horiz-adv-x="380" 
d="M42 210v117h296v-117h-296z" />
    <glyph glyph-name="figuredash" unicode="&#x2012;" horiz-adv-x="540" 
d="M42 266v117h456v-117h-456z" />
    <glyph glyph-name="endash" unicode="&#x2013;" horiz-adv-x="600" 
d="M42 210v117h516v-117h-516z" />
    <glyph glyph-name="emdash" unicode="&#x2014;" horiz-adv-x="1000" 
d="M42 210v117h916v-117h-916z" />
    <glyph glyph-name="uni2015" unicode="&#x2015;" horiz-adv-x="1000" 
d="M-2 210v117h1004v-117h-1004z" />
    <glyph glyph-name="quoteleft" unicode="&#x2018;" horiz-adv-x="190" 
d="M42.5 399q-20.5 22 -20.5 56q0 54 24.5 103t69.5 104l53 -34q-22 -32 -34 -54t-12 -40q0 -17 13 -29q17 -14 25 -27t8 -33q0 -17 -8.5 -32.5t-25 -25.5t-38.5 -10q-34 0 -54.5 22z" />
    <glyph glyph-name="quoteright" unicode="&#x2019;" horiz-adv-x="190" 
d="M21 410q24 36 35 56t11 38t-14 29q-16 15 -24 27.5t-8 32.5q0 17 8.5 32.5t25 25.5t38.5 10q34 0 54 -22t20 -56q0 -54 -24 -103.5t-69 -102.5z" />
    <glyph glyph-name="quotesinglbase" unicode="&#x201a;" horiz-adv-x="190" 
d="M21 -118q24 36 35 56t11 38t-14 29q-16 15 -24 27.5t-8 32.5q0 17 8.5 32.5t25 25.5t38.5 10q34 0 54 -22t20 -56q0 -54 -24 -103.5t-69 -102.5z" />
    <glyph glyph-name="quotedblleft" unicode="&#x201c;" horiz-adv-x="371" 
d="M42.5 399q-20.5 22 -20.5 56q0 54 24.5 103t69.5 104l53 -34q-22 -32 -34 -54t-12 -40q0 -17 13 -29q17 -14 25 -27t8 -33q0 -17 -8.5 -32.5t-25 -25.5t-38.5 -10q-34 0 -54.5 22zM224 399q-20 22 -20 56q0 54 24 103.5t69 103.5l53 -34q-24 -36 -35 -56t-11 -38t14 -29
q16 -15 24 -27.5t8 -32.5q0 -17 -8.5 -32.5t-25 -25.5t-38.5 -10q-34 0 -54 22z" />
    <glyph glyph-name="quotedblright" unicode="&#x201d;" horiz-adv-x="371" 
d="M21 410q24 36 35 56t11 38t-14 29q-16 15 -24 27.5t-8 32.5q0 17 8.5 32.5t25 25.5t38.5 10q34 0 54 -22t20 -56q0 -54 -24 -103.5t-69 -102.5zM202 410q24 36 35 56t11 38t-14 29q-16 15 -24 27.5t-8 32.5q0 17 8.5 32.5t25 25.5t38.5 10q34 0 54 -22t20 -56
q0 -54 -24 -103.5t-69 -102.5z" />
    <glyph glyph-name="quotedblbase" unicode="&#x201e;" horiz-adv-x="371" 
d="M21 -118q24 36 35 56t11 38t-14 29q-16 15 -24 27.5t-8 32.5q0 17 8.5 32.5t25 25.5t38.5 10q34 0 54 -22t20 -56q0 -54 -24 -103.5t-69 -102.5zM202 -118q24 36 35 56t11 38t-14 29q-16 15 -24 27.5t-8 32.5q0 17 8.5 32.5t25 25.5t38.5 10q34 0 54 -22t20 -56
q0 -54 -24 -103.5t-69 -102.5z" />
    <glyph glyph-name="dagger" unicode="&#x2020;" horiz-adv-x="540" 
d="M201 -74v475h-151v121h151v166h138v-166h151v-121h-151v-475h-138z" />
    <glyph glyph-name="daggerdbl" unicode="&#x2021;" horiz-adv-x="540" 
d="M201 -74v166h-151v121h151v188h-151v121h151v166h138v-166h151v-121h-151v-188h151v-121h-151v-166h-138z" />
    <glyph glyph-name="bullet" unicode="&#x2022;" horiz-adv-x="351" 
d="M117.5 202.5q-26.5 15.5 -42 41.5t-15.5 57q0 30 15.5 56t42 41.5t57.5 15.5q30 0 57 -15.5t43 -41.5t16 -56q0 -31 -16 -57t-42.5 -41.5t-57.5 -15.5t-57.5 15.5z" />
    <glyph glyph-name="ellipsis" unicode="&#x2026;" horiz-adv-x="672" 
d="M527.5 -2q-18.5 11 -29.5 29t-11 40q0 21 11 39t29.5 29t40.5 11q21 0 39.5 -11t30 -29t11.5 -39q0 -22 -11 -40t-30 -29t-40 -11q-22 0 -40.5 11zM295.5 -2q-18.5 11 -29.5 29t-11 40q0 21 11 39t29.5 29t40.5 11q21 0 39.5 -11t30 -29t11.5 -39q0 -22 -11 -40t-30 -29
t-40 -11q-22 0 -40.5 11zM62.5 -2q-18.5 11 -29.5 29t-11 40q0 21 11 39t29.5 29t40.5 11q21 0 39.5 -11t30 -29t11.5 -39q0 -22 -11 -40t-30 -29t-40 -11q-22 0 -40.5 11z" />
    <glyph glyph-name="perthousand" unicode="&#x2030;" horiz-adv-x="1357" 
d="M127 300.5q-45 22.5 -72.5 66t-27.5 104.5q0 57 27.5 100.5t72.5 67t97 23.5q51 0 95.5 -22.5t72 -65.5t27.5 -101q0 -61 -27 -105.5t-72 -67t-96 -22.5q-52 0 -97 22.5zM291 -14l-89 58l446 618l90 -58zM273 406q17 26 17 64q0 41 -16.5 65.5t-49.5 24.5
q-34 0 -50.5 -24t-16.5 -62q0 -41 17 -67.5t50 -26.5q32 0 49 26zM618 8.5q-45 22.5 -72.5 66t-27.5 104.5q0 57 27.5 100.5t72.5 67t97 23.5q51 0 95.5 -22.5t72 -65.5t27.5 -101q0 -61 -27 -105.5t-72 -67t-96 -22.5q-52 0 -97 22.5zM1038 8.5q-45 22.5 -72.5 66
t-27.5 104.5q0 57 27.5 100.5t72.5 67t97 23.5q51 0 95.5 -22.5t72 -65.5t27.5 -101q0 -61 -27 -105.5t-72 -67t-96 -22.5q-52 0 -97 22.5zM764 114q17 26 17 64q0 41 -16.5 65.5t-49.5 24.5q-34 0 -50.5 -24t-16.5 -62q0 -41 17 -67.5t50 -26.5q32 0 49 26zM1184 114
q17 26 17 64q0 41 -16.5 65.5t-49.5 24.5q-34 0 -50.5 -24t-16.5 -62q0 -41 17 -67.5t50 -26.5q32 0 49 26z" />
    <glyph glyph-name="guilsinglleft" unicode="&#x2039;" horiz-adv-x="320" 
d="M193 51l-157 167v100l157 168l71 -53l-108 -165l108 -164z" />
    <glyph glyph-name="guilsinglright" unicode="&#x203a;" horiz-adv-x="320" 
d="M127 51l-71 53l108 164l-108 165l71 53l157 -168v-100z" />
    <glyph glyph-name="fraction" unicode="&#x2044;" horiz-adv-x="249" 
d="M-65 -95l-94 49l473 791l94 -50z" />
    <glyph glyph-name="Euro" unicode="&#x20ac;" horiz-adv-x="540" 
d="M522 67q-50 -44 -94.5 -62.5t-99.5 -18.5q-113 0 -171.5 62.5t-74.5 173.5h-64l11 73h47v25q0 22 1 33h-59l11 74h56q21 122 90 178t167 56q50 0 92.5 -15t83.5 -48l-61 -92q-19 19 -47.5 31.5t-64.5 12.5q-53 0 -82.5 -29.5t-39.5 -93.5h201l-12 -74h-196v-27v-31h190
l-12 -73h-172q10 -66 37 -94.5t80 -28.5q35 0 63 12.5t53 37.5z" />
    <glyph glyph-name="uni2113" unicode="&#x2113;" horiz-adv-x="540" 
d="M332 111q21 5 35 11l47 -91q-41 -26 -84.5 -35.5t-74.5 -9.5q-49 0 -83.5 28t-47.5 73q-15 -12 -47 -34l-41 53q58 48 81 70q4 152 36.5 271t92 187t141.5 68q62 0 89.5 -32t27.5 -92q0 -49 -30.5 -112.5t-87 -133.5t-133.5 -140v-17q0 -37 13.5 -53t33.5 -16q11 0 32 5z
M335 566.5q-21 -34.5 -41 -97t-31 -142.5q68 83 96 147.5t28 102.5q0 13 -4 18.5t-12 5.5q-15 0 -36 -34.5z" />
    <glyph glyph-name="uni2117" unicode="&#x2117;" horiz-adv-x="749" 
d="M544 615q77 -45 122 -122t45 -170t-45 -169.5t-122 -121t-169 -44.5t-169.5 44.5t-123 121t-45.5 169.5t45.5 170t123 122t169.5 45t169 -45zM502.5 99.5q57.5 34.5 90.5 93.5t33 130t-33 130.5t-90.5 94.5t-127.5 35q-71 0 -129 -35t-91 -94.5t-33 -130.5t33 -130
t91 -93.5t129 -34.5q70 0 127.5 34.5zM478 491q37 -17 54.5 -47t17.5 -68q0 -34 -15 -65t-51.5 -51.5t-95.5 -20.5h-31v-93h-105v362h134q55 0 92 -17zM429.5 340.5q12.5 12.5 12.5 33.5q0 19 -11.5 32t-39.5 13h-34v-91h24q36 0 48.5 12.5z" />
    <glyph glyph-name="uni2120" unicode="&#x2120;" horiz-adv-x="888" 
d="M309.5 478.5q24.5 -14.5 39 -38t14.5 -59.5q0 -59 -43 -88t-117 -29q-48 0 -86 12.5t-64 33.5l46 69q25 -16 51.5 -23.5t51.5 -7.5q30 0 43.5 8.5t13.5 23.5t-11.5 25t-41.5 20l-24 8q-57 18 -83.5 44t-26.5 71q0 34 19.5 58.5t51 37t68.5 12.5q84 0 144 -41l-47 -68
q-23 14 -46.5 20.5t-43.5 6.5q-48 0 -48 -25q0 -11 11 -18.5t43 -18.5l24 -7q37 -12 61.5 -26.5zM856 648v-376h-98v218q-7 -21 -16 -39l-64 -130h-79l-68 131q-10 19 -16 40v-220h-98v376h115l71 -136q5 -9 12.5 -23.5t14.5 -30t11 -27.5q6 21 13 38.5t19 42.5l68 136h115z
" />
    <glyph glyph-name="trademark" unicode="&#x2122;" horiz-adv-x="905" 
d="M27 560v88h346v-88h-119v-288h-108v288h-119zM856 648v-376h-98v218q-7 -21 -16 -39l-64 -130h-79l-68 131q-10 19 -16 40v-220h-98v376h115l71 -136q5 -9 12.5 -23.5t14.5 -30t11 -27.5q6 21 13 38.5t19 42.5l68 136h115z" />
    <glyph glyph-name="Omega" unicode="&#x2126;" horiz-adv-x="747" 
d="M674.5 205q-27.5 -55 -77.5 -91q47 4 102 4v-118h-252v101q65 26 87 87.5t22 147.5q0 61 -20.5 108.5t-62 74.5t-100.5 27t-100 -27t-61.5 -74.5t-20.5 -107.5q0 -55 8 -99t32 -81t69 -56v-101h-252v118q56 0 101 -4q-50 37 -77 92.5t-27 129.5q0 105 45 178.5t120 110.5
t165 37q93 0 167.5 -39.5t117 -113.5t42.5 -174q0 -75 -27.5 -130z" />
    <glyph glyph-name="estimated" unicode="&#x212e;" horiz-adv-x="826" 
d="M609 613q83 -47 127 -126t44 -173h-586q-5 0 -9 -3.5t-4 -8.5v-160q0 -15 3 -24.5t12 -17.5q42 -42 97 -65t120 -23q69 0 129.5 29t99.5 76h66q-24 -33 -64 -62t-99 -47.5t-132 -18.5q-110 0 -193.5 43t-129 118.5t-45.5 172.5q0 95 44.5 172t128 121t195.5 44
q113 0 196 -47zM293 611.5q-55 -23.5 -97 -66.5q-9 -8 -12 -16.5t-3 -22.5v-160q0 -5 4 -8t9 -3h436q6 0 9.5 3t3.5 8v160q0 14 -3 22.5t-12 16.5q-47 47 -101.5 68.5t-113.5 21.5q-65 0 -120 -23.5z" />
    <glyph glyph-name="partialdiff" unicode="&#x2202;" horiz-adv-x="540" 
d="M335 591q77 -43 124 -125t47 -212q0 -83 -29 -143.5t-82 -92.5t-125 -32q-59 0 -113 20.5t-89 69.5t-35 129q0 69 26.5 116t70.5 70.5t97 23.5q69 0 124 -31q-16 50 -49 84t-81 56t-118 40l46 98q109 -28 186 -71zM343.5 137q24.5 41 24.5 121q0 19 -1 28
q-26 15 -49 21.5t-50 6.5q-57 0 -78.5 -30t-21.5 -85q0 -51 25 -77t73 -26q53 0 77.5 41z" />
    <glyph glyph-name="Delta" unicode="&#x2206;" horiz-adv-x="668" 
d="M422 648l233 -640v-8h-643v8l233 640h177zM199 114h267l-135 402z" />
    <glyph glyph-name="product" unicode="&#x220f;" horiz-adv-x="540" 
d="M528 648l-15 -107h-41v-727h-136v727h-134v-727h-136v727h-50v107h512z" />
    <glyph glyph-name="summation" unicode="&#x2211;" horiz-adv-x="540" 
d="M396 206l-165 -274h261l-1 -118h-444v68l219 354l-219 344v68h444l1 -118h-260l164 -263v-61z" />
    <glyph glyph-name="minus" unicode="&#x2212;" horiz-adv-x="540" 
d="M60 200v110h420v-110h-420z" />
    <glyph glyph-name="uni2215" unicode="&#x2215;" horiz-adv-x="540" 
d="M130 -11l-93 49l373 624l93 -50z" />
    <glyph glyph-name="uni2219" unicode="&#x2219;" horiz-adv-x="540" 
d="M229.5 187q-18.5 11 -29.5 29t-11 40q0 21 11 39t29.5 29t40.5 11q21 0 39.5 -11t30 -29t11.5 -39q0 -22 -11 -40t-30 -29t-40 -11q-22 0 -40.5 11z" />
    <glyph glyph-name="radical" unicode="&#x221a;" horiz-adv-x="540" 
d="M169 0l-164 424l133 42l96 -272l196 656h285v-118h-183l-222 -732h-141z" />
    <glyph glyph-name="infinity" unicode="&#x221e;" horiz-adv-x="777" 
d="M666.5 434q43.5 -24 65 -66.5t21.5 -98.5q0 -52 -25 -94.5t-71.5 -67t-110.5 -24.5q-53 0 -97 27.5t-66 73.5q-25 -44 -68 -72.5t-97 -28.5q-64 0 -107.5 24t-65 66.5t-21.5 98.5q0 52 25 94.5t71.5 67t110.5 24.5q53 0 97 -27.5t66 -73.5q25 44 68 72.5t97 28.5
q64 0 107.5 -24zM292 206.5q29 27.5 44 61.5q-15 32 -29 51t-35 31t-51 12q-18 0 -36.5 -7.5t-32.5 -28t-14 -54.5q0 -51 26.5 -72t60.5 -21q38 0 67 27.5zM592 186.5q19 7.5 33 28t14 54.5q0 51 -27 72t-60 21q-38 0 -67 -27.5t-44 -61.5q15 -32 29 -51t34.5 -31t50.5 -12
q18 0 37 7.5z" />
    <glyph glyph-name="integral" unicode="&#x222b;" horiz-adv-x="300" 
d="M-27 -191q-27 5 -54 17l34 102q19 -6 33.5 -8.5t34.5 -2.5q28 0 44 18.5t16 51.5v678q0 55 22.5 97.5t64 66t98.5 23.5q35 0 60.5 -5t54.5 -16l-34 -106q-18 8 -33 11t-32 3q-31 0 -48 -19t-17 -56v-678q0 -53 -21 -94t-61 -64.5t-96 -23.5q-39 0 -66 5z" />
    <glyph glyph-name="approxequal" unicode="&#x2248;" horiz-adv-x="540" 
d="M287.5 272.5q-21.5 9.5 -46.5 26.5q-17 11 -28 16.5t-23 5.5q-23 0 -37 -11.5t-29 -41.5l-78 27q22 67 62.5 102t101.5 35q28 0 48.5 -9t47.5 -26q16 -11 28 -16.5t24 -5.5q18 0 31 10.5t27 41.5l78 -27q-22 -67 -61 -102t-95 -35q-29 0 -50.5 9.5zM287.5 87.5
q-21.5 9.5 -46.5 26.5q-17 11 -28 16.5t-23 5.5q-23 0 -37 -11.5t-29 -41.5l-78 27q22 67 62.5 102t101.5 35q28 0 48.5 -9t47.5 -26q16 -11 28 -16.5t24 -5.5q18 0 31 10.5t27 41.5l78 -27q-22 -67 -61 -102t-95 -35q-29 0 -50.5 9.5z" />
    <glyph glyph-name="notequal" unicode="&#x2260;" horiz-adv-x="540" 
d="M480 287h-135l-34 -61h169v-111h-232l-85 -151l-91 45l60 106h-72v111h135l34 61h-169v111h232l85 151l91 -45l-60 -106h72v-111z" />
    <glyph glyph-name="lessequal" unicode="&#x2264;" horiz-adv-x="540" 
d="M480 406l-307 -93l307 -76l-23 -105l-397 103v150l377 126zM60 0v111h420v-111h-420z" />
    </font>
</defs>
</svg>
